<?xml version="1.0" standalone="no"?>
<!DOCTYPE svg PUBLIC "-//W3C//DTD SVG 1.1//EN" "http://www.w3.org/Graphics/SVG/1.1/DTD/svg11.dtd" >
<svg xmlns="http://www.w3.org/2000/svg" xmlns:xlink="http://www.w3.org/1999/xlink" version="1.1">
<metadata></metadata>
<defs>
<font id="lilianmedium" horiz-adv-x="563" >
<font-face units-per-em="2048" ascent="1638" descent="-410" />
<missing-glyph horiz-adv-x="614" />
<glyph horiz-adv-x="0" />
<glyph unicode="&#xd;" horiz-adv-x="681" />
<glyph unicode=" "  horiz-adv-x="614" />
<glyph unicode="&#x09;" horiz-adv-x="614" />
<glyph unicode="&#xa0;" horiz-adv-x="614" />
<glyph unicode="!" horiz-adv-x="204" d="M76 642q-2 50 0 127t6 116l8 119q6 80 6 96q2 35 11.5 100.5t10.5 90t-7 87.5q-4 14 3 27.5t22.5 16.5t28.5 -4t15 -23q10 -35 11.5 -79t-3 -77l-10.5 -77t-8 -66q-2 -18 -7 -99.5t-8 -117t-5.5 -111.5t-1 -122t7.5 -102.5t16 -97.5q4 -16 -3 -29.5t-22.5 -16.5t-29 4.5 t-15.5 21.5q-12 45 -18 105.5t-8 110.5zM145 118.5q0 14.5 11.5 26t26 11.5t25.5 -11.5t11 -26t-11 -25.5t-25.5 -11t-26 11t-11.5 25.5z" />
<glyph unicode="&#x22;" horiz-adv-x="481" d="M102 1008q-12 291 29 467q4 14 17.5 22t27.5 5t22.5 -16.5t6.5 -27.5q-41 -168 -29 -446q0 -16 -10 -27.5t-25.5 -11.5t-27 10t-11.5 25zM379 1217q-2 168 41 235q8 12 23.5 15t27.5 -5t15 -23.5t-5 -27.5q-31 -47 -28 -194q0 -129 22 -220q2 -14 -6 -27.5t-22.5 -16.5 t-27.5 5.5t-18 22.5q-23 98 -22 236z" />
<glyph unicode="#" horiz-adv-x="1083" d="M94 783.5q-2 15.5 7.5 27.5t23.5 14q31 4 68.5 6.5t63.5 2.5t71 -1.5t61 -1.5q76 217 96 328q4 16 16.5 24.5t28 5.5t23.5 -15.5t6 -26.5q-23 -117 -92 -316q88 0 229 -2q6 23 19 68q10 43 16 66q31 104 72 163q8 12 23.5 15.5t27.5 -5t15 -23.5t-5 -28q-35 -53 -61 -143 q-6 -20 -16.5 -58t-14.5 -55q197 -2 307 -2q14 0 25.5 -11t11.5 -25.5t-11 -25.5t-26 -11q-113 0 -329 2q-94 -270 -119 -346q49 -2 145 -9q129 -8 185 -8q14 0 25 -11t11 -25.5t-11 -26t-25 -11.5q-63 0 -191 9q-109 8 -162 8q-68 -219 -96 -399q-2 -14 -15.5 -23.5 t-27.5 -7.5t-23.5 15t-7.5 28q31 176 92 387q-18 -2 -94 -4t-119 -4q-39 -160 -81 -379q-4 -14 -16.5 -22.5t-28 -5.5t-23.5 15.5t-6 28.5q43 209 80 365q-55 2 -101 8q-16 2 -25.5 14.5t-7 27.5t14.5 24.5t27 7.5q51 -8 110 -9q35 137 74 261q12 41 31 94q-172 4 -228 -6 q-16 -2 -28.5 7t-14.5 24.5zM336 403q35 0 107.5 3.5t109.5 3.5q31 94 119 346q-139 2 -230 2q-25 -70 -39 -115q-35 -115 -67 -240z" />
<glyph unicode="$" horiz-adv-x="911" d="M40 317q1 89 62 156q10 12 24.5 12t27 -10t12.5 -24.5t-10 -26.5q-82 -92 -9 -231q33 -61 88.5 -107.5t112.5 -62.5q96 -23 209 -7q-4 195 -16 600q-57 33 -127 60q-6 4 -40 16.5t-50.5 19.5t-45 21.5t-49 30.5t-36.5 35q-35 39 -39 107.5t12 103.5q31 115 130 179 t228 79q-2 127 -2 243q0 14 11.5 25.5t25.5 11.5t25.5 -11t11.5 -26q0 -115 2 -241q31 0 61 -4q164 -23 234 -115q84 -113 -23 -260q-10 -12 -25.5 -14.5t-27.5 7t-14 25t6 27.5q76 102 25 172q-49 68 -183 84q-27 4 -53 4q4 -195 14 -537q250 -154 281 -383 q18 -137 -68 -221q-72 -70 -194 -100q2 -139 2 -262q0 -14 -11.5 -25.5t-25.5 -11.5t-25.5 11t-11.5 26q0 117 -2 248q-121 -14 -225 12q-74 18 -141.5 74.5t-108.5 130.5q-43 70 -42 159zM227.5 909q1.5 -43 18.5 -61q14 -14 29.5 -26.5t37.5 -22.5l37 -19q14 -6 48 -18 t44 -17q50 -20 97 -43q-10 303 -15 492q-106 -12 -185 -65.5t-103 -139.5q-10 -37 -8.5 -80zM614 569q12 -350 15 -538q92 27 143 78q61 59 47 159q-23 174 -205 301z" />
<glyph unicode="%" horiz-adv-x="1228" d="M105.5 1077.5q9.5 106.5 68.5 159.5q55 49 129 18q61 -2 96 -26q45 -31 58.5 -91.5t2.5 -123t-45 -112.5t-87 -64q-117 -27 -181 61q-51 72 -41.5 178.5zM161 94.5q-3 14.5 5 26.5q55 80 123 166l155 192l131 158l107 137l133 168l115 133q31 37 108 146q68 98 121 147 q10 10 25.5 10t26 -11t10 -26.5t-12.5 -25.5q-45 -45 -110 -137q-82 -115 -115 -152l-111 -133l-133 -166l-106 -135l-129 -160l-156 -188q-66 -84 -121 -164q-10 -12 -24.5 -15.5t-26.5 6t-15 24zM178 1071q-6 -80 29 -129t104 -31q25 4 46.5 37t29.5 81t0 86t-29 52 q-4 2 -6 4q-25 -23 -49 -2q-8 6 -16 11h-45q-8 0 -17 4q-2 -2 -4 -2q-37 -33 -43 -111zM890 287.5q3 60.5 32 113.5q33 59 82 74q61 18 112 -45q2 -2 4 -6q25 -20 37 -47q29 -61 -14 -131q-37 -59 -96 -88q-78 -35 -123 16q-37 53 -34 113.5zM963.5 286q-0.5 -42 17.5 -63 q8 -10 35 2q39 18 63 60q23 37 13 61q-16 33 -86 45q-10 -10 -19 -26q-23 -37 -23.5 -79z" />
<glyph unicode="&#x26;" horiz-adv-x="886" d="M96 330q-23 76 64 170q51 57 137 114q-8 2 -14 9q-27 20 -27 53q2 61 72 133q55 55 147 109q90 51 170 77q94 31 148 17q14 -2 21 -15.5t4 -29t-16.5 -22.5t-29.5 -3q-31 8 -104.5 -16.5t-153.5 -71.5q-84 -47 -133 -98q-33 -31 -49 -76h6q29 -4 84 8q68 35 127 53 q51 18 88 21q49 4 76 -17q18 -14 14 -36q-4 -14 -16 -23q-4 -4 -10.5 -6t-14.5 -4q-12 -2 -33 -6q-10 0 -22.5 -2t-20.5 -3t-8 -3q-4 0 -20 -5l-39 -12q-53 -16 -94 -27q-35 -18 -68 -38q-106 -63 -165.5 -129t-49.5 -101q10 -31 86 -18q84 12 227 74q100 43 246 118l160 82 q14 6 28.5 1t20.5 -18.5t1 -27.5t-17 -20l-33 -17l-62 -32l-63 -33q-145 -76 -250 -121q-154 -66 -248 -80q-139 -20 -166 72zM479 1255.5q0 26.5 4 51.5q2 16 14.5 25t28 7t24.5 -14.5t7 -26.5q-4 -23 -4 -45t2 -53t3 -44t7 -55t8 -50q2 -14 -7 -26.5t-24.5 -14.5t-27.5 7 t-14 25q0 4 -6.5 46t-8.5 57.5t-4 49.5t-2 60.5zM625 305q0 14 11 25.5t25.5 11.5t25.5 -11.5t11 -25.5q0 -98 23 -182q4 -14 -3 -27.5t-21.5 -17.5t-28 3t-17.5 21q-27 96 -26 203z" />
<glyph unicode="'" horiz-adv-x="194" d="M51 983q0 68 10.5 211t12.5 203q0 16 11 26.5t26.5 10.5t25.5 -11.5t10 -25.5q-2 -63 -12 -209t-10 -205q0 -14 -11.5 -25.5t-25.5 -11.5t-25.5 11.5t-11.5 25.5z" />
<glyph unicode="(" horiz-adv-x="489" d="M61 528q8 193 66 381q61 203 168.5 353.5t253.5 197.5q16 4 29.5 -2t17.5 -21.5t-2.5 -28.5t-20.5 -17q-123 -39 -220 -175.5t-156 -326.5q-55 -182 -63.5 -364.5t30.5 -297.5q53 -158 146 -267.5t247 -213.5q12 -8 15 -23.5t-5 -27.5t-23.5 -15.5t-27.5 5.5 q-162 111 -263 229.5t-159 288.5q-43 133 -33 325z" />
<glyph unicode=")" horiz-adv-x="344" d="M-106.5 -327.5q4.5 14.5 16.5 22.5q76 43 178 155q154 174 205 279q96 201 81.5 463t-130.5 448q-59 94 -148 197q-53 61 -94 96t-59 35q-14 0 -24.5 12.5t-10.5 26.5t12.5 24.5t26.5 10.5q43 -2 104 -53q45 -37 101 -103q92 -111 153 -205q127 -205 143.5 -485.5 t-90.5 -499.5q-55 -113 -217 -295q-109 -123 -194 -172q-14 -6 -28.5 -2t-22 17.5t-3 28z" />
<glyph unicode="*" horiz-adv-x="765" d="M75 1109q1 15 12 24.5t26 9.5q31 -2 204 -17l-106 209q-6 14 -2 28.5t18.5 21t28.5 2t20 -18.5l103 -199q53 88 119 179q10 12 25.5 14t27.5 -7t14 -24.5t-6 -27.5q-70 -95 -125 -185q178 -12 309 -12q14 0 25.5 -11.5t11.5 -25.5t-11 -25.5t-26 -11.5q-127 0 -294 10 q66 -113 131 -211q8 -12 5 -27.5t-15.5 -23.5t-28 -5t-23.5 16q-70 106 -141 229q-72 -135 -117 -270q-4 -14 -18.5 -20.5t-28.5 -2.5t-20.5 18.5t-2.5 28.5q47 139 121 279q-174 14 -202 16q-16 2 -25.5 13.5t-8.5 26.5z" />
<glyph unicode="+" horiz-adv-x="888" d="M87 556q3 15 15.5 23.5t28.5 6.5q145 -31 363 -31q12 250 41 455q2 14 14 23t27.5 7t24.5 -14t7 -29q-29 -199 -41 -442q281 4 355 2q14 0 24 -11t10 -26.5t-11 -26t-27 -10.5q-53 2 -353 -2q-6 -168 -6 -415q0 -14 -11 -25.5t-25.5 -11.5t-26 11t-11.5 26q0 248 7 415 q-225 0 -377 31q-14 4 -22.5 16.5t-5.5 27.5z" />
<glyph unicode="," horiz-adv-x="282" d="M76 -318.5q0 15.5 12 25.5q84 80 92 189.5t-76 187.5q-10 10 -11 25.5t8.5 26.5t25 12t27.5 -7q76 -68 94 -160t-12.5 -179t-98.5 -148q-10 -10 -25.5 -10t-25.5 11t-10 26.5z" />
<glyph unicode="-" d="M49 464q-2 15 7.5 27.5t23.5 14.5q154 23 485 22q14 0 25.5 -11t11.5 -25.5t-11 -25.5t-26 -11q-330 0 -473 -23q-16 -2 -28.5 7.5t-14.5 24.5z" />
<glyph unicode="." horiz-adv-x="212" d="M76 37q0 14 11 25.5t25.5 11.5t26 -11.5t11.5 -25.5t-11.5 -25.5t-26 -11.5t-25.5 11.5t-11 25.5z" />
<glyph unicode="/" horiz-adv-x="679" d="M25 -324q16 39 34 111q20 86 33 121q37 104 113 289q78 186 92 225l217 522q133 324 199 526q4 16 17 22.5t28.5 2.5t21.5 -17.5t2 -27.5q-68 -217 -198 -535q-211 -506 -217 -522q-16 -37 -93 -223t-112 -287q-10 -33 -31 -114q-20 -76 -37 -121q-6 -14 -20.5 -19.5 t-28.5 -0.5t-19.5 19.5t-0.5 28.5z" />
<glyph unicode="0" horiz-adv-x="819" d="M26.5 564.5q8.5 107.5 41.5 199.5q80 215 247 270q195 66 435 -114q12 -8 14 -23.5t-8 -28.5l-2 -2q80 -123 91 -297t-40 -313q-70 -207 -209 -283q-164 -90 -356 41q-80 55 -132.5 146.5t-71 194t-10 210zM97 491.5q-1 -124.5 48.5 -240.5t135.5 -175q156 -106 280 -39 q115 63 174 242q35 121 37 239.5t-41 229t-125 170.5q-6 6 -10 12q-143 74 -258 35q-135 -45 -201 -226q-39 -123 -40 -247.5z" />
<glyph unicode="1" horiz-adv-x="409" d="M54 59.5q3 14.5 16.5 22.5t27.5 6q55 -12 135 -16q4 66 5 159v101v102q2 207 32 524q-78 -90 -147 -131q-12 -8 -27.5 -5t-22.5 16.5t-4 29t17 21.5l23 16q12 8 24 19l21 18q10 8 22 22.5t19.5 21.5t21.5 26l19 22l20 27q16 18 20 22q10 12 24.5 14.5t27.5 -7.5h2 q24 -10 22 -39q-39 -397 -41 -617v-102v-101q0 -94 -4 -159q90 -2 139 -6q14 -2 24.5 -13.5t8.5 -27t-13 -25.5t-28 -8q-45 4 -151 6q-12 -8 -25 -6q-8 2 -16 6q-96 2 -164 16q-14 4 -22.5 17.5t-5.5 28z" />
<glyph unicode="2" horiz-adv-x="882" d="M80 104q4 10 8 22.5t4 18.5q10 90 79 155t177 122l101 47l79 39q98 47 138 82q61 55 57 135q-4 96 -73.5 145.5t-176.5 49.5q-104 -2 -192 -51.5t-117 -125.5q-6 -14 -19.5 -20t-28 -1t-20.5 18.5t-2 27.5q39 102 147.5 161.5t231.5 63.5q127 2 221 -63q96 -68 103 -201 q6 -115 -82 -192q-47 -43 -154 -95q-18 -10 -82 -41l-98 -45q-98 -51 -153.5 -103t-61.5 -116q0 -8 -4 -18l-4 -21q-4 -12 -6 -12q6 -2 12 -2q25 0 65 2q27 2 68 6t47 4q127 6 217 6h285q14 0 25.5 -11t11.5 -25.5t-11.5 -25.5t-25.5 -11h-285q-90 0 -213 -6q-6 0 -47 -4.5 t-68 -6.5q-45 -2 -71 -2q-18 2 -31 4q-20 2 -33 13q-31 27 -18 77z" />
<glyph unicode="3" horiz-adv-x="876" d="M45 33q0 14 11.5 25.5t25.5 11.5t25.5 -11.5t11.5 -25.5q0 -133 80 -208t202 -85q119 -10 226.5 45t148.5 158q57 137 12 276q-45 147 -180 187q-39 10 -108 2q-109 -12 -127 -13q-6 0 -11 2l-12 4q-14 12 -14 31q0 14 10 27q4 2 8 6l11 4q4 0 12 2l41 8q68 14 102 27 q119 43 152 82q41 47 26 157q-10 84 -63 135.5t-133 67.5q-78 14 -158 -8t-133 -76q-12 -10 -26.5 -10t-26 11.5t-11 26t10.5 26.5q68 68 166 94t192 8q100 -20 171 -88t85 -178q16 -141 -45 -213q-31 -37 -92 -68q168 -49 225 -231q51 -166 -14 -328q-53 -127 -182 -193 q-129 -68 -269 -55q-147 12 -250 107q-100 94 -100 260z" />
<glyph unicode="4" horiz-adv-x="995" d="M131 139q-12 31 16 60q8 8 12.5 11t6.5 5l137 197q41 59 148 198q113 147 185.5 258t111.5 205q0 14 2 28.5t14 24t27.5 7t24.5 -14.5t7 -28q-6 -14 -5 -98.5t1 -108.5q-14 -430 -14 -719q150 -4 270 -14q14 -2 24.5 -13.5t8.5 -27t-13.5 -25.5t-27.5 -8q-117 10 -262 14 q2 -227 14 -430q0 -14 -10 -26.5t-24.5 -12.5t-27 10.5t-12.5 24.5q-12 205 -14 436h-332q-86 0 -123 2q-49 2 -77 6q-20 4 -33 9q-27 10 -35 30zM225 172q23 -4 56 -4q35 -2 118 -2h332q0 291 14 721v20q-63 -111 -217.5 -317.5t-162.5 -218.5q-135 -193 -140 -199z" />
<glyph unicode="5" horiz-adv-x="1024" d="M90 92q4 14 16.5 21.5t28 3.5t22.5 -16.5t3 -28.5q-47 -180 39 -279q78 -88 231 -90q158 0 301 89t191 239q27 84 15.5 164.5t-53.5 140t-105.5 102.5t-143.5 50.5t-166 -13.5q-133 -39 -221 -123l-4 -12q-16 -41 -54 -37q-20 2 -30 23q-2 6 -2 14q-2 4 0 12q0 8 4 25 q6 23 18 72q41 152 45 161q6 25 21 172q12 131 39 181q8 14 28 22q10 4 25 6q27 6 70 13q72 6 198 12q59 4 138 6t131.5 4t70.5 4q14 2 25.5 -8t13.5 -25.5t-8 -27t-26.5 -13.5t-70 -4t-132 -4t-138.5 -6q-125 -6 -194 -12q-39 -4 -62 -10q-6 0 -10 -2q-14 -29 -25 -144 q-16 -152 -24 -180q-6 -29 -37 -139q86 59 191 90q98 29 195 15.5t172 -60.5t129 -122t64.5 -169t-18.5 -199q-37 -119 -130 -208t-205.5 -131t-225.5 -42q-188 2 -287 115q-113 129 -53 348z" />
<glyph unicode="6" horiz-adv-x="880" d="M33 535q25 188 114 379.5t191 302.5q123 131 176 176q137 111 248 80q14 -4 21.5 -17.5t3 -28t-18 -21.5t-27.5 -3q-72 18 -180 -68q-53 -41 -170 -168q-76 -84 -148.5 -223t-111.5 -289q12 16 25 31q82 102 176 154q111 59 250 59q205 0 282 -168q63 -141 13 -340 q-51 -195 -177 -319q-143 -143 -313 -115q-221 39 -309 213q-74 145 -45 365zM98 401q2 -117 45 -198q72 -139 256 -172q131 -25 250 92q111 113 156 287t-8 290q-57 125 -215 125q-121 0 -213 -51q-82 -45 -156 -133q-72 -88 -113 -233q0 -3 -2 -7z" />
<glyph unicode="7" horiz-adv-x="815" d="M68 941q0 15 10 26.5t24 11.5q20 0 153.5 10t221.5 17q139 8 219 6q51 0 82 -4q16 -2 31 -7q18 -6 29 -18q12 -12 12 -33q0 -8 -4 -18q-2 -16 -12 -43q-16 -43 -52 -113q-20 -45 -53 -110l-39 -74l-141 -305q-47 -102 -118 -274.5t-116 -315.5q-4 -14 -17 -20.5 t-28.5 -2.5t-21.5 17.5t-2 29.5q47 143 117.5 318.5t117.5 277.5l144 308q2 6 34 71l58 113q33 68 47 106q4 10 6 19h-2q-27 4 -72 4q-80 2 -215 -6q-88 -6 -222 -16.5t-153 -10.5q-16 0 -27 10.5t-11 25.5z" />
<glyph unicode="8" horiz-adv-x="837" d="M133 975q-2 35 0 59q16 117 85 199t163 116.5t200.5 33.5t198.5 -40q14 -6 19.5 -20t1.5 -29l-8 -12q-18 -45 -45 -89t-72 -103l-53 -74q-96 -141 -154 -238q80 -49 142.5 -97t124 -112.5t99 -145.5t48.5 -171q12 -119 -80 -195q-90 -78 -217 -96q-82 -12 -156 2 q-76 12 -139.5 60.5t-81.5 126.5q-47 184 96 483q27 57 62 119l-5 2q-10 6 -48 25.5t-61.5 32.5t-53 39t-47.5 52q-14 23 -19 72zM207 979q2 -29 6 -35q18 -27 40.5 -45t79 -47t66.5 -33l4 -4q59 98 158 242q16 25 53 74t60.5 84.5t40.5 72.5q-80 29 -166 22t-158 -37 t-122 -95.5t-62 -151.5q-2 -18 0 -47zM279 166q20 -76 104 -112t192.5 -20.5t175 74t58.5 136.5q-14 150 -113 260q-100 111 -266 211q-33 -59 -59 -113q-131 -274 -92 -436z" />
<glyph unicode="9" horiz-adv-x="950" d="M58 536.5q-1 81.5 26 161.5t87 156t146 131q123 78 246 62q117 -16 217 -150q102 -135 129 -303q29 -166 -12 -320.5t-132 -295t-218 -236.5q-6 -4 -39 -29.5l-44 -34t-41 -28t-50.5 -27.5t-49 -17t-57.5 -14q-14 -2 -26.5 8.5t-14.5 25t8.5 26.5t24.5 14q23 2 45 10 l39 13q14 6 42 24.5t36 24.5l43 33q35 25 39 28q125 96 211.5 233.5t117.5 289.5q-76 -76 -174 -119q-141 -66 -256.5 -55.5t-195.5 73t-119 162.5q-27 72 -28 153.5zM131 537.5q0 -68.5 25 -127.5q29 -80 91 -129.5t159.5 -59.5t222.5 47q115 53 196 156q9 10 21 14 q12 236 -123 414q-84 111 -168 121q-98 12 -197 -49q-78 -49 -130 -115t-74.5 -134.5t-22.5 -137z" />
<glyph unicode=":" horiz-adv-x="145" d="M78 73.5q0 14.5 11 26t25.5 11.5t26 -11.5t11.5 -26t-11.5 -25.5t-26 -11t-25.5 11t-11 25.5zM78 819.5q0 14.5 11 25.5t25.5 11t26 -11t11.5 -25.5t-11.5 -26t-26 -11.5t-25.5 11.5t-11 26z" />
<glyph unicode=";" horiz-adv-x="284" d="M31 -268.5q2 14.5 14 24.5q119 84 145 164q29 88 -61 189q-10 10 -10 25.5t11 25.5t26.5 10t25.5 -12q119 -131 78 -260q-33 -102 -170 -203q-14 -8 -28.5 -6t-23.5 15t-7 27.5zM102 782.5q0 14.5 11.5 25.5t26 11t25.5 -11t11 -25.5t-11 -26t-25.5 -11.5t-26 11.5 t-11.5 26z" />
<glyph unicode="&#x3c;" horiz-adv-x="790" d="M100 510q0 8 1 15t5 12l3 2q2 4 6 6q0 2 2 2l2 2h4l4 4l18 8l58 29q90 45 127 65q27 18 121 74l149 86q166 106 223 189q8 12 23.5 15t28 -5t15.5 -23.5t-5 -27.5q-66 -96 -246 -209q-53 -35 -147 -90l-125 -70q-37 -25 -131 -70l-35 -18l20 -8q16 -8 47 -21 q27 -10 33 -14q330 -174 541 -400q10 -10 10 -25t-11.5 -25.5t-26.5 -10.5t-26 12q-203 215 -520 383q-4 2 -28 13q-29 12 -50 20q-33 14 -51 29q-33 23 -39 51z" />
<glyph unicode="=" horiz-adv-x="937" d="M42 352.5q-3 14.5 6.5 26.5t23.5 16q35 6 73.5 7t91 -1t68.5 -2q104 0 311 -2t312 -2q14 0 25.5 -11t11.5 -25.5t-11.5 -25.5t-25.5 -11q-104 0 -311 2t-312 2q-25 0 -73 2t-82.5 1t-65.5 -7q-14 -2 -26.5 7t-15.5 23.5zM59 716.5q0 14.5 11.5 26t25.5 11.5 q135 0 407.5 -1t407.5 -1q14 0 25.5 -11.5t11.5 -26t-11 -25.5t-26 -11q-135 0 -407.5 1t-407.5 1q-14 0 -25.5 11t-11.5 25.5z" />
<glyph unicode="&#x3e;" horiz-adv-x="819" d="M34 931.5q-5 14.5 1 28t20.5 18.5t28.5 -1q41 -18 102 -57q72 -47 95 -60q102 -59 331 -151q47 -20 123 -60q43 -23 68 -39q16 -10 24.5 -18t12.5 -14q8 -18 2 -37q-6 -12 -23 -25l-22 -16l-74 -41l-215 -113q-322 -170 -387 -246q-10 -10 -25.5 -11t-27 8t-12.5 24.5 t7 28.5q76 86 410 262l215 112q39 20 60 33q-18 12 -46 27q-72 37 -118 55q-231 96 -340 156l-99 61q-55 37 -94 55q-12 6 -17 20.5z" />
<glyph unicode="?" horiz-adv-x="694" d="M106 1255q49 86 158 134q51 20 106.5 26t110 -5t101.5 -52t75 -107q76 -172 -1.5 -324.5t-243.5 -238.5q-12 -6 -107 -41q-37 -12 -57 -20q-6 -4 -12 -6q0 -6 2 -19q2 -27 10 -90q20 -143 20 -166q0 -14 -11 -25.5t-25.5 -11.5t-25.5 11.5t-11 25.5t-19 156 q-10 72 -12 92t-2 33q-2 6 0 12v8q2 12 10 21q12 12 47 26l62 23q94 35 98 37q145 76 208.5 202.5t4.5 266.5q-29 61 -79 93t-106.5 31t-113.5 -26q-86 -39 -123 -102q-35 -61 2 -115q8 -12 5 -26.5t-15 -24t-26.5 -6t-24.5 15.5q-63 90 -5 192zM233 96.5q0 14.5 11.5 25.5 t26 11t25.5 -11t11 -25.5t-11 -26t-25.5 -11.5t-26 11.5t-11.5 26z" />
<glyph unicode="@" horiz-adv-x="1433" d="M125 591q29 167 111 322q78 147 231.5 265t320.5 159q188 45 330 -22q164 -78 232 -287q23 -72 22.5 -168t-8.5 -160q-23 -311 -139 -467q-51 -68 -117 -71q-57 -4 -113 43q-43 37 -75.5 95t-42.5 112q-1 8 -3 16q-47 -111 -96 -184q-57 -86 -116 -121q-82 -45 -162 4 q-119 74 -113 258q6 152 90 317q84 164 189 232q61 39 118 33q63 -8 109 -72q47 -68 62.5 -130.5t5.5 -143.5q-2 -14 -13 -25q-6 -131 1 -172t34 -88t59 -76q33 -27 62 -24q33 2 63 43q100 137 123 426q0 6 2 34.5t3 36.5t2 33t1 35v33q0 20 -1 33.5t-3 30.5t-6 34l-8 29 q-59 180 -193 243q-119 57 -280 19q-154 -39 -295 -146.5t-211 -238.5q-78 -147 -103.5 -302t8.5 -312.5t132 -284.5q121 -156 303 -209.5t359.5 11t279.5 232.5q6 14 21.5 17.5t28.5 -3.5t16.5 -22.5t-5.5 -27.5q-86 -145 -227 -223.5t-289.5 -81.5t-296 64.5t-247.5 197.5 q-109 139 -147 313t-9 341zM461 383q-4 -141 80 -195q41 -25 84 0q45 25 92 97q63 94 125 260q24 63 28 88v2q0 2 -1 8t-1 8q-2 16 2 29q6 16 21 25q-4 74 -60 149q-25 35 -55.5 39t-68.5 -21q-88 -57 -164 -202q-76 -152 -82 -287z" />
<glyph unicode="A" horiz-adv-x="1007" d="M70 37q141 549 303 962q2 4 12 33l29 74l30 86l50 123q10 29 16 43q4 8 6 14q2 4 4 6q6 10 15 15q14 7 27 7q17 0 34 -11q18 -12 35 -37q23 -35 47 -105q12 -33 25.5 -73.5t21.5 -73.5q10 -31 12 -39q166 -510 187 -578q16 -47 63 -237q37 -145 68 -230q4 -14 -2 -27.5 t-20.5 -18.5t-28 1t-19.5 21q-31 80 -70 237q-45 178 -61 234l-14 43q-186 0 -547 -27q-10 0 -21 6q-68 -219 -133 -465q-2 -16 -15 -23t-28.5 -4t-22.5 16.5t-3 27.5zM293 553q342 25 524 27l-149 456l-13 39q-8 33 -20 73t-25 75q-23 57 -41 86l-8 -21l-47 -123l-31 -86 l-28 -75q-10 -29 -13 -33q-77 -195 -149 -418z" />
<glyph unicode="B" horiz-adv-x="899" d="M59 1325q0 14 11.5 25.5t25.5 11.5q6 0 10 -2q53 14 129 14q21 0 43 -1q104 -5 201 -34q111 -33 188.5 -92t94.5 -147q5 -30 5 -52q0 -16 -3 -28q-8 -29 -41 -66q-88 -100 -279 -153q100 -27 185.5 -72t161 -125t100.5 -180q14 -53 14 -100q0 -92 -53 -164 q-66 -92 -209 -137q-109 -33 -246 -35h-21q-123 0 -208 22q-12 -16 -31 -16q-14 0 -25.5 11t-11.5 26q0 215 -20.5 646t-20.5 648zM133 1290q0 -182 15 -459q8 0 26 3h16q10 0 17.5 1t11.5 1q334 37 451 168q20 23 22 35t-4 48q-10 59 -70.5 106.5t-158.5 76.5 q-85 26 -179 30q-23 1 -44 1q-63 0 -103 -11zM150 752q23 -477 24 -668q83 -24 206 -24h10q130 1 231 34q121 37 172 109q39 52 39 124q0 38 -11 81q-31 119 -143.5 201.5t-259.5 123.5q-76 20 -195 21h-57q-4 0 -16 -2z" />
<glyph unicode="C" horiz-adv-x="970" d="M56 593q-4 50 -3 101q0 130 25 258q20 90 54 166t86 139.5t128 97.5q66 30 146 29h24q150 -6 244 -86.5t170 -226.5q6 -12 2 -27.5t-17.5 -21.5t-29 -2t-21.5 18q-70 131 -148.5 200t-203.5 73h-16q-132 -1 -218 -97q-90 -102 -128 -278q-24 -121 -23 -242q0 -48 3 -95 q13 -169 60 -280q74 -167 178 -233q76 -48 152 -48l58 7q104 25 185 132.5t103 275.5q2 16 14.5 25t28 7t24.5 -14t7 -27q-27 -188 -121 -314t-225 -157q-37 -9 -73 -9q-95 0 -187 59q-127 81 -209 268q-55 121 -69 302z" />
<glyph unicode="D" horiz-adv-x="948" d="M43 1325q0 14 11.5 25.5t25.5 11.5q12 0 22 -8q53 5 104 5q150 0 281 -44q104 -35 234 -154q250 -225 258 -487v-20q0 -256 -242 -470q-139 -119 -291 -169q-126 -42 -276 -42q-30 0 -61 2q-14 0 -24.5 12.5t-10.5 27t10 22.5q0 215 -20.5 643t-20.5 645zM117 1282 q2 -203 21.5 -613.5t19.5 -621.5h12q296 0 518 195q217 190 217 414v16q-6 229 -233 436q-119 106 -209 137q-120 41 -260 41q-42 0 -86 -4z" />
<glyph unicode="E" horiz-adv-x="899" d="M53 1321v4q0 14 11.5 25.5t25.5 11.5q8 0 16 -4q121 0 366 -4t370 -4q14 0 25.5 -11.5t11.5 -26t-11.5 -25.5t-25.5 -11q-125 0 -363.5 4t-351.5 4q2 -197 17 -530h8q76 0 228 2t228 2q14 0 25.5 -11.5t11.5 -25.5t-11 -25.5t-26 -11.5q-76 0 -228.5 -2t-227.5 -2h-5 q18 -406 21 -606q20 1 44 1q48 0 112 -3q135 -2 182 -2q51 0 152.5 4t153.5 5h40q46 0 113 -1q14 0 24 -11.5t10 -26.5t-11 -25.5t-27 -10.5q-65 1 -110 1h-41q-52 -1 -151.5 -5t-152.5 -4q-47 0 -184 2q-54 2 -97 2t-75 -2q-8 -4 -19 -4q-14 0 -25.5 11t-11.5 26 q0 215 -20.5 645t-20.5 645z" />
<glyph unicode="F" horiz-adv-x="772" d="M47 1321v4q0 14 11.5 25.5t25.5 11.5q8 0 16 -4q121 0 366 -4t370 -4q14 0 25 -11.5t11 -26t-11 -25.5t-25 -11q-125 0 -364 4t-351 4q2 -197 17 -530h7q76 0 228.5 2t228.5 2q14 0 25.5 -11.5t11.5 -25.5t-11.5 -25.5t-25.5 -11.5q-76 0 -228.5 -2t-228.5 -2h-4 q20 -434 21 -649q0 -14 -11.5 -25.5t-25.5 -11.5t-25.5 11t-11.5 26q0 215 -20.5 645t-20.5 645z" />
<glyph unicode="G" horiz-adv-x="1067" d="M60 593q-3 50 -3 101q0 130 25 258q20 90 54 166t86 139.5t128 97.5q66 30 146 30q12 0 24 -1q150 -6 244 -86.5t170 -226.5q6 -12 2 -27.5t-17.5 -21.5t-29 -2t-21.5 18q-70 131 -148.5 200t-203.5 73h-16q-132 0 -217 -97q-90 -102 -129 -278q-24 -121 -24 -242 q0 -47 4 -95q13 -169 61 -280q74 -166 178 -233q76 -48 152 -48q28 0 57 7q98 25 175 120t107 247q-31 -1 -60 -1q-72 0 -128 7q-16 2 -25.5 14t-7.5 27.5t14.5 25t26.5 7.5q33 -4 63.5 -6.5t68.5 -2.5t59.5 1t69.5 4.5t65 3.5q8 0 14 -3q6 0 14 -2q14 -2 21.5 -15.5 t3.5 -29.5q-43 -164 -43 -280q0 -71 16 -125q4 -14 -3 -27.5t-21.5 -17.5t-27.5 3t-17 21q-19 65 -19 149q0 109 33 251l-41 -2q-31 -176 -123 -293t-219 -148q-37 -9 -73 -9q-95 0 -187 59q-127 81 -209 268q-55 121 -69 302z" />
<glyph unicode="H" horiz-adv-x="968" d="M51 1319q0 14 11.5 25.5t25.5 11.5t25.5 -11.5t11.5 -25.5q0 -211 17 -567q125 0 375.5 4t375.5 4q-16 354 -16 565q0 14 11 25.5t25.5 11.5t25.5 -11.5t11 -25.5q0 -217 20.5 -648t20.5 -646q0 -14 -11 -25.5t-25.5 -11.5t-25.5 11t-11 26q0 215 -21 655q-127 0 -378 -4 t-374 -4q20 -438 21 -653q0 -14 -11.5 -25.5t-25.5 -11.5t-25.5 11t-11.5 26q0 215 -20.5 646t-20.5 648z" />
<glyph unicode="I" horiz-adv-x="550" d="M49 1330.5q2 15.5 13.5 25.5t27.5 8q70 -5 112 -5h13q43 1 127 4t131 3q14 0 25.5 -11.5t11.5 -25.5t-11.5 -25.5t-25.5 -11.5q-39 0 -145 -4q0 -76 -3 -221t-3 -262q0 -102 6 -221q18 -359 18 -480v-22q98 0 197 -8q14 -2 24.5 -13.5t8 -27t-13.5 -25.5t-27 -8 q-87 8 -173 8h-34q-8 -4 -18.5 -4t-18.5 4q-82 0 -154 -8q-16 -2 -27.5 8t-13.5 25.5t8.5 27t24.5 13.5q70 6 143 8v21q0 117 -18 477q-6 119 -6 221q0 117 3 263t3 222h-49q-70 0 -123 4q-14 2 -24.5 13.5t-8.5 27z" />
<glyph unicode="J" horiz-adv-x="706" d="M54 299v31.5v43.5q1 50 1 62q0 14 11.5 25.5t25.5 11.5t25.5 -11t11.5 -26q0 -16 -1 -66v-43.5v-27.5q1 -20 4 -57t11.5 -64.5t22.5 -52.5q35 -66 96 -87q26 -8 51 -8q35 0 69 17q58 29 85 98q16 41 22 199q5 126 5 293v57q-6 387 -27 582q-26 -1 -50 -1q-73 0 -130 9 q-14 2 -23.5 14.5t-7.5 27.5t14.5 24.5t28.5 7.5q80 -9 125 -9h9q46 1 136 7t144 6q14 0 25.5 -11.5t11.5 -25.5t-11.5 -25.5t-25.5 -11.5q-39 0 -172 -8q20 -203 26 -584q1 -50 1 -98q0 -141 -5 -256q-6 -174 -26 -225q-29 -70 -86.5 -112t-120.5 -48q-10 -1 -20 -1 l-108 28q-63 34 -102 104q-16 33 -26.5 67.5t-14.5 76.5t-5 67z" />
<glyph unicode="K" horiz-adv-x="960" d="M57 1323q0 14 11.5 25.5t26 11.5t25.5 -11.5t11 -25.5q0 -215 21 -659l45 38q78 68 102 93l74 73l80 80l71 72q51 51 76 82l64 74q41 45 71 86l60 81q8 12 23.5 15.5t27.5 -4.5t15 -23.5t-5 -27.5l-61 -86q-33 -41 -74 -89l-66 -75q-27 -31 -77 -84l-74 -74l-78 -80 l-74 -74q-27 -27 -108 -96l-37 -31l12 -10q33 -27 90 -69l273 -191q379 -258 456 -289q14 -6 19.5 -20.5t0.5 -28.5t-19.5 -19t-28.5 -1q-84 37 -469 297l-275 192q-61 45 -94 72l-14 12q14 -326 14 -530q0 -14 -11 -25.5t-25.5 -11.5t-26 11t-11.5 26q0 215 -20.5 646 t-20.5 648z" />
<glyph unicode="L" horiz-adv-x="821" d="M80 678q-2 137 -2 255q0 236 8 396q0 14 12.5 24.5t26.5 10.5t24.5 -12.5t10.5 -26.5q-8 -160 -8 -393q0 -117 2 -252q5 -323 5 -488q0 -82 -1 -124q67 -6 162 -6q76 0 169 4q291 10 347 10q14 0 25 -11.5t11 -25.5t-11 -25.5t-25 -11.5q-55 0 -344 -10q-97 -4 -177 -4 q-100 0 -172 6q-6 0 -10 2q-6 -2 -12 -2q-16 0 -26.5 11t-10.5 26q1 48 1 136q0 176 -5 511z" />
<glyph unicode="M" horiz-adv-x="1308" d="M59 23q8 205 9 645q0 463 10 651v2q-4 27 20 39q12 6 26.5 1.5t22.5 -18.5q37 -68 101 -215l94 -215q59 -125 175 -349t159 -316q29 59 74 145q84 156 106 203l164 354q109 244 170 369q4 10 14 16q12 12 29 13q14 0 25.5 -11.5t11.5 -25.5q0 -217 20 -648.5t21 -646.5 q0 -14 -11.5 -25t-25.5 -11t-25.5 11t-11.5 25q0 211 -18.5 600.5t-20.5 546.5l-276 -600q-23 -51 -107 -205q-66 -125 -98 -202q-6 -12 -19 -19q-2 -2 -6 -4q-14 -6 -28.5 -1t-20.5 18q-57 121 -182 362q-117 227 -185 369q-20 43 -96 217l-35 80q-4 -117 -4 -510 q0 -442 -8 -650q0 -14 -11 -24t-26.5 -10t-26 11t-10.5 28z" />
<glyph unicode="N" horiz-adv-x="970" d="M51 14q1 93 1 245v166.5v166.5q0 152 1 244q2 66 10.5 226.5t8.5 246.5q0 14 11 25.5t26 11.5q12 0 22 -9q8 -4 14 -10q55 -80 152 -237q119 -197 145 -236l152 -225l180 -262l156 -222v65q0 198 -10 536q-12 396 -11 579q0 14 11.5 25.5t26 11.5t25.5 -11.5t11 -25.5 q1 -171 13 -615q8 -284 7 -484q0 -112 -2 -197q0 -16 -11 -26.5t-25 -10.5q-23 0 -33 18q-2 4 -4 6l-256 369q-182 260 -291 428q-29 45 -145 240l-93 145q-2 -49 -8 -173t-8 -189q-1 -91 -1 -244v-167.5v-167.5q0 -152 -1 -243q0 -16 -11.5 -26.5t-26.5 -10.5t-25.5 11.5 t-10.5 25.5z" />
<glyph unicode="O" horiz-adv-x="1034" d="M43 653q-2 28 -2 56q-1 119 27 244q34 155 110 264q106 152 295 172q24 2 48 2q160 0 280 -107q74 -66 149 -211q6 -10 4 -24q34 -98 42 -210q4 -48 3 -92q-1 -60 -7 -112q-12 -92 -36 -209q-33 -201 -143.5 -321.5t-255.5 -135.5q-18 -2 -35 -2q-132 0 -246 94 q-127 106 -186 314q-39 135 -47 278zM118 658q7 -138 42 -263q54 -186 162 -274q97 -79 203 -79q12 0 24 1q113 10 204 105.5t126 261.5v8l6 22q2 8 2 19q2 4 4 10q35 143 35 300t-56 290q-2 6 -2 12q-57 106 -116 160q-96 85 -224 85q-22 0 -46 -2q-156 -18 -242 -138 q-70 -98 -100 -238q-24 -114 -24 -226z" />
<glyph unicode="P" horiz-adv-x="860" d="M68 678q-2 143 -2 264q0 202 6 344v6q2 18 2 37q0 14 12 24.5t27 10.5q30 -2 34 -33q88 14 170 14q211 0 377 -92q98 -55 146 -155q30 -65 30 -132q0 -38 -10 -76q-26 -106 -125 -173q-14 -10 -30 -19l-31 -14q-14 -8 -35 -14l-33 -11q-14 -4 -37.5 -10t-31.5 -8l-35 -6 q-25 -6 -29 -8q-132 -29 -249 -29q-42 0 -81 4q4 -232 4 -391q0 -106 -2 -180q0 -16 -11 -26.5t-26.5 -10.5t-25.5 11t-10 26q1 53 1 143q0 179 -5 504zM141 676h2q37 -4 77 -4q109 0 237 28q6 0 28.5 5.5t29.5 6.5t26.5 6t29 8t26.5 8t28 9l22 11q14 4 25.5 10t21.5 14 q74 51 94 131q7 29 8 58q0 51 -23 100q-36 78 -116 121q-150 83 -345 83q-80 0 -169 -14q-5 -123 -5 -294q0 -128 3 -283v-4z" />
<glyph unicode="Q" horiz-adv-x="1024" d="M49 653q-2 28 -2 56q0 119 28 244q34 155 109 264q106 152 295 172q24 2 48 2q160 0 280 -107q74 -66 149 -211q7 -10 5 -24q33 -98 41 -210q3 -46 3 -89q0 -61 -7 -115q-11 -92 -35 -209q-37 -221 -170 -348q84 -100 247 -148q14 -4 21.5 -17t3.5 -27.5t-17.5 -21.5 t-27.5 -3q-182 51 -285 172q-80 -53 -172 -64q-18 -2 -35 -2q-132 0 -245 94q-127 106 -187 314q-39 135 -47 278zM124 658q7 -138 42 -263q53 -186 162 -274q97 -79 203 -79q12 0 24 1q74 6 139 49q-51 88 -63 197q-2 14 8 26.5t24.5 14.5t26.5 -8.5t15 -24.5 q10 -88 47 -156q98 98 133 269v8l6 22q2 8 2 19q2 4 4 10q35 143 35 300t-55 290q-2 6 -3 12q-57 106 -116 160q-96 85 -224 85q-22 0 -46 -2q-156 -18 -242 -138q-70 -98 -100 -238q-23 -114 -23 -226q0 -27 1 -54z" />
<glyph unicode="R" horiz-adv-x="974" d="M90 678q-2 140 -2 258q0 198 6 336l-4 8q-2 14 4 27l2 22q0 14 12.5 24.5t26.5 10.5q29 -2 35 -31q69 11 133 11q135 0 252 -48q172 -70 242 -196q39 -70 39 -137q0 -70 -43 -138q-63 -100 -211 -159q109 -94 248 -289t204 -326q6 -14 2 -28.5t-18 -20.5t-28.5 -2 t-20.5 18q-70 137 -217.5 339t-247.5 274q-2 4 -6 6q-18 -4 -37 -10q-126 -29 -236 -29q-30 0 -59 2q4 -231 4 -390q0 -106 -2 -179q0 -16 -11.5 -26.5t-26.5 -10.5t-25.5 11t-10.5 26q1 55 1 145q0 180 -5 502zM164 676q32 -3 65 -3q100 0 215 27q215 49 287 164 q30 48 30 99q0 49 -28 102q-59 107 -213 167q-97 38 -213 38q-67 0 -141 -13q-5 -123 -5 -294q0 -128 3 -283v-4z" />
<glyph unicode="S" horiz-adv-x="989" d="M66 430q0 14 11 25.5t25.5 11.5t25.5 -11.5t11 -25.5q0 -90 11.5 -151.5t46.5 -108.5q49 -63 159 -101q100 -34 211 -34h23q127 4 216 54t112 138q4 17 4 40q0 48 -17 124q-23 121 -110.5 200t-235.5 159q-178 94 -219 122q-113 80 -121 177q-1 7 -1 15q0 64 48 136 q53 80 141.5 128t186.5 56q18 1 36 1q81 1 154 -29q90 -36 148 -119q8 -12 5 -27.5t-15.5 -23.5t-28 -5t-23.5 15q-44 63 -116 92q-60 24 -126 24q-14 0 -28 -1q-82 -6 -155.5 -47t-116.5 -105q-35 -52 -36 -94q0 -4 1 -8q6 -63 90 -123q39 -27 211 -121q74 -37 124 -69.5 t109.5 -83t97.5 -114t54 -138.5q15 -77 15 -132q0 -38 -7 -65q-29 -121 -140.5 -182.5t-254.5 -67.5h-23q-125 0 -241 39q-127 43 -189 125q-33 43 -49 100q-18 59 -21 100.5t-3 104.5z" />
<glyph unicode="T" horiz-adv-x="1093" d="M80 1348.5q2 15.5 13.5 25.5t25.5 8q152 -12 520 -12q352 0 524 -20q16 -2 25.5 -14.5t7.5 -28t-14.5 -24.5t-26.5 -7q-176 20 -463 22q-6 -143 -6 -349q0 -123 2 -269q5 -329 5 -508q0 -89 -1 -141q0 -16 -11 -26.5t-26.5 -10.5t-26 11t-10.5 26q1 52 1 141 q0 178 -5 506q-2 146 -2 269q0 206 6 349q-348 0 -503 13q-16 2 -26.5 13t-8.5 26.5z" />
<glyph unicode="U" horiz-adv-x="1017" d="M47 772q0 45 6 313q2 89 2 152t-2 100q0 14 10.5 26.5t24.5 12.5t26.5 -10.5t12.5 -24.5q2 -38 2 -102t-2 -154q-6 -270 -6 -313q0 -387 72 -512q37 -68 153 -158q53 -41 140 -60q47 -10 88 -10q34 0 63 7q123 35 192 188q57 133 82 365q14 141 15 409q0 270 4 324 q2 16 13 26.5t26.5 8.5t26 -13.5t8.5 -25.5q-4 -51 -5 -320q0 -276 -14 -417q-25 -242 -88 -387q-84 -186 -240 -228q-40 -11 -85 -11q-47 0 -100 12q-103 24 -171 75q-129 98 -174 178q-80 143 -80 549z" />
<glyph unicode="V" horiz-adv-x="950" d="M18 1315q-4 14 2.5 27.5t21.5 17.5t28.5 -2.5t17.5 -22.5l72 -237l90 -283q37 -119 80 -237q139 -385 164 -465q274 772 491 1228q6 12 20.5 17.5t28 -0.5t18.5 -20.5t-1 -28.5q-221 -467 -523 -1321q-6 -14 -20 -23q-4 -2 -8 -2q-14 -4 -27.5 3t-17.5 22 q-18 68 -45 148.5t-45 129.5l-56 152l-49 135q-41 111 -80 238l-90 284z" />
<glyph unicode="W" horiz-adv-x="1564" d="M27 1321q-4 14 3 27.5t21.5 17.5t27.5 -3.5t17 -21.5q25 -86 62 -247l53 -234l100 -366q70 -244 101 -365l180 551q133 408 235 637q6 14 19.5 19t27.5 -1q20 -8 23 -28v-2q33 -119 85 -341.5t74.5 -309.5t72 -254t69.5 -248q2 6 168 532q129 410 231 657q6 14 20.5 19.5 t29 0.5t19.5 -19.5t1 -28.5q-104 -244 -231 -651q-164 -528 -204 -644q0 -18 -13 -30q-16 -18 -41 -11q-14 4 -20.5 17.5t-2.5 28.5q-27 117 -86 325q-59 201 -82 287q-27 102 -67 278q-43 184 -68 277q-80 -197 -190 -533l-211 -643q-6 -20 -29 -24q-4 -4 -12 -4 q-14 -4 -27.5 3t-15.5 23q-39 152 -118 432.5t-108 399.5q-18 68 -55 229.5t-59 247.5z" />
<glyph unicode="X" horiz-adv-x="1024" d="M25 17.5q-2 15.5 8 27.5l475 647q-268 377 -410 621q-6 12 -2 27.5t16.5 22.5t28 3t23.5 -16q137 -240 389 -596l154 209q20 27 82.5 114.5t109.5 148t96 111.5q10 12 25.5 12.5t27 -10t11.5 -26t-10 -25.5q-47 -51 -92.5 -108.5t-106.5 -143.5l-86 -118l-166 -228 l182 -256l140 -190q86 -119 137 -203q6 -12 3 -27.5t-16.5 -22.5t-29 -4t-23.5 17q-45 76 -131 195l-141 194l-166 236l-463 -629q-8 -12 -23.5 -14t-27.5 7t-14 24.5z" />
<glyph unicode="Y" horiz-adv-x="944" d="M54 1333.5q3 14.5 16.5 22.5t28 5t22.5 -18l135 -221l168 -274l137 -221l172 336q152 297 203 376q8 12 23.5 15.5t27.5 -5t15 -24t-5 -27.5q-53 -82 -198 -368l-465 -912q-6 -14 -20.5 -18t-29 2t-18.5 20.5t2 28.5l256 502l-145 227l-180 295l-140 232q-8 12 -5 26.5z " />
<glyph unicode="Z" horiz-adv-x="1058" d="M41 37v8q-2 16 8 29l467 618q-59 -3 -108 -3q-25 0 -48 1q-14 0 -24 11.5t-10 26.5t11.5 25.5t27.5 10.5q23 -1 50 -1q67 0 158 7l150 199l72 96l90 119q39 53 78 98q-121 0 -397.5 -4t-424.5 -4q-14 0 -25.5 11t-11.5 25.5t11.5 26t25.5 11.5q150 0 450 4t449 4 q14 0 25.5 -11.5t11.5 -25.5q0 -6 -2 -12q-2 -12 -10 -21q-45 -49 -90 -106l-109 -142l-86 -114l-110 -148q113 8 182 8q14 0 25.5 -11t11.5 -25.5t-11.5 -25.5t-25.5 -11q-70 0 -240 -13l-469 -624q129 0 417 3t439 3q14 0 25.5 -11.5t11.5 -25.5t-11 -25.5t-26 -11.5 q-154 0 -461 -3t-460 -3q-14 0 -25.5 11.5t-11.5 25.5z" />
<glyph unicode="[" horiz-adv-x="1107" d="M92 696q14 68 52 121t98 76q82 31 247 -23q15 -4 25 -8q-4 72 24.5 146.5t79.5 134.5q41 47 89.5 74.5t107.5 31.5q61 6 121 -28q164 -94 131 -424q-20 -193 -102 -441l-7 -18q-6 -20 -10 -33q-8 -23 -16 -37q-14 -23 -35 -30q-8 -4 -18 -5q-6 -2 -15 0q-12 0 -33 3 q-33 4 -88 14q-25 4 -57 10l-55 10q-20 4 -27 4q-197 29 -266 54q-133 47 -201 131q-76 94 -45 237zM164 682q-23 -111 31 -178q53 -66 167 -107q63 -23 254 -49q6 -2 28 -5t54.5 -9t59.5 -12q53 -8 84 -13q16 -2 26 -2q6 8 11 23q4 12 10 28q6 20 6 23q80 229 98 424 q29 281 -94 350q-59 31 -116.5 13.5t-108.5 -74.5q-49 -57 -72.5 -129t-9.5 -127q0 -9 6 -19q41 -33 70 -94q6 -14 1 -28.5t-18.5 -20.5t-28 -1t-20.5 17l-6 10q-16 4 -25 19q-4 8 -14 23.5t-12 19.5l-4 6q-23 14 -72 31q-143 45 -203 22q-78 -31 -102 -141z" />
<glyph unicode="\" horiz-adv-x="696" d="M63 1485q2 14 14.5 23.5t28 7t24.5 -14.5t7 -28q-4 -18 15 -78q14 -53 47 -135l55 -136q35 -80 45 -106l123 -318l131 -340q49 -127 111 -311q59 -170 106 -338q4 -14 -3 -27.5t-21.5 -17.5t-27.5 3t-18 22q-45 156 -106.5 338t-110.5 311l-131 336l-123 317l-43 105 l-55 135q-35 84 -51 141q-20 74 -17 111z" />
<glyph unicode="]" horiz-adv-x="684" d="M43 1102q14 53 61 86q72 53 156 16q62 -26 105 -98q51 70 114.5 95.5t116.5 -1.5q70 -33 74 -118t-62 -181q-82 -119 -180 -164q-16 -18 -41 -10q-152 59 -242 135q-66 57 -91 122t-11 118z" />
<glyph unicode="^" horiz-adv-x="815" d="M43 812.5q0 15.5 12 25.5q14 14 23.5 28.5t14.5 24.5t16 35l18 43q92 201 223 370v2q6 12 6 15q6 12 17 18q18 16 43 8q18 -6 45 -36q18 -23 45 -62l115 -176q78 -119 124 -184q66 -88 105 -115q12 -8 15 -23.5t-5 -28t-23.5 -15.5t-27.5 6q-47 33 -123 133 q-53 72 -129 188l-113 174q-23 33 -36 51q-125 -164 -215 -358l-15 -35q-10 -27 -17 -42t-21.5 -35.5t-35.5 -39.5q-10 -10 -25.5 -10t-25.5 11.5t-10 27z" />
<glyph unicode="_" horiz-adv-x="1310" d="M6 -222.5q0 15.5 11.5 26t27.5 10.5q150 -4 623 -33q80 -4 321 -4q203 0 326 -15q16 -2 25.5 -14t7.5 -27.5t-14.5 -24.5t-26.5 -7q-119 14 -318 14q-244 0 -325 4q-473 29 -623 33q-14 0 -24.5 11t-10.5 26.5z" />
<glyph unicode="`" horiz-adv-x="325" d="M40 1449.5q3 14.5 16.5 23t27.5 5t22 -15.5q27 -41 62 -88t51.5 -67.5t73.5 -86t63 -71.5q10 -12 8 -27.5t-13 -26t-26.5 -8t-25.5 12.5l-51 59l-58 66q-18 23 -47 59l-53 72q-25 33 -45 65q-8 14 -5 28.5z" />
<glyph unicode="a" horiz-adv-x="737" d="M72 455q4 127 43 245q20 68 68 135.5t108 108.5q69 47 137 47h6q84 -4 152 -76q41 -41 67 -112l25 -66l2 -2q27 -12 20 -41l-2 -4q6 -17 -6 -33q-15 -110 -14 -242v-59q4 -113 18 -188q16 -82 43 -107q12 -10 12.5 -25.5t-10 -26.5t-26 -11t-25.5 10q-45 41 -65 146 q-8 35 -13 77q-51 -139 -125 -198q-54 -44 -116 -44q-54 0 -115 34q-49 29 -90 78t-60 102q-35 112 -35 226q1 13 1 26zM146 452v-19q0 -106 30 -206q14 -41 47 -79.5t70 -59.5q41 -24 77 -24q38 0 70 26q61 47 107 176q35 104 52 229q14 101 14 174q0 17 -1 33 q-6 14 -15 40t-11 34q-23 57 -54 90q-47 49 -100 52h-5q-45 0 -93 -35q-51 -33 -91 -90.5t-59 -112.5q-35 -112 -38 -228z" />
<glyph unicode="b" horiz-adv-x="819" d="M31 -4q14 54 18 120q2 38 2 73q0 26 -1 50.5t-1 52.5q0 37 2 81q6 156 10 329v11q6 266 7 768q0 14 11 25.5t25.5 11.5t25.5 -11.5t11 -25.5q0 -403 -4 -623q51 55 121 80q53 19 108 19q82 1 168 -41q146 -70 225 -230q51 -104 51 -227q0 -67 -15 -140 q-27 -123 -129.5 -215t-227.5 -120q-46 -10 -87 -10q-82 0 -148 38q-49 29 -82 76q-6 -61 -21 -113q-2 -14 -15 -21t-28.5 -4t-22.5 16.5t-3 29.5zM123 268q10 -8 12 -20q20 -123 105 -170q50 -30 113 -30q33 0 69 8q106 24 192 102t107 178q14 66 14 126q-1 104 -43 192 q-68 138 -190 196q-70 33 -135 33q-43 0 -84 -15q-106 -37 -148 -166q-4 -176 -10 -333q-2 -35 -2 -101z" />
<glyph unicode="c" horiz-adv-x="798" d="M45 430v9q0 191 86 333q88 146 219 193q52 18 100 19q80 0 150 -52q119 -88 154 -293q2 -14 -7.5 -27.5t-23.5 -15.5t-27.5 7.5t-15.5 23.5q-29 176 -123 245q-50 36 -109 36q-35 0 -73 -13q-104 -37 -181 -162q-75 -122 -75 -294v-9q2 -154 83 -257q80 -103 190 -123 q22 -4 44 -3q84 1 158 61q92 76 123 259q2 14 15 23t27.5 7t24 -15t7.5 -28q-35 -209 -152 -305q-92 -77 -201 -77q-29 0 -59 5q-137 25 -236 150q-96 123 -98 303z" />
<glyph unicode="d" horiz-adv-x="821" d="M59 301q-6 34 -6 72q0 64 17 139q25 121 86 225q66 113 159 181q81 57 175 57q16 0 32 -2q49 -6 71.5 -9t63.5 -17.5t70 -39.5q4 305 35 566q2 16 14 25t27.5 7t25 -14.5t7.5 -26.5q-36 -300 -36 -700q0 -172 7 -363q0 -16 2 -63t3 -65.5t3 -58.5t5 -63.5t9.5 -56.5 t12.5 -61q4 -16 -3.5 -29.5t-22.5 -16.5t-28.5 4t-15.5 21q-18 70 -27 154q-59 -94 -146 -139q-80 -41 -167 -41h-16q-127 4 -228.5 89t-128.5 226zM133 313q20 -113 101 -181.5t184 -72.5h12q97 1 180 63q88 66 125 208v2q-2 53 -2 65q-6 150 -6 277q-2 0 -2 2q-2 16 -4 43 l-2 39q-4 41 -17 61q-23 43 -64.5 57.5t-123.5 22.5q-11 1 -22 1q-72 0 -139 -47q-77 -54 -134 -153q-55 -94 -80 -200q-13 -61 -13 -114q0 -39 7 -73z" />
<glyph unicode="e" horiz-adv-x="819" d="M66 516q2 193 102 313q84 102 209 125q34 6 67 6q88 0 168 -44q110 -62 152 -187q2 -4 6 -18l12 -29q4 -14 6 -27q10 -38 10 -67q0 -20 -5 -35q-8 -16 -27 -27q-12 -6 -29 -12q-27 -6 -73 -12q-74 -6 -205 -8q-78 0 -320 4q0 -164 47 -248t124 -130q74 -44 152 -44h7 q84 0 152.5 49t101.5 143q6 14 19.5 20.5t27.5 1.5t20.5 -18.5t2.5 -27.5q-41 -117 -128 -179.5t-194 -62.5h-7q-100 0 -192 54q-94 56 -151 157q-55 99 -55 278v25zM143 571q231 -4 316 -4q127 2 196 8q41 4 62 11q4 2 8 2q2 18 -6 47q-4 12 -9 25.5t-9.5 26.5t-6.5 18 q-33 98 -119 146q-63 35 -133 35q-26 0 -52 -4q-99 -18 -165 -98q-70 -86 -82 -213z" />
<glyph unicode="f" horiz-adv-x="600" d="M41 902.5q2 15.5 14.5 24.5t28.5 7q57 -8 133 -8h31q0 172 8 315q6 84 49 149.5t107 90.5q33 14 65 14q35 0 69 -17q64 -32 101 -120q4 -14 -1 -28.5t-19.5 -19.5t-28.5 0t-20 19q-25 63 -63 82q-20 10 -40 10q-19 0 -37 -8q-41 -16 -72.5 -64.5t-35.5 -111.5 q-8 -141 -8 -309q101 4 159 4h33t24.5 -11.5t10.5 -26.5t-11.5 -25.5t-27.5 -10.5h-32q-54 0 -154 -4q2 -94 6 -225q18 -590 18 -613q0 -14 -11 -25t-25.5 -11t-26 11t-11.5 25q0 29 -18 611q-4 129 -6 225h-34q-82 0 -144 8q-14 2 -23.5 14.5t-7.5 28z" />
<glyph unicode="g" horiz-adv-x="743" d="M51 594q20 113 95 199t173 116q45 16 92 16q31 0 62 -7q80 -17 137 -80q2 16 5 31.5t15.5 23.5t28 5t23.5 -15.5t6 -28.5q-6 -57 -7 -74v-5q0 -19 5 -70l6 -84q2 -33 2 -136q0 -80 6 -129q4 -41 14.5 -113.5t17.5 -129t14 -123.5q4 -52 4 -103v-31q-2 -65 -13 -120 q-23 -117 -116 -166q-58 -29 -132 -29q-29 0 -61 4q-100 12 -193.5 66.5t-134.5 126.5q-6 14 -2 28.5t17.5 21.5t28 3t22.5 -16q31 -55 108.5 -100.5t163.5 -57.5q25 -3 48 -3q57 0 100 21q63 33 78 113q10 51 12 106q1 15 1 32q0 41 -4 88q-5 65 -10.5 107t-15.5 120 q-55 -98 -143 -133q-48 -20 -98 -20q-68 0 -138 38q-117 63 -181 202q-45 98 -45 207q0 48 9 99zM125 582q-9 -47 -9 -91q0 -91 38 -172q53 -117 149 -167q55 -31 106 -31q34 0 66 14q94 39 139 176q4 12 15 19l-2 18q-6 55 -6 137q0 100 -3 131q0 6 -8 86q-2 5 -4 11 q-43 92 -114 123q-37 16 -77 16q-35 0 -72 -12q-79 -27 -140.5 -96.5t-77.5 -161.5z" />
<glyph unicode="h" horiz-adv-x="768" d="M90 819q0 94 9.5 299t9.5 314q0 14 11 25t25.5 11t25.5 -11t11 -25q0 -109 -9 -314t-9 -299v-24q76 86 184 114q43 13 85 13q46 0 91 -16q86 -30 144 -118q29 -45 51 -155q16 -88 31 -223q17 -163 16 -271q0 -78 -8 -127q-2 -14 -15.5 -23t-28 -7t-23.5 15t-7 28 q7 45 7 117q0 103 -15 261q-12 123 -31 215q-18 98 -39 130q-42 68 -106 89q-34 11 -70 11q-31 0 -63 -8q-68 -18 -123.5 -68.5t-79.5 -118.5q2 -25 6 -235q4 -126 4 -227t-4 -177q0 -14 -11.5 -24t-26.5 -10t-25.5 11t-10.5 27q3 66 3 166t-3 234q-6 301 -6 401z" />
<glyph unicode="i" horiz-adv-x="204" d="M94 913q0 14 11.5 24.5t26.5 10.5t25.5 -11.5t10.5 -27.5q-2 -48 -2 -107q0 -138 10 -335q16 -326 17 -449q0 -14 -11.5 -25t-26 -11t-25.5 11t-11 25q0 121 -17 445q-10 198 -10 339q0 61 2 111zM98 1265.5q0 14.5 11.5 26t26 11.5t25.5 -11.5t11 -26t-11 -25.5 t-25.5 -11t-26 11t-11.5 25.5z" />
<glyph unicode="j" horiz-adv-x="303" d="M-158 -240q-2 16 7.5 28.5t24.5 14.5t27.5 -7t14.5 -23q12 -90 55 -125q23 -19 51 -19q13 0 27 4q51 12 96 68q47 55 64 133q27 125 31 264q1 43 1 83q0 95 -7 172q-9 110 -25 277t-23 265q0 14 10.5 26.5t25 12.5t26.5 -10.5t12 -24.5q4 -92 21.5 -260t26.5 -281 q6 -77 6 -174q0 -43 -1 -90q-4 -151 -30 -276q-20 -96 -80 -166t-133 -90q-26 -7 -50 -7q-53 0 -96 35q-63 53 -82 170zM193 1298.5q0 14.5 11 25.5t25.5 11t25.5 -11t11 -25.5t-11 -25.5t-25.5 -11t-25.5 11t-11 25.5z" />
<glyph unicode="k" horiz-adv-x="761" d="M90 1425q0 14 11.5 25.5t25.5 11.5t25.5 -11t11.5 -26q0 -207 8 -841q49 70 143 190l127 166q8 12 23.5 14t28 -7t14.5 -24.5t-8 -27.5l-133 -174q-113 -145 -168 -227l280 -211q209 -160 309 -228q12 -8 15.5 -23.5t-4.5 -27.5t-23.5 -15t-27.5 5q-106 70 -314 229 q-182 141 -260 197q2 -219 2 -387q0 -14 -11 -25.5t-25.5 -11.5t-26 11t-11.5 26q0 231 -6 696t-6 696z" />
<glyph unicode="l" horiz-adv-x="204" d="M78 1419q0 14 11 25.5t25.5 11.5t26 -11.5t11.5 -25.5q0 -231 10 -696t10 -696q0 -14 -11 -25.5t-25.5 -11.5t-26 11t-11.5 26q0 231 -10 696t-10 696z" />
<glyph unicode="m" horiz-adv-x="1122" d="M68 836q-2 16 8 27t25.5 13.5t26.5 -8t13 -24.5v-2q57 74 148 98q35 9 69 9q42 1 84 -13q74 -24 121 -98q12 -20 25 -47q149 175 268 175q8 0 18 -2q126 -14 193 -210q51 -154 57 -379q1 -36 1 -68q0 -175 -27 -274q-4 -14 -17.5 -22.5t-28 -5.5t-22.5 16.5t-6 27.5 q28 93 28 257q0 32 -2 68q-6 214 -53 355q-51 154 -131 162q-6 1 -12 1q-97 0 -242 -185q14 -74 19 -175v-25q0 -76 -8 -284q0 -14 -11.5 -24.5t-27 -10.5t-25.5 11.5t-10 27.5q8 203 8 278v25q-6 188 -55 267q-33 53 -85 71q-28 9 -56 9q-27 1 -53 -7q-56 -16 -96 -58 t-48 -99q-2 -13 -12 -21q6 -66 13 -205t15 -246.5t19 -203.5q2 -16 -8.5 -27.5t-25.5 -13.5t-26.5 8t-13.5 25q-16 147 -31.5 422.5t-25.5 384.5z" />
<glyph unicode="n" horiz-adv-x="731" d="M63 41q18 164 19 434q0 346 4 440q0 14 11.5 24.5t26.5 10.5t25.5 -11t10.5 -28q-2 -61 -4 -133q102 141 241 160q16 2 30 2q114 0 187 -109q61 -90 88 -266q21 -135 21 -317q0 -99 -6 -213q0 -14 -12.5 -24.5t-26.5 -10.5t-24.5 12.5t-10.5 26.5q6 113 6 211 q0 175 -20 305q-25 160 -76 236q-50 75 -124 75q-11 0 -23 -2q-146 -18 -250 -233v-72v-84q0 -274 -19 -442q-2 -14 -14 -24.5t-26.5 -8.5t-25 14.5t-8.5 26.5z" />
<glyph unicode="o" horiz-adv-x="712" d="M39 362q-2 14 8 27q0 74 39 252v2v2q4 12 6 27l4 20l4 13q45 160 140 227q60 44 126 44q51 0 105 -26q115 -57 188 -207q65 -130 65 -296q0 -23 -1 -46q-8 -176 -101.5 -295.5t-220.5 -138.5q-22 -3 -43 -3q-108 0 -194 86q-102 104 -125 312zM121 410q-2 -22 -2 -42 q0 -24 3 -44q5 -36 19 -76q4 -8 2 -19q37 -109 105 -155q53 -36 112 -35q15 0 31 2q96 14 173 111.5t85 253.5q1 19 1 38q0 150 -56 265q-64 129 -156 174q-38 18 -73 18q-44 0 -82 -29q-80 -57 -117 -215q-4 -16 -18.5 -83.5t-18.5 -90.5t-8 -73z" />
<glyph unicode="p" horiz-adv-x="770" d="M68 -414q6 106 18 279l23 278q8 102 14 275q1 47 1 90q0 107 -7 186q-2 23 -3 61t-2 59.5t-5.5 51t-12.5 56.5q-4 14 2 27.5t21.5 17.5t29 -2.5t17.5 -22.5q16 -51 20 -123q102 137 219 146q10 1 20 1q118 0 216 -128q96 -123 130 -300q14 -72 14 -139q0 -100 -31 -192 q-45 -121 -138 -181q-79 -51 -165 -51q-17 0 -35 2q-148 15 -234 140l-18 -244q-14 -188 -21 -291q0 -14 -12 -24.5t-26.5 -10.5t-24.5 12.5t-10 26.5zM190 287l5 -8q18 -100 81.5 -161t144.5 -69q12 -1 23 -1q69 0 130 40q73 47 108 143q27 78 27 167q0 60 -13 125 q-30 161 -114 270q-76 99 -159 99q-7 0 -13 -1q-109 -8 -207 -180q-7 -9 -13 -13q6 -91 6 -193.5t-6 -217.5z" />
<glyph unicode="q" horiz-adv-x="835" d="M106 283q-10 51 -10 105q0 101 36 210q56 164 159 266q96 96 195 96q21 0 42 -4q82 -16 146 -96q0 37 -2 80q0 16 10 27.5t25.5 11.5t26.5 -10.5t11 -24.5q4 -123 7 -217q4 -10 2 -18q2 -120 2 -227t-2 -201v-17l-2 -2v-22q-2 -31 -5.5 -102.5t-4.5 -111.5v-44.5v-53.5 q1 -57 10 -102q18 -123 34 -172q16 -47 35 -57q10 -8 31 8q35 29 39 119q0 14 12 24t26.5 10t25 -12t10.5 -27q-6 -123 -68 -172q-36 -29 -69 -29q-26 0 -50 17q-37 27 -59 94q-20 55 -41 185q-10 65 -10 158q0 58 4 126q-92 -104 -230 -104h-18q-111 6 -201 83t-117 206z M180 299q20 -106 91 -166.5t157 -64.5q7 -1 13 -1q78 0 143 49q69 52 94 156q4 117 4 252q0 89 -2 187q-72 156 -166 174q-13 2 -25 2q-71 0 -147 -74q-90 -90 -139 -239q-32 -97 -32 -184q0 -47 9 -91z" />
<glyph unicode="r" horiz-adv-x="507" d="M59 934q-2 14 6.5 27.5t22.5 16.5t27.5 -5t17.5 -23q4 -25 10 -53q12 20 29 37q61 64 155 65q14 0 29 -2q25 -2 56 -18q33 -16 49 -39q39 -55 53 -162q6 -35 12 -157q0 -14 -10 -26.5t-24.5 -12.5t-26.5 10t-12 24q-6 121 -11 154q-12 88 -43 129q-4 6 -22 14 q-16 10 -29 11q-9 1 -17 1q-66 0 -106 -42q-43 -45 -61 -135l-4 -9q5 -129 5 -216v-28q-1 -94 -5 -245.5t-4 -212.5q0 -14 -11.5 -25.5t-26 -11.5t-25.5 11.5t-11 25.5q0 53 7 273q4 128 4 233q0 75 -2 137q-5 150 -32 254z" />
<glyph unicode="s" horiz-adv-x="704" d="M45 264q0 14 11.5 25.5t25.5 11.5t25.5 -11t11.5 -26q0 -88 66.5 -144.5t168.5 -65.5q18 -2 34 -1q82 0 148 35q80 43 105 127q8 29 8 55q-1 54 -35 94q-52 60 -168 123q-14 6 -60 30t-76.5 41t-55.5 34q-104 72 -104 158q0 94 63 146t156 65q28 3 56 4q55 1 111 -13 q85 -20 134 -61q10 -10 11 -25.5t-8 -27t-24.5 -12t-27.5 7.5q-35 31 -105 47q-43 10 -85 10q-26 0 -52 -4q-74 -8 -115 -43t-41 -94q0 -47 72 -97q25 -16 52.5 -31.5t71.5 -38t62 -32.5q29 -14 50.5 -26.5t48 -30t46 -36t39 -40t32 -46t19.5 -51t6 -59.5t-11 -67 q-31 -115 -137 -171q-85 -45 -182 -44q-23 0 -46 2q-123 10 -212 83.5t-89 198.5z" />
<glyph unicode="t" horiz-adv-x="583" d="M45 887.5q2 15.5 13.5 26t27.5 8.5q55 -5 128 -5q36 0 77 1q5 95 5 173q0 59 -3 109q0 16 10 27.5t25.5 11.5t27 -10t11.5 -25q3 -50 3 -109q0 -79 -5 -175q133 4 184 4q14 0 25.5 -11.5t11.5 -26t-11.5 -25.5t-25.5 -11q-49 0 -189 -4l-8 -141q-7 -131 -7 -238 q0 -148 13 -252q14 -113 96 -156q33 -17 67 -17q52 0 108 40q12 8 26.5 5t23.5 -15.5t6 -26.5t-15 -25q-75 -53 -148 -53q-52 0 -102 27q-55 29 -91 85t-44 128q-13 108 -13 258q0 111 7 244l8 133h-48q-92 0 -161 6q-14 2 -24.5 13t-8.5 26.5z" />
<glyph unicode="u" horiz-adv-x="555" d="M41 913q0 14 9 25.5t24.5 12.5t27 -8t13.5 -25q4 -49 4 -201t6 -244q20 -297 104 -381q39 -39 119 -43h2q48 0 84 90q37 90 51 256q12 132 12 263q0 120 -10 239q-2 14 8.5 25.5t26 13.5t26.5 -8t13 -27q10 -123 10 -245q0 -134 -12 -267q-16 -176 -57 -278 q-54 -136 -154 -136h-4q-109 4 -168 64q-104 106 -125 428q-6 92 -6 250q0 150 -4 196z" />
<glyph unicode="v" horiz-adv-x="700" d="M59 885q-4 14 1.5 28.5t19.5 19.5t28.5 -0.5t20.5 -19.5q20 -51 156 -434q74 -209 135 -334q23 76 48.5 150t59.5 166l56 141q18 47 66 163t59 142q6 14 20 19.5t28.5 0.5t19.5 -19.5t1 -28.5l-55 -134l-59 -143l-54 -131q-33 -88 -53 -145.5t-45 -132.5l-45 -144v-2 q2 -23 -18 -35q-14 -6 -28.5 -2t-23.5 17q-86 156 -182 428q-137 391 -156 430z" />
<glyph unicode="w" horiz-adv-x="1052" d="M-7 945.5q3 15.5 15 23.5t27.5 4.5t23.5 -15.5q29 -45 57.5 -108.5t57.5 -155.5l43 -141q14 -47 44 -158.5t30 -118.5q6 -20 10 -43q37 129 127 385l68 183l22 57q6 10 8 16l6 9q4 6 9 8q14 12 30 8q10 -4 19 -12l6 -6q2 -2 4 -9q4 -6 8 -18l23 -57l65 -174 q82 -231 101 -297q20 -63 41 -117q0 2 -2 39v27q0 40 4 75q2 8 8 43l16 72l23 110q14 59 36.5 122t51.5 134l43 113q6 14 19.5 20.5t27.5 1.5t20.5 -18.5t1.5 -27.5q-16 -45 -44.5 -117t-49 -129.5t-32.5 -114.5l-25 -108l-16 -72q-6 -33 -7 -37q-4 -31 -4 -67v-25 q1 -32 1 -57t-1 -43v-21v-27q0 -43 -22 -67q-12 -14 -33 -15q-18 0 -33 19q-6 8 -10 27q-2 8 -3 15t-2 11t-1 6q-45 94 -78 207q-20 63 -100 293l-64 172l-65 -176q-92 -258 -127 -383q-2 -12 -9 -45l-12 -66l-12 -59q-4 -14 -8 -23q-6 -10 -13 -16q-23 -16 -45 -4 q-26 14 -26 48v7q2 10 2 17v4q-14 135 -27 182l-31 121q-31 115 -44 160t-41.5 134t-54 147.5t-52.5 99.5q-8 12 -5 27.5z" />
<glyph unicode="x" horiz-adv-x="804" d="M45 33.5q-2 15.5 8 27.5l338 412q-227 315 -319 434q-10 12 -8 27.5t14 25t27.5 7.5t23.5 -15q96 -123 309 -420l338 402q8 10 23.5 11t27 -8t12.5 -24.5t-10 -27.5l-346 -414q184 -254 324 -422q10 -12 8 -27.5t-13 -25.5t-26.5 -8t-25.5 12q-129 156 -316 412 l-323 -400q-10 -10 -25.5 -12t-27 8t-13.5 25.5z" />
<glyph unicode="y" horiz-adv-x="780" d="M-90 -344q4 14 18.5 20.5t28.5 1.5q42 -15 83 -15q175 0 327 274q33 59 65 131q-16 29 -31 57l-30 63q-16 35 -27 58l-25 65q-18 43 -23 58.5t-24.5 65.5t-21.5 61q-102 272 -197 405q-8 12 -5 26.5t15.5 24t26.5 6t25 -15.5q98 -139 202 -422q102 -268 152 -364 q31 76 73 195.5t52 144.5q104 272 156 428q4 14 17 20t28.5 2t21.5 -17.5t2 -29.5q-51 -156 -155 -428q-8 -20 -51.5 -143t-87.5 -230.5t-93 -195.5q-175 -313 -390 -313q-54 0 -110 20q-14 4 -20 18.5t-2 28.5z" />
<glyph unicode="z" horiz-adv-x="735" d="M66 104q6 10 18 19l6 6l6 4l2 2q90 104 209 287l41 61q-59 0 -108 -4q-14 0 -25.5 9.5t-12.5 24.5t8 26.5t26 13.5q66 4 159 4l111 164q2 2 80 100l30 37q-14 0 -30 2q-49 2 -164 2q-260 0 -311 15q-14 2 -21.5 15t-4.5 28.5t16.5 22.5t29.5 3q39 -10 291 -10 q117 0 168 -2q39 -2 63 -6q35 -6 49 -21q12 -14 11 -30q0 -6 -2 -12.5t-6 -12.5q-6 -8 -17 -21q-14 -20 -45 -57l-33 -37q-18 -25 -28.5 -39t-14.5 -18l-84 -123h80q14 0 25.5 -11t11.5 -25.5t-11 -26t-26 -11.5h-71h-56l-67 -102q-117 -178 -197 -275q25 -1 64 -1 q48 -1 118 1q45 1 86 1q74 -1 140 -3q102 -4 190 -20q14 -4 22.5 -16.5t5.5 -27.5t-15.5 -23.5t-28.5 -6.5q-86 18 -194 22q-57 2 -110 3q-48 0 -90 -2q-45 -2 -96 -2t-108 2h-11q-14 -2 -20 -2q-37 0 -55.5 24.5t-3.5 48.5z" />
<glyph unicode="{" horiz-adv-x="661" d="M55 596q2 43 58 57l34 9q156 98 172 186q8 66 8.5 96.5t-6 96t-6.5 104.5q0 90 29 160.5t111 128.5q121 84 241 26q12 -6 17.5 -20.5t-0.5 -27.5t-20.5 -18t-28.5 1q-47 20 -84 14q-37 -4 -84 -37q-61 -43 -84 -97t-23 -130q0 -27 6 -95.5t6 -106.5t-8 -107 q-25 -123 -205 -236q-6 -4 -14 -8l37 -14q29 -10 35 -15q49 -37 92 -92t63 -113q35 -96 29 -239q-2 -25 -4 -74t-3 -66.5t1 -60.5q6 -86 57 -123q70 -51 244 -51q14 0 25.5 -11.5t11.5 -25.5t-11.5 -25.5t-25.5 -11.5q-197 0 -287 66q-78 57 -88 176q-2 47 -1 67.5t4 71.5 t3 70q4 131 -24 213q-16 45 -53 92t-78 76l-17 8l-45 16q-31 12 -45 21q-12 6 -18 12l-13 8q-8 12 -8 29z" />
<glyph unicode="|" horiz-adv-x="184" d="M51 1450q0 16 10.5 27.5t25.5 11.5t26.5 -10.5t11.5 -24.5q31 -739 31 -1048q0 -66 -8.5 -388.5t2.5 -388.5q0 -16 -10.5 -27.5t-26 -11.5t-26.5 10.5t-11 24.5q-10 66 -2 391.5t8 389.5q0 309 -31 1044z" />
<glyph unicode="}" horiz-adv-x="600" d="M-1 1418.5q-3 15.5 4.5 28.5t23.5 15q184 47 276 -26q76 -61 90 -207q6 -61 0 -250q-4 -150 13 -201q31 -94 169 -147q37 -14 50 -17h4q2 0 8 1t8 1q16 2 27 0q16 -6 25.5 -20t2.5 -33q-8 -33 -49 -41q-8 -2 -13 -3t-7 -2t-6 -1l-80 -41q-31 -14 -65 -41.5t-50 -60.5 q-39 -68 -35 -178q2 -31 8.5 -98.5t6.5 -100.5q0 -121 -58 -193q-72 -88 -248 -125q-16 -2 -28.5 6.5t-15.5 24t5.5 27.5t22.5 16q152 31 207 98q41 51 41 146q0 25 -6 94.5t-8 102.5q-4 129 43 217q47 86 186 151q-174 66 -215 193q-23 68 -17 227q6 186 0 242 q-10 115 -61 155q-63 51 -215 15q-14 -4 -27.5 3t-16.5 22.5z" />
<glyph unicode="~" horiz-adv-x="1024" d="M-10 418.5q-2 15.5 8 27.5q121 156 262 160q80 2 238 -67q143 -63 213 -64q113 0 219 123q10 10 25.5 11t26.5 -8t12 -24.5t-7 -27.5q-129 -147 -276 -148q-86 0 -242 70q-141 63 -207 61q-106 -2 -207 -131q-8 -12 -23.5 -14t-27.5 7t-14 24.5z" />
<glyph unicode="&#xad;" d="M49 464q-2 15 7.5 27.5t23.5 14.5q154 23 485 22q14 0 25.5 -11t11.5 -25.5t-11 -25.5t-26 -11q-330 0 -473 -23q-16 -2 -28.5 7.5t-14.5 24.5z" />
<glyph unicode="&#x2000;" horiz-adv-x="774" />
<glyph unicode="&#x2001;" horiz-adv-x="1548" />
<glyph unicode="&#x2002;" horiz-adv-x="774" />
<glyph unicode="&#x2003;" horiz-adv-x="1548" />
<glyph unicode="&#x2004;" horiz-adv-x="516" />
<glyph unicode="&#x2005;" horiz-adv-x="387" />
<glyph unicode="&#x2006;" horiz-adv-x="258" />
<glyph unicode="&#x2007;" horiz-adv-x="258" />
<glyph unicode="&#x2008;" horiz-adv-x="193" />
<glyph unicode="&#x2009;" horiz-adv-x="309" />
<glyph unicode="&#x200a;" horiz-adv-x="86" />
<glyph unicode="&#x2010;" d="M49 464q-2 15 7.5 27.5t23.5 14.5q154 23 485 22q14 0 25.5 -11t11.5 -25.5t-11 -25.5t-26 -11q-330 0 -473 -23q-16 -2 -28.5 7.5t-14.5 24.5z" />
<glyph unicode="&#x2011;" d="M49 464q-2 15 7.5 27.5t23.5 14.5q154 23 485 22q14 0 25.5 -11t11.5 -25.5t-11 -25.5t-26 -11q-330 0 -473 -23q-16 -2 -28.5 7.5t-14.5 24.5z" />
<glyph unicode="&#x2012;" d="M49 464q-2 15 7.5 27.5t23.5 14.5q154 23 485 22q14 0 25.5 -11t11.5 -25.5t-11 -25.5t-26 -11q-330 0 -473 -23q-16 -2 -28.5 7.5t-14.5 24.5z" />
<glyph unicode="&#x2013;" horiz-adv-x="1033" d="M48.5 464q-3.5 15 14 27.5t43.5 14.5q285 23 898 22q25 0 46.5 -11t21.5 -25.5t-20.5 -25.5t-47.5 -11q-611 0 -876 -23q-29 -2 -52.5 7.5t-27 24.5z" />
<glyph unicode="&#x2014;" horiz-adv-x="2057" d="M49.5 464q-7.5 15 27.5 27.5t87 14.5q570 23 1795 22q52 0 94.5 -11t42.5 -25.5t-40.5 -25.5t-96.5 -11q-1221 0 -1751 -23q-59 -2 -105 7.5t-53.5 24.5z" />
<glyph unicode="&#x2018;" horiz-adv-x="290" d="M49 1221q10 74 51 137t105 90q12 6 26.5 1t20.5 -18.5t0.5 -28t-19.5 -20.5q-41 -20 -71.5 -67t-38.5 -107q-10 -57 8.5 -105t58.5 -71q12 -8 16.5 -22.5t-2.5 -27.5t-21.5 -17t-28.5 2q-66 37 -90.5 106.5t-14.5 147.5z" />
<glyph unicode="&#x2019;" horiz-adv-x="264" d="M51 1016.5q0 15.5 10 25.5q6 8 25.5 25.5t28.5 28.5q31 31 37 49q23 55 2 131q-20 74 -62 86q-16 2 -23.5 15.5t-4 28.5t17 22.5t27.5 3.5q84 -20 116 -136q27 -100 -4 -180q-14 -31 -53 -72l-29 -28l-24 -23q-10 -12 -25.5 -12t-27 10t-11.5 25.5z" />
<glyph unicode="&#x201c;" horiz-adv-x="573" d="M63 1204q18 76 68.5 148.5t112.5 111.5q14 8 28.5 5t22.5 -16t5 -27.5t-15 -22.5q-51 -33 -93 -92.5t-57 -122.5q-14 -66 6 -113q20 -51 82 -74q14 -6 20.5 -19t1.5 -27.5t-18.5 -20.5t-27.5 -2q-92 35 -127 115q-29 70 -9 157zM411.5 1073.5q-22.5 106.5 17.5 205.5 t118 173q10 10 25.5 10t25.5 -11t10 -26.5t-12 -25.5q-104 -102 -116.5 -229.5t93.5 -208.5q12 -8 15.5 -23.5t-5 -28t-23.5 -15.5t-28 5q-98 68 -120.5 174.5z" />
<glyph unicode="&#x201d;" horiz-adv-x="567" d="M35 964.5q4 14.5 18 22.5q70 37 97.5 107.5t12 149.5t-64.5 151q-8 12 -5 27.5t15.5 23.5t28 5t23.5 -15q55 -82 73 -176q20 -94 -14.5 -190.5t-132.5 -147.5q-12 -6 -26.5 -2t-21.5 17t-3 27.5zM408 944q0 14 10 27q57 57 73.5 127.5t-5 140.5t-72.5 143q-8 12 -5 26.5 t15 24t26.5 6t24.5 -15.5q57 -80 83 -163.5t6.5 -175t-93.5 -166.5q-12 -10 -26.5 -10.5t-25.5 11t-11 25.5z" />
<glyph unicode="&#x202f;" horiz-adv-x="309" />
<glyph unicode="&#x205f;" horiz-adv-x="387" />
<glyph unicode="&#x25fc;" horiz-adv-x="962" d="M0 0v963h963v-963h-963z" />
</font>
</defs>
</svg>
