<?xml version="1.0" standalone="no"?>
<!DOCTYPE svg PUBLIC "-//W3C//DTD SVG 1.1//EN" "http://www.w3.org/Graphics/SVG/1.1/DTD/svg11.dtd" >
<svg xmlns="http://www.w3.org/2000/svg" xmlns:xlink="http://www.w3.org/1999/xlink" version="1.1">
<metadata></metadata>
<defs>
<font id="djb_baileyregular" horiz-adv-x="1014" >
<font-face units-per-em="2048" ascent="1638" descent="-410" />
<missing-glyph horiz-adv-x="959" />
<glyph horiz-adv-x="0" />
<glyph unicode="&#xd;" horiz-adv-x="508" />
<glyph unicode=" "  horiz-adv-x="959" />
<glyph unicode="&#x09;" horiz-adv-x="959" />
<glyph unicode="&#xa0;" horiz-adv-x="959" />
<glyph unicode="!" horiz-adv-x="672" d="M361 39q18 140 119 140h7q95 0 105 -126q-17 -119 -112 -119q-119 14 -119 105zM368 697l7 343l7 1113q0 182 63 182h14q56 0 56 -1232l14 -413q0 -30 -84 -56q-26 0 -77 63z" />
<glyph unicode="&#x22;" horiz-adv-x="807" d="M53 1903v28q28 146 98 210l35 14q133 -12 133 -91q0 -40 -140 -147v-14q0 -126 112 -126q28 0 56 -42v-21q-29 -42 -84 -42q-178 0 -210 231zM421 1925v28q0 217 126 217q119 -10 119 -98h7q0 -56 -126 -154v-14q0 -93 119 -147l14 -42q0 -49 -70 -49h-7 q-182 70 -182 259z" />
<glyph unicode="#" horiz-adv-x="1432" d="M-8 1013q0 62 378 126l14 231l-14 203l-210 -35q-63 26 -63 77v21q0 49 252 49l7 7q21 0 21 14v21q0 357 35 357h21q49 -12 70 -350h7q301 21 301 77q10 315 56 315h21q77 0 77 -63l-7 -231h14v-7q181 30 224 56q64 0 112 -63q0 -91 -182 -91q-161 -13 -161 -49l-14 -413 l14 -14h7q101 49 133 49q63 -33 63 -77q0 -84 -203 -98l-28 -28l14 -154v-35q0 -98 -77 -98h-28q-49 35 -49 105l7 154h7l-7 21h-14q-280 -35 -280 -63v-133q0 -157 -56 -196q-91 22 -91 70v7l7 231h-7q-105 0 -280 -56h-7q-49 0 -84 63zM510 1160h14q267 52 280 70 q14 129 14 329v84l-14 14q-287 -34 -287 -63l-7 -35v-399z" />
<glyph unicode="$" d="M31 789q7 77 56 77q51 0 98 -182q65 -126 147 -126v7q0 679 -35 679q-148 77 -217 308l-14 77q24 131 161 287q77 39 77 98v105q7 105 42 105h28q56 0 56 -140v-98q175 0 259 -154v-42l-14 -14q-88 105 -217 105h-14l-14 -14q23 -588 42 -588q238 -91 315 -280 q56 -96 56 -196v-70q0 -153 -147 -203q-217 -61 -217 -105q0 -63 -84 -63q-40 0 -98 91q-206 0 -266 336zM199 1608q0 -110 105 -231h14v7l-14 441h-21q-84 -85 -84 -189v-28zM451 1118l14 -546h7q252 52 252 147v28q0 132 -105 315q-111 105 -154 105h-7z" />
<glyph unicode="%" horiz-adv-x="1335" d="M0 1680q0 215 287 392q30 0 182 -140l63 -14h28q229 0 371 161l28 7q91 -12 91 -56l-420 -1197q-205 -597 -294 -798l-56 -35q-91 28 -91 91q185 404 280 735q49 112 350 1001l-7 7h-7q-108 -35 -147 -35h-217q0 -268 -217 -378l-49 -7q-119 0 -175 266zM140 1666 q0 -102 49 -119q105 93 105 231v70q0 38 -28 49h-7q-58 0 -119 -217v-14zM693 336q0 179 231 420l84 14q126 0 168 -119q28 -90 28 -140q0 -206 -273 -343l-63 -14q-156 0 -175 182zM840 364q0 -91 42 -91q175 95 175 259v70l-21 21h-28q-168 -157 -168 -259z" />
<glyph unicode="&#x26;" horiz-adv-x="912" d="M97 441q0 150 238 294h7v21q-168 128 -168 308v21q0 385 322 385v-7l21 7q38 574 63 574l28 14q98 -28 98 -98q-45 -649 -70 -707l-56 -14q-38 0 -112 98h-14q-82 0 -119 -161v-175q0 -119 231 -231l56 -56v-14q0 -32 -231 -91q-140 -108 -140 -224v-14q33 -63 98 -63h56 q33 0 77 63l21 7q67 0 112 -70h7q-66 -180 -70 -399q-14 -252 -91 -252h-21q-51 0 -91 77q70 167 70 413q0 39 -203 77q-119 49 -119 217z" />
<glyph unicode="'" horiz-adv-x="604" d="M154 1695q0 33 98 119l28 105v7q-87 0 -105 112q21 126 105 126q154 0 154 -273q-113 -287 -182 -287q-98 35 -98 91z" />
<glyph unicode="(" horiz-adv-x="652" d="M0 917v266q0 481 154 889q96 195 133 210h7q62 0 91 -63q-174 -337 -203 -672q-28 -236 -28 -588q0 -430 196 -791q42 0 84 -119q-10 -49 -49 -49q-140 0 -182 140q-93 109 -196 630z" />
<glyph unicode=")" horiz-adv-x="758" d="M185 2129q0 32 56 63q138 0 280 -497q112 -524 112 -616v-56q0 -629 -203 -966q0 -73 -105 -105q-59 0 -105 77q7 53 98 147q147 327 147 665v210q0 246 -119 728q-24 122 -161 350z" />
<glyph unicode="*" horiz-adv-x="1024" d="M88 1712q0 68 280 84v7q-13 52 -140 238v21l49 14q34 0 175 -182h14q59 220 119 245q84 -30 84 -84q-63 -186 -63 -224h7q47 0 168 35q56 -58 56 -91v-21q0 -47 -238 -56l-7 -21q0 -45 126 -203l14 -49q-35 -56 -91 -56q-55 0 -126 196h-14q-23 -17 -84 -238 q-37 -35 -70 -35q-84 21 -84 77l105 287v14h-7l-217 -28q-56 27 -56 70z" />
<glyph unicode="+" d="M93 723v14q0 38 329 63q32 462 49 462h7q84 0 84 -280l-7 -119v-49h133q119 0 175 35q44 0 91 -63v-7q0 -98 -168 -98l-126 -7l-112 14v-7l-21 -350l14 -77q0 -55 -63 -91q-105 37 -105 91q42 240 42 399h-7l-7 7l-7 -7h-35q-99 0 -189 -21q-77 45 -77 91z" />
<glyph unicode="," horiz-adv-x="604" d="M209 -275q0 33 133 77q56 105 56 154v42q0 14 -119 28q-42 28 -56 77q47 133 147 133v7q114 0 175 -238q0 -252 -245 -371q-38 0 -91 91z" />
<glyph unicode="-" horiz-adv-x="1062" d="M79 1025l28 14l497 -7l315 21q28 0 77 -63v-14q0 -63 -378 -63h-91q-427 0 -427 49z" />
<glyph unicode="." horiz-adv-x="557" d="M229 145q0 64 126 105q100 0 161 -126q0 -58 -91 -105l-63 -14q-103 0 -133 140z" />
<glyph unicode="/" horiz-adv-x="1210" d="M-4 28v21q0 23 119 175q88 114 567 1218q148 278 252 567q103 221 140 231h7q49 0 77 -56l-238 -574q-161 -322 -357 -805q-275 -596 -420 -819l-56 -21q-60 20 -91 63z" />
<glyph unicode="0" horiz-adv-x="1361" d="M-8 778v119q0 545 224 1029q115 219 378 315l91 7l224 -56q79 -79 214.5 -268t139.5 -659.5t-197 -860.5t-520 -397t-432.5 240t-121.5 531zM118 841q-5 -276 84 -462.5t336.5 -226.5t418 335t166.5 832.5t-155.5 626.5t-240.5 169l-21 42h-42q-208 -56 -301 -196 q-106 -139 -189 -539q-56 -345 -56 -532v-49z" />
<glyph unicode="1" horiz-adv-x="573" d="M179 1863q3 337 73 342l14 1q77 6 85 -106l1 -14q7 -562 60 -1742q3 -316 -54 -320l-54 -25q-50 -4 -89 70q34 3 -36 1794z" />
<glyph unicode="2" horiz-adv-x="1115" d="M0 105q15 82 161 315q418 949 474 1106t56 351q0 175 -77 175h-49q-75 0 -210 -105q-24 0 -84 84q0 99 245 182h28q208 0 287 -252l7 -70q0 -281 -87.5 -505.5t-470.5 -1077.5l-14 -42v-7q0 -16 91 -21q205 -98 280 -98q144 0 231 147l49 28q112 -31 112 -105 q0 -65 -273 -196l-63 -14q-114 0 -308 91l-98 14h-35q-73 0 -98 -77q-42 -5 -42 -14q-112 28 -112 91z" />
<glyph unicode="3" horiz-adv-x="1003" d="M0 329v21q0 19 70 28q93 0 112 -147q48 -91 252 -91h21q92 85 147 224q56 171 56 368t-98 294h-56l-91 -28q-19 0 -77 112v7q275 365 282 472q70 172 70 259v49q-26 147 -140 147h-35q-115 0 -266 -196l-28 -21h-28q-77 63 -77 112v14q219 245 343 245q287 0 364 -266 l21 -126q-36 -283 -268 -626q0 -13 84 -70q154 -153 154 -475t-224 -586q-70 -49 -126 -49q-356 0 -462 329z" />
<glyph unicode="4" horiz-adv-x="1438" d="M0 1113v7q63 256 95 777q0 266 49 266h7q112 0 112 -63l7 -63q17 -299 -74 -861l7 -21l119 7h308l168 -7q35 4 35 56l-3 868q0 112 63 112h7q45 0 105 -77l10 -448v-469h7q64 0 252 119l21 7q56 0 56 -98q0 -119 -336 -196l-21 -49l-14 -931q-12 -42 -56 -42v-7 q-126 39 -126 91l35 693v182l-14 42l-189 7h-217q-94 0 -294 -28q-119 0 -119 126z" />
<glyph unicode="5" horiz-adv-x="1537" d="M0 350v7q0 42 42 56q46 0 119 -119q226 -147 385 -147h105q327 0 457.5 199.5t89.5 438t-176 311.5t-362 73t-415 -154h-14q-65 0 -84 105l63 869l-14 98q25 105 63 105q67 -28 133 -28h168q532 0 721 119q70 -39 70 -98q-82 -182 -980 -182q-42 0 -42 -252 q-28 -71 -42 -505h7q307 77 639.5 21t378.5 -461.5t-153.5 -605.5t-577.5 -200q-252 0 -560 273z" />
<glyph unicode="6" horiz-adv-x="1400" d="M0 770q-39 1094 514 1391q127 49 189 49h7q77 -48 77 -91q-43 -33 -182 -84q-207 -112 -322 -413q-108 -205 -108 -873q0 -431 154 -546h7q0 707 315 896q60 54 259 77q232 0 301.5 -193t8.5 -482.5t-226 -395t-427 -105.5q-409 0 -546 490q-14 46 -21 280zM518 231 q41 -91 84 -91q273 0 395.5 220.5t107 451.5t-131.5 231q-308 0 -413 -392q-42 -122 -42 -378v-42z" />
<glyph unicode="7" horiz-adv-x="1279" d="M13 2076q0 42 56 49h21q176 -42 231 -42h196q469 68 469 126l49 14q119 -28 119 -112q-140 -347 -333 -1069t-249 -1010l-70 -28q-77 0 -84 98q140 584 491 1869v7h-7q-240 -49 -473.5 -68.5t-318 52.5t-97.5 114z" />
<glyph unicode="8" horiz-adv-x="1124" d="M17.5 1909q8.5 123 117 264.5t212.5 141.5h161q150 0 315 -98l77 7q70 -31 98 -119q-97 -419 -373 -795q-63 -92 -63 -119l273 -322q143 -262 105 -563t-429 -306h-98q-116 0 -259 119q-84 123 -84 280v42q9 357 240 659q42 56 42 84v35q-287 325 -287 427 q-56 140 -47.5 263zM149 1774q0 -199 287 -457h21q44 37 259 406q79 182 121 305q-78 175 -322 175h-77q-158 0 -223.5 -115t-65.5 -314zM203 448q22 -322 147 -322l105 -7h91q218 0 256 161.5t16.5 335t-326.5 470.5h-14q-266 -298 -275 -638z" />
<glyph unicode="9" horiz-adv-x="1236" d="M0.5 1376.5q-21.5 376.5 104.5 656.5q166 210 259 210q103 35 224 35h28q178 0 357 -189q147 -43 147 -154q0 -232 -98 -1452q-25 -448 -56 -448l-56 -35q-70 0 -77 105q28 139 112 1291h-14q-368 -357 -581 -357q-328 -39 -349.5 337.5zM140 1529q0 -357 189 -357h28 q141 0 455 301q133 199 133 350v21q0 95 -49 119q-105 189 -315 189q-361 0 -441 -504v-119z" />
<glyph unicode=":" horiz-adv-x="557" d="M173 361q0 124 175 168q140 -39 140 -154l7 -7q0 -132 -175 -161q-126 0 -147 154zM215 1173q42 168 140 168q161 -31 161 -112l7 -70q-39 -112 -182 -112q-119 8 -119 119z" />
<glyph unicode=";" horiz-adv-x="637" d="M194 115q60 168 161 168q140 -28 140 -112l-7 -70l28 -140q-55 -245 -182 -245h-14q-63 9 -63 63q0 52 77 84q42 66 42 105v14q0 27 -133 56q-49 48 -49 77zM213 1084q0 122 133 168h14q120 0 140 -189q-39 -112 -161 -112q-101 0 -126 133z" />
<glyph unicode="&#x3c;" horiz-adv-x="1309" d="M0 728v14q0 57 98 98q390 356 875 756q117 112 154 112q70 -28 70 -77v-7l-952 -840q-42 -24 -42 -63q36 -38 301 -175q171 -110 399 -287q18 0 189 -126q28 -30 28 -56q0 -49 -70 -77q-28 0 -161 133q-348 268 -504 364q-257 88 -378 224z" />
<glyph unicode="=" horiz-adv-x="1443" d="M39 559q0 49 175 49h301l574 -14l91 14q77 -31 77 -98v-7q-24 -42 -70 -42l-651 7l-413 -7q-63 0 -84 98zM95 1070q14 42 28 42h126l910 56h49q60 0 91 -98q0 -49 -315 -49l-770 -42q-105 0 -119 91z" />
<glyph unicode="&#x3e;" horiz-adv-x="1301" d="M112 1592q0 19 35 35q89 0 574 -343q155 -99 385 -294q85 -31 161 -119v-7q0 -73 -112 -105q-586 -514 -721 -665q-35 -66 -70 -77q-112 26 -112 91v14l812 749v21q-354 277 -637 448q-173 129 -273 161q-42 42 -42 91z" />
<glyph unicode="?" horiz-adv-x="1348" d="M310 1897q98 250 280 336q98 57 280 84q362 0 434 -455v-14q0 -558 -424 -815q-140 -38 -143 -53v-119l7 -357q0 -26 -70 -49q-112 13 -112 98q0 32 21 63v245q0 86 -28 189q0 58 217 91q167 70 272.5 247t105.5 453v35q0 203 -140 287q-50 28 -126 28q-202 0 -399 -245 q-58 -119 -98 -119q-47 0 -77 70zM550 29v7q0 77 126 84q96 0 147 -147q0 -61 -112 -133q-139 0 -161 189z" />
<glyph unicode="@" horiz-adv-x="1395" d="M65 337v126q0 664 483 980q68 35 182 35q332 0 490 -329l35 -259q-42 -283 -112 -371q-128 -147 -231 -147h-28q-48 0 -140 35q0 -67 -189 -126q-189 27 -189 189l-7 28q0 342 224 448q54 21 133 21q102 0 168 -168q-21 -129 -21 -273l7 -21h42q118 0 189 294v259 q-76 294 -364 294q-317 0 -490 -560q-28 -143 -28 -343v-105q0 -371 238 -483q82 -28 168 -28h7q204 0 322 175q0 38 42 56l112 -42l7 -42q-78 -135 -336 -245l-168 -28q-316 0 -490 329q-56 132 -56 301zM506 491q0 -55 35 -84h14q147 103 147 385q-7 49 -21 49 q-151 0 -175 -287v-63z" />
<glyph unicode="A" horiz-adv-x="1463" d="M-6 17q67 294 516 1572q120 327 256 605q30 28 56 28q52 0 205 -528q154 -562 350 -1540l21 -63q0 -61 -91 -70q-70 0 -70 98q-56 420 -112 595q-217 6 -375 6q-437 0 -437 -48q-161 -535 -196 -616l-42 -56zM376 847l7 -7h7q75 22 474 22q100 0 219 -1l7 21l-288 1103 q-37 -9 -216 -536q-210 -555 -210 -602z" />
<glyph unicode="B" horiz-adv-x="1245" d="M0 77q52 978 52 1398q0 154 -7 232v406q0 154 56 154q105 0 105 -175l7 -189l7 -21h7q269 378 519 385h10q240 0 258 -312q1 -20 1 -39q0 -302 -265 -647l-56 -77v-7q247 -121 309 -288q35 -94 35 -201q0 -84 -22 -176q-48 -210 -244.5 -351t-379.5 -141h-245l-63 -7 q-84 28 -84 56zM167 165q0 -14 190 -18q189 0 374 128q185 129 197 385q1 12 1 23q0 239 -235 355l-70 7q-77 0 -365 -122l-63 21q-28 0 -29 -779zM189 1070h21q335 156 526 400q179 228 179 450q0 14 -1 30q-11 194 -149 195q-30 1 -66 -9q-202 -52 -479 -432z" />
<glyph unicode="C" horiz-adv-x="1215" d="M-18 1071q-1 39 0 76q0 647 190 857q200 224 410 230q14 0 27 1q189 0 277 -82q94 -87 94 -123q-12 -49 -63 -49h-7q-40 -1 -90 73q-40 59 -170 60q-32 0 -69 -4q-189 -18 -333 -210q-115 -154 -115 -685q0 -133 7 -290q35 -771 294 -771h8q266 12 391 147 q99 146 140 238q39 44 71 44q41 0 69 -72q-222 -398 -469 -469q-72 -28 -204 -36h-10q-126 0 -278 174q-158 181 -170 891z" />
<glyph unicode="D" horiz-adv-x="1292" d="M0 154q21 113 21 217v1211l-21 532q0 77 70 77q63 -20 63 -49h21q33 42 322 56q461 0 591 -319q96 -236 97 -579q0 -120 -12 -252q-46 -512 -291 -873q-211 -175 -476 -175q-174 49 -217 49l-112 -7q-56 21 -56 112zM133 1960l14 -1666q0 -139 224 -161l63 -7h42 q309 0 438 368q130 366 132 846v14q0 468 -176 594q-178 128 -338 131q-332 0 -378 -91z" />
<glyph unicode="E" horiz-adv-x="1051" d="M31 100l30 48l20 279l42 895q8 178 8 397q0 189 -6 409q4 61 159 61q22 0 47 -1q130 20 471 21l78 17q63 -3 66 -87q-2 -55 -263 -55q-71 0 -160 4q-42 2 -77 2q-182 0 -185 -52l-12 -119q6 -84 6 -271.5t-6 -478.5l6 -28l216 -10l143 42q51 -27 51 -93v-7 q-3 -70 -265 -70q-53 0 -117 3l-57 -32l-15 -322q-7 -153 -7 -263q0 -276 45 -278l14 -1q555 26 557 80l35 -2q21 -1 38 -79q-4 -86 -256 -93l-450 -28q-120 5 -150 84z" />
<glyph unicode="F" horiz-adv-x="1017" d="M46 72q10 89 10 1387q4 57 4 209q0 169 -5 457q23 120 114 124q265 -9 416 -9q124 0 171 6q17 2 32 2q72 0 88 -56q1 -5 2 -11q0 -59 -194 -67l-468 18q-33 -2 -33 -159q0 -45 3 -102q3 -197 3 -346q0 -242 -8 -355l14 1h7l161 7q22 1 42 1q59 -1 103 -9q61 -12 60 -54 q0 -17 -53 -64l-119 2l-70 -3l-132 -20q-6 -262 -6 -463.5t6 -342.5l6 -147v-5q0 -60 -66 -89q-85 24 -88 88z" />
<glyph unicode="G" horiz-adv-x="1350" d="M17 1270q66 511 226 730q159 218 442 218h3q285 -1 360 -173l-28 -42q-134 91 -332 91q-30 0 -62 -2q-239 -16 -349.5 -304t-154.5 -647q-15 -115 -15 -218q0 -221 65 -391q95 -249 290 -336q86 -38 162 -38q98 0 181 63q238 262 238 889h-14q-188 -21 -245 -63 q-70 26 -70 70q0 77 154 77q112 0 217 70q71 0 91 -98q0 -406 -112 -733.5t-344 -384.5q-70 -18 -136 -18q-153 0 -282 94q-185 134 -268 385q-46 140 -46 360q0 175 29 401z" />
<glyph unicode="H" horiz-adv-x="1382" d="M0 140l63 1554q0 235 -28 462q10 29 35 42h28q82 0 98 -427v-14q0 -271 -28 -588h7q317 35 875 70l14 364v315l-7 252q0 21 56 56q84 -24 84 -98l7 -63l-14 -1197l7 -784q-9 -84 -63 -84q-74 0 -84 98v952l-7 35h-140q-735 -11 -735 -77q-21 -239 -21 -637v-35l5 -258 q0 -29 -54 -29h-14q-52 0 -84 91z" />
<glyph unicode="I" horiz-adv-x="835" d="M31 8q0 63 189 63q63 0 63 847q26 343 26 741q0 148 -4 302l-7 7h-21q-105 -2 -105 -14q-91 34 -91 84q0 77 336 77l203 21q44 0 70 -63q5 -77 -182 -77h-14q-45 0 -45 -226q0 -52 2 -117l-56 -1554l21 -7l252 21q56 -23 56 -91v-7q-28 -49 -84 -49l-98 7 q-306 -42 -441 -42q-70 35 -70 77z" />
<glyph unicode="J" horiz-adv-x="1377" d="M0 770q0 101 84 112q49 0 77 -77l-7 -98q0 -560 274 -569q18 -1 34 -1q249 0 366 134q124 143 124 842l14 672v336q0 154 70 154q77 0 77 -336q-14 -274 -14 -700v-259q0 -612 -148 -785t-446 -184q-16 -1 -32 -1q-272 0 -382 179q-91 200 -91 581z" />
<glyph unicode="K" horiz-adv-x="1477" d="M36 46q19 356 19 1072q0 462 -8 1073q27 37 40 38h6q78 0 86 -121l22 -931l1 -7l21 1q127 69 427 462q166 230 299 607q24 23 47 24l7 1h4q45 0 70 -59v-5q0 -85 -150 -366q-155 -290 -336 -494q-195 -178 -257 -268l176 -129q154 -163 288 -502q142 -285 270 -309 q48 -9 90 -9q69 0 120 25q31 16 55 16q37 0 55 -39q3 -7 4 -14q0 -54 -211 -100q-59 -13 -111 -13q-155 0 -241 116q-115 155 -296 578q-140 222 -297 262l-7 -1q-36 -2 -36 -156q0 -56 5 -133l-21 -631q-31 -51 -77 -54h-4q-43 0 -60 66z" />
<glyph unicode="L" horiz-adv-x="930" d="M0 70l91 1778v77l-7 308q0 53 84 77q63 0 63 -343q0 -411 -56 -1316v-427q0 -84 140 -84h28q251 0 385 63q51 -14 77 -56v-28q0 -84 -483 -119h-224q-74 0 -98 70z" />
<glyph unicode="M" horiz-adv-x="2002" d="M6 21q49 743 133.5 1193t119.5 894q35 112 107 116h2q70 0 115 -179l252 -420q203 -331 231 -336q45 22 173 242t436 661l28 7q112 0 112 -245q97 -1279 146 -1898q-24 -56 -77 -56q-49 0 -59.5 50.5t-10.5 110.5l-139 1779l-7 7h-7q-259 -336 -546 -840l-49 -14h-28 q-53 26 -252 378q-89 132 -280 469h-21q-190 -1160 -225 -1751q-9 -176 -70 -198q-18 -7 -33 -7q-35 0 -51 37z" />
<glyph unicode="N" horiz-adv-x="1518" d="M39 127l32 1931q24 189 98 189q92 0 218.5 -242.5t628.5 -1325.5l119 -210l7 175v112l14 1407l-7 77q0 70 77 70h14q65 -8 65 -256q0 -44 -2 -98q-14 -346 -14 -1606v-133q0 -210 -56 -210l-42 -14h-7q-57 0 -119 245q-676 1456 -840 1750h-14l-25 -1805 q-26 -166 -78 -166q-5 0 -10 2q-59 18 -59 108z" />
<glyph unicode="O" horiz-adv-x="1429" d="M11 923q-6 105 -6 201q0 515 172 776q204 310 431 349q55 9 108 10q168 0 324 -94q206 -123 214 -722q0 -27 1 -53q-1 -566 -175 -962q-182 -416 -491 -433q-248 32 -366 155q-92 70 -144 307q-57 264 -63 375zM148 1099l14 -251q36 -620 299 -692q80 -20 124 -20h11 l48 3q214 12 364 499q125 408 126 799q0 75 -5 151q-29 464 -285 520q-64 14 -125 15q-180 1 -323 -127q-191 -170 -245 -693z" />
<glyph unicode="P" horiz-adv-x="1187" d="M21 66q27 163 27 1068q0 342 -4 791l-8 147q-3 67 169 114q77 53 264 62l125 7q368 -57 416 -439q13 -106 13 -195q1 -230 -91 -340q-126 -152 -259 -211t-322 -68l-28 -2l-113 8q-20 -1 -26 -842q-16 -176 -96 -180l-7 -1q-38 17 -60 81zM195 1989q-2 -181 -2 -332 q0 -303 9 -488v-7l129 -42q238 12 407 119q155 132 155 380q1 21 -1 43q-14 280 -102 373q-84 88 -161 88h-7l-28 -1q-405 -21 -399 -133z" />
<glyph unicode="Q" horiz-adv-x="1707" d="M36 1306q56 546 338 753.5t467 207.5h42q143 0 282.5 -93.5t233 -336t93.5 -613.5v-28q2 -18 2 -40q0 -206 -140 -715q17 -51 196 -196l35 -70q-17 -56 -77 -56t-140 140q-61 56 -98 56q-252 -315 -497 -315h-35q-456 0 -607 380q-110 277 -110 643q0 135 15 283z M156 1161q-4 -81 -4 -156q0 -441 139 -639q163 -233 384 -233q263 0 350 112q140 105 140 182v7q0 51 -252 287v14h-7q19 70 42 70h14q39 0 266 -217h7q59 0 124 587q0 631 -126 774t-224 143q-102 0 -161 56h-14q-162 0 -406.5 -212t-271.5 -775z" />
<glyph unicode="R" horiz-adv-x="1155" d="M29 159q26 1 26 955q0 413 -5 1003q47 113 262 120l98 3h9q145 0 273 -132q132 -136 142 -334q1 -15 1 -30q0 -179 -94 -320q-101 -152 -173 -203t-141 -97q182 -189 275 -531q100 -337 216 -407l28 -13l63 9q50 -1 100 -60q2 -64 -102 -108h-6q-88 0 -228 91 q-115 105 -287 698q-92 182 -111 186q-32 24 -148 45q-28 -12 -28 -22l-21 -925q-16 -50 -54 -51h-4q-87 0 -91 123zM178 2051l23 -871h7q162 59 326 176q166 116 168 357v12q0 231 -92 307q-90 74 -218 74h-13q-191 -13 -201 -55z" />
<glyph unicode="S" horiz-adv-x="1403" d="M94 409q-23 93 -23 148q0 71 38 79q5 1 9 0q61 0 91 -169q13 -158 189 -291q123 -92 287 -92q72 0 152 18q237 53 237 319q0 29 -2 59q-28 320 -444 609q-361 251 -362 568q0 49 9 99q64 376 373 451l182 16q206 -66 307 -234q-16 -51 -58 -54h-1q-17 0 -113 102 q-104 60 -193 60q-12 0 -23 -1l-28 -2q-273 -24 -329 -332q-6 -35 -7 -70q0 -276 388 -573q438 -335 438 -700q0 -364 -382 -430q-104 -18 -192 -18q-235 1 -351 129q-160 176 -192 309z" />
<glyph unicode="T" horiz-adv-x="1290" d="M-11 2155q0 84 462 84q749 1 805 3h3q44 0 44 -52q1 -10 -1 -22q-10 -76 -592 -83l46 -2027q-21 -63 -84 -63q-63 21 -63 105l-27 1977q-140 8 -516 8q-47 21 -77 70z" />
<glyph unicode="U" horiz-adv-x="1490" d="M0 959v70q6 1122 46 1122h98l21 -14l-11 -1017v-224q0 -613 161 -714q103 -63 161 -63h56q368 0 497 861l60 1171q21 63 63 63q91 -27 91 -63l7 -231l-60 -1122v-98q0 -445 161 -567l14 -42q0 -42 -91 -63q-83 0 -210 315l-14 63h-7q-16 -6 -126 -217 q-174 -189 -378 -189h-42q-250 0 -399 231q-98 227 -98 728z" />
<glyph unicode="V" horiz-adv-x="1419" d="M19 2127q0 49 63 49q98 0 387 -1070q140 -617 210 -826h7q41 0 196 616l249 933q31 230 66.5 297t66.5 67q98 -35 98 -91v-14q-71 -91 -452 -1647q-138 -441 -217 -441q-129 0 -252 595l-415 1476z" />
<glyph unicode="W" horiz-adv-x="2123" d="M26 2106q0 25 42 56q59 0 102 -116t173 -674q119 -357 280 -1036l7 -7h7q42 95 175 525l196 462l49 14q78 0 175 -308l336 -770h7q57 236 152 877.5t172 972.5q12 154 91 154h7q53 0 77 -77q-113 -437 -408 -2130l-63 -49q-93 0 -126 154q-101 162 -417 949 q-148 -322 -241 -676q-49 -91 -119 -350l-56 -63h-35q-61 0 -133 343l-366 1399q-84 311 -84 350z" />
<glyph unicode="X" horiz-adv-x="1808" d="M0 42v28q341 488 672 1071q21 4 21 56q-136 267 -326.5 567.5t-219.5 408.5v7l21 21q6 4 14 4q69 1 255 -321q207 -358 326 -568h7q57 57 376 629q106 245 168 245h7q48 0 84 -77l-229 -391q-315 -508 -315 -560q56 -130 224 -399q163 -342 392 -616l21 -14h49 q44 0 98 203l42 28q84 -19 84 -49q0 -133 -182 -301l-49 -14q-180 0 -406 413q-74 104 -252 448q-100 175 -112 175q-29 -7 -182 -287l-224 -350l-266 -392l-42 -7q-26 0 -56 42z" />
<glyph unicode="Y" horiz-adv-x="1233" d="M-6 2141q9 35 21 35q70 0 182 -238l294 -497q114 -168 133 -168q79 55 245 392q168 305 280 574h7q105 -13 105 -84q0 -77 -392 -784q-161 -257 -161 -280l6 -188q0 -889 -35 -889l-35 -14q-105 22 -105 77q28 189 28 658l-6 363q0 68 -259 434q-217 392 -301 581z" />
<glyph unicode="Z" horiz-adv-x="1250" d="M0 98v14q0 96 413 980q165 346 555 915q14 0 14 35v7l-588 -35l-238 42q-49 51 -49 98q21 49 63 49q90 -28 182 -28h266l511 28q54 0 70 -77q0 -45 -308 -497q-173 -209 -324 -551q-147 -266 -371 -840q-21 -36 -21 -70q360 -14 497 -35q149 0 371 84q63 -63 63 -105 q0 -67 -392 -112l-322 14h-287q-105 0 -105 84z" />
<glyph unicode="[" horiz-adv-x="2364" d="M0 637q0 49 70 49h182q91 -10 91 -91q-35 -42 -70 -42q-266 0 -266 84h-7zM511 798v14q29 261 245 329h21q157 0 259 -189h28q151 217 385 217q108 0 189 -126q21 -46 21 -98v-7q0 -318 -504 -924l-21 -14h-42q-102 69 -350 378l-182 238q-49 89 -49 182zM651 735 q0 -82 217 -322q175 -231 231 -231q22 5 210 259q210 336 210 560q-39 35 -84 35q-160 0 -287 -224q-32 -126 -112 -126q-69 0 -147 217q-42 98 -119 98h-7q-112 -98 -112 -203v-63zM1729 700q0 63 91 63q201 0 343 42q63 -36 63 -91v-7q0 -70 -399 -70q-44 0 -98 63z" />
<glyph unicode="\" horiz-adv-x="1306" d="M44 2215q28 56 77 56h7q37 -10 140 -231q104 -289 252 -567q480 -1104 567 -1218q119 -152 119 -175v-21q-31 -43 -91 -63l-56 21q-145 223 -420 819q-196 483 -357 805z" />
<glyph unicode="]" horiz-adv-x="1003" d="M0 581q39 136 168 147q60 0 98 -147q0 -63 -147 -98q-119 28 -119 98zM42 1162q34 112 126 112q77 0 126 -112l7 -35q0 -71 -133 -105q-126 36 -126 140zM336 1582q28 56 77 56h7q168 -79 308 -280q140 -232 140 -595q0 -298 -147 -546q-143 -210 -175 -210l-28 -7 q-79 0 -91 112q0 15 84 77q196 207 196 595v105q0 453 -336 637z" />
<glyph unicode="^" horiz-adv-x="1425" d="M30 1271v14q204 323 595 798q75 77 119 77q50 0 231 -301q147 -217 378 -518l7 -28q0 -51 -91 -91q-40 8 -119 168l-420 567h-14l-378 -462q-101 -113 -168 -252q-30 -28 -56 -28h-21q-34 16 -63 56z" />
<glyph unicode="_" horiz-adv-x="1137" d="M0 462v7q0 102 154 119q78 0 105 -133q0 -84 -147 -119q-99 0 -112 126zM28 1113q0 38 77 98h35q100 0 147 -119q-32 -126 -126 -126q-112 0 -133 147zM567 763q12 662 329 854h7q49 0 77 -63q0 -21 -133 -210q-119 -228 -119 -595q7 -202 98 -497q35 -64 119 -119 l35 -56q0 -59 -84 -77q-91 22 -224 231q-105 297 -105 532z" />
<glyph unicode="`" horiz-adv-x="1024" d="M0 511q31 224 112 224h14q70 0 70 -70q-42 -97 -42 -154v-14l49 -105l7 -21q-14 -56 -77 -56q-133 36 -133 196zM21 1190q0 85 126 147q68 0 133 -98v-21q-30 -140 -133 -140q-73 0 -126 112zM434 84q0 58 105 91q175 185 175 504v210q0 407 -161 525l-91 105v7 q7 22 70 49q112 0 266 -266q98 -265 98 -560q-49 -424 -126 -525q0 -39 -182 -217l-49 -7q-105 25 -105 84z" />
<glyph unicode="a" horiz-adv-x="1406" d="M0 364v49q-1 15 -1 31q0 372 325 764q215 266 469 266q231 0 231 -91v-56l7 -7l-7 -7v-63l-30 -531v-292q0 -259 154 -280q66 21 108 21q68 0 68 -58q0 -89 -106 -89l-77 -7q-157 0 -266 175q-35 164 -35 231v7h-7q-267 -427 -511 -427h-21q-206 0 -287 238zM147 294 q0 -168 161 -168h14q202 48 385 406q91 193 140 418q9 126 30 426h-14q-312 -85 -441 -273q-276 -361 -276 -648q0 -14 1 -28v-133z" />
<glyph unicode="b" horiz-adv-x="1245" d="M59 2191q28 30 54 32q23 -3 74 -58q33 -678 56 -1030l-4 -35h7q117 209 219 282q137 86 233 93h7q12 1 23 1q211 0 325 -279l30 -230l10 -153q-22 -367 -101 -484q-108 -208 -296 -287q-165 -46 -228 -50l-70 -5q-65 -4 -117 -4q-205 0 -210 66q31 413 31 761 q0 234 -14 440q-36 646 -36 848q0 92 7 92zM255 238l8 -126q1 -16 58 -16h7q192 13 318 70q137 10 260 305q38 155 38 374q0 96 -7 204q-12 176 -153 291q-24 9 -64 9q-13 0 -28 -1q-178 -60 -248 -171q-194 -369 -194 -802q0 -68 5 -137z" />
<glyph unicode="c" horiz-adv-x="952" d="M48 606q0 671 231 868q58 28 119 28h7q169 -13 339 -216l7 -35q-24 -84 -77 -84q-55 2 -133 147q-30 28 -129 41q-141 0 -210 -700q0 -284 119 -483q50 -39 123 -39q20 0 41 3q85 0 224 154l42 14v7q77 -37 77 -77q0 -171 -322 -238q-17 -1 -34 -1q-163 0 -284 114 q-140 220 -140 497z" />
<glyph unicode="d" horiz-adv-x="1525" d="M0 396v63q14 359 119.5 566t369.5 343q141 73 248 73q92 0 158 -55h7l12 450q23 357 70 357h7q112 -34 112 -119v-14q-19 -559 -47 -1206q-6 -100 -6 -184q0 -402 133 -477l42 -7h28q56 0 133 98h35q70 -38 91 -84q0 -74 -280 -147h-42q-128 0 -287 287 q-141 -253 -371 -371q-144 -56 -196 -56h-70q-95 0 -210 161q-56 129 -56 322zM161 452q0 -413 154 -413q161 0 343 217q167 142 223 941q-10 34 -129 79q-26 10 -55 10q-105 0 -257 -126q-194 -162 -236.5 -366t-42.5 -342z" />
<glyph unicode="e" horiz-adv-x="1086" d="M40 733q40 280 236 522t400 242q123 0 189 -161l7 -56v-56q0 -276 -173 -407q-255 -203 -336 -203q-189 -46 -189 -126v-77q14 -223 174 -275q39 -13 80 -13q124 1 258 123q176 162 215 197t87 39q3 0 6 1q42 0 42 -63q0 -81 -200 -241q-199 -159 -413 -169q-8 0 -17 -1 q-202 0 -329 222q-50 145 -50 316q-1 89 13 186zM223 719h7q241 57 364 203q138 92 138 344q0 105 -42 105q-234 -77 -371 -315q-96 -158 -96 -337z" />
<glyph unicode="f" horiz-adv-x="900" d="M-9 1382q21 56 84 63q62 -14 168 -14l49 -6q20 581 110 726t204 145h119q140 -36 140 -105q0 -40 -56 -63q-38 0 -84 42h-56h-9q-168 0 -194 -326q-12 -158 -12 -256q0 -111 16 -147h280h4q108 0 108 -55q0 -6 -2 -12q-12 -69 -50 -69l-338 -8q-4 6 -12 -48l2 -332v-147 l14 -693q0 -47 -70 -77q-77 0 -98 112l-9 1151v28h-105q-203 0 -203 91z" />
<glyph unicode="g" horiz-adv-x="1232" d="M32 579q10 313 171.5 567t400.5 358l62 13h35q316 0 323 -71l16 -19l4 -681q10 -307 10 -565q0 -314 -15 -554q2 -23 2 -46q0 -216 -180 -512q-185 -187 -311 -199l-14 -2q-9 -1 -19 -1q-89 0 -214 77q-114 33 -193 179l-53 114q15 79 69 84h5q72 0 119 -185 q123 -135 259 -135q14 0 28 1l49 5q194 119 256 327q58 132 62 526l4 683l-7 -1q-77 -166 -182 -299q-209 -273 -352 -287h-7q-16 -2 -32 -2q-172 0 -267 191q-32 96 -32 312q0 57 3 122zM169 338q24 -246 145 -246q6 0 12 1l7 1q126 12 347 335q214 440 214 715 q0 72 -15 133v71q-59 33 -141 33q-22 0 -45 -2q-229 -85 -347.5 -264.5t-154.5 -408.5q-26 -165 -26 -283q0 -46 4 -85z" />
<glyph unicode="h" horiz-adv-x="1282" d="M0 70q49 387 67 1947q0 294 35 294l35 7q45 0 77 -56q-18 -514 -18 -995v-35h7q212 282 462 336q322 -47 322 -266v-217l-14 -623v-42q0 -252 63 -252h7l133 56h7q49 -31 49 -77q-12 -60 -217 -105q-171 0 -189 238l-7 133v112l14 784q0 80 -119 119h-70 q-56 -6 -217 -133q-105 -115 -175 -315q-70 -388 -70 -651q0 -329 -84 -329h-14q-84 16 -84 70z" />
<glyph unicode="i" horiz-adv-x="704" d="M99 350v91q0 398 61 924v77q0 35 49 42q84 -21 84 -84q-61 -570 -61 -868q0 -406 49 -406q108 32 224 259l28 21h14q49 -38 49 -84q0 -114 -224 -287q-66 -35 -112 -35q-161 0 -161 350zM145 2026v7q16 161 140 161q63 0 77 -105q-23 -161 -133 -161q-70 0 -84 98z" />
<glyph unicode="j" horiz-adv-x="637" d="M-490 -646q0 42 63 77h28q70 0 70 -273q33 -161 119 -161l126 -7q271 0 322 539q26 363 56 1554q13 0 21 343q13 41 49 63h35q63 -47 63 -98q-35 -386 -63 -1708q-21 -215 -56 -357l7 -7v-7q-32 -179 -105 -266q-139 -168 -308 -168h-49q-256 0 -336 182q-28 118 -42 294 zM240 2115q19 133 91 133q126 -17 126 -126q0 -53 -105 -126h-28q-84 53 -84 119z" />
<glyph unicode="k" horiz-adv-x="1358" d="M74 68q40 215 46 1660l-4 485q20 36 53 39h3q49 0 71 -135l17 -863l2 -28q12 1 85 104q177 193 342 194q11 0 22 -2q175 -14 190 -216q1 -18 1 -35q0 -181 -142 -311q-156 -142 -227 -163l1 -21q139 -112 246 -389q91 -250 226 -250q4 1 10 1q142 10 200 68q27 28 51 28 q27 0 49 -34v-5q0 -88 -200 -170q-59 -11 -111 -11q-295 0 -364 362q-130 330 -281 330h-10l-49 -4q-35 -2 -47 -509q-10 -204 -76 -209q-99 16 -104 84zM317 858q250 64 375 203q92 102 92 190q0 31 -12 61q-27 67 -82 67q-36 0 -84 -30q-121 -74 -195.5 -183.5 t-93.5 -300.5v-7z" />
<glyph unicode="l" horiz-adv-x="797" d="M96 199l1 105q18 1422 29 1923q0 49 78 62q49 0 83 -85l-17 -957l-8 -630l1 -469l28 -21h14q197 37 199 171q1 134 77 133h1q44 -1 44 -98q0 -48 -11 -120q-31 -212 -312 -212h-13q-196 39 -194 198z" />
<glyph unicode="m" horiz-adv-x="2183" d="M3 1300v84q0 112 63 112q70 0 70 -133l14 -329l7 -7h7l175 252q189 161 259 161h56q238 0 287 -490v-35h21q111 295 385 427q126 72 219 72q186 0 236 -289q8 -992 67 -992l7 -7h42q32 0 75 46q40 43 71 42h4q32 -3 67 -74q-107 -140 -238 -140h-21q-129 0 -161 112 q-60 114 -60 889v75q0 196 -84 196h-14q-296 -94 -392 -259q-143 -229 -161 -476q-52 -160 -52 -425q-26 -56 -77 -56q-70 0 -70 189q2 112 2 213q0 851 -174 856q-104 0 -329 -350q-119 -174 -122 -467v-294q0 -203 -63 -203h-7q-84 0 -84 70v399v45q0 229 -25 786z" />
<glyph unicode="n" horiz-adv-x="1424" d="M60 1378q0 52 91 63q77 0 77 -154q-32 -190 -32 -325q0 -62 7 -112h7q100 210 217 364q205 231 398.5 231t217.5 -217q5 -1100 89 -1100q16 -14 45 -13q17 -1 37 3q58 12 106 39q14 8 25 8q31 0 53 -51q0 -94 -252 -133h-11q-117 0 -173 222q-58 233 -59 406v14l-7 633 q-5 38 -76 38q-32 0 -78 -8q-146 -26 -308 -296q-128 -245 -154 -462q-19 -135 -56 -451q-29 -77 -84 -77q-41 0 -77 49l7 315v185q0 257 -3 829h-7z" />
<glyph unicode="o" horiz-adv-x="1193" d="M20 702q-1 29 -2 57q0 298 141 508q154 230 370 230q367 -51 445 -467q26 -139 27 -265q-1 -253 -105 -455q-156 -302 -406 -306q-5 0 -9 -1q-245 1 -345 181q-102 184 -116 518zM162 580q7 -358 264 -424q42 -11 79 -11q196 -1 292 285q64 189 64 367q-1 141 -41 273 q-87 288 -250 287h-13l-28 21h-21q-180 -68 -266 -254q-80 -172 -81 -491q0 -26 1 -53z" />
<glyph unicode="p" horiz-adv-x="1171" d="M44 1304q5 105 66 107h3q58 0 70 -81l8 -231l21 1q69 201 234 316q130 103 256 108h14q196 0 268 -191q62 -165 62 -434q0 -54 -2 -112q-15 -348 -116 -561.5t-556 -229.5h-4q-43 0 -95 38l-35 -1q-27 -1 -27 -479v-131l3 -280l8 -42q2 -54 -68 -66h-4q-57 0 -96 53 q5 567 5 1013q0 790 -15 1203zM232 201q102 -86 142 -86h1q395 14 473 315q68 261 68 537q0 40 -2 81q-11 318 -201 357l-14 -1q-191 -58 -280 -192q-197 -269 -197 -773q0 -113 10 -238z" />
<glyph unicode="q" horiz-adv-x="1165" d="M30 649q8 302 147 531t312 318l42 10q11 1 23 1q141 0 379 -124q67 -43 71 -93v-50q0 -427 -33 -613q-53 -582 -53 -977q0 -180 11 -322q17 -220 99 -226h10q74 0 104 88q31 94 57 96h3q40 0 94 -70q-98 -243 -262 -243h-12q-173 9 -212 205q-32 159 -32 717q0 128 2 278 l-14 -1q-164 -174 -295 -184l-105 -8q-18 -1 -35 -1q-189 0 -247 175q-55 169 -55 426q0 33 1 67zM166 504q20 -375 198 -403l84 6q142 11 278 310q95 248 105 665l5 204q-4 53 -204 89l-70 -5q-102 -8 -258 -250q-140 -215 -140 -535q0 -40 2 -81z" />
<glyph unicode="r" horiz-adv-x="905" d="M12 1425l40 31q92 -9 96 -86l8 -266l7 1q195 354 421 367h7q13 1 25 1q139 0 198 -93l16 -34q-41 -73 -73 -75q-99 21 -102 72l-98 -6q-113 -48 -160 -142q-164 -179 -164 -424v-26q-16 -264 -16 -627v-82q-20 -35 -67 -46h-7q-78 0 -82 93q5 140 5 286q0 489 -54 1056z " />
<glyph unicode="s" horiz-adv-x="1016" d="M24 405q9 55 75 83q84 0 84 -196q0 -165 312 -166q7 0 15 1q296 4 296 184q0 19 -4 39q-34 218 -352 364q-316 146 -342 336q-5 35 -5 68q1 148 93 258q106 127 258 127q10 0 20 -1h21q220 0 371 -210l14 -70q0 -42 -42 -56q-112 43 -112 126q0 49 -217 84h-35 q-170 0 -220 -158q-18 -58 -18 -107q0 -84 54 -138q86 -86 356 -224.5t282 -380.5q1 -15 1 -28q-1 -217 -169 -281q-154 -59 -322 -59q-28 0 -56 2q-200 11 -273 89t-73 208q-15 36 -15 73q0 17 3 33z" />
<glyph unicode="t" horiz-adv-x="841" d="M0 1302q0 31 77 49l77 -7h49l7 56l10 334l-7 322l-7 56q14 119 91 119q56 -44 56 -84v-413l4 -390l267 -2q24 -41 24 -69q0 -48 -68 -59l-140 -8l-70 -7q-41 -590 -41 -877q0 -182 91 -182h28q72 0 147 147q39 182 77 182h14q56 0 56 -115q0 -18 -2 -40 q-10 -156 -138 -244q-115 -70 -224 -70q-137 0 -189 203l-7 119l21 868q-169 0 -203 112z" />
<glyph unicode="u" horiz-adv-x="1511" d="M0 735q14 732 66 732h21q84 0 84 -182v-56q-17 -249 -17 -389v-28q-5 -101 -5 -188q0 -484 166 -498q408 0 528 880q0 427 112 427q55 0 91 -119q-49 -78 -52 -880q0 -199 147 -238h49q40 0 189 77q70 -36 70 -91q0 -93 -280 -112q-192 0 -294 203l-28 133 q-46 -162 -238 -315q-162 -91 -259 -91q-221 0 -287 168q-63 268 -63 567z" />
<glyph unicode="v" horiz-adv-x="1144" d="M0 1421v35q19 35 63 35q97 0 546 -1232q16 0 147 441q126 515 201 746q39 42 82 42t79 -91q-117 -286 -257 -865q-154 -532 -231 -532h-21q-88 0 -140 210z" />
<glyph unicode="w" horiz-adv-x="1968" d="M29 1429q0 32 56 56q133 0 461 -1163h7q33 35 156 397t173 604q23 35 56 35h7q111 0 175 -322l287 -742h14q57 96 140.5 391.5t181.5 744.5l49 42h21q52 0 98 -77v-7q-56 -135 -357 -1241q-70 -147 -112 -147h-14q-88 0 -161 273q-145 318 -287 742h-7l-273 -770 q-73 -199 -91 -217q-3 -15 -56 -28q-79 0 -475 1317z" />
<glyph unicode="x" horiz-adv-x="1135" d="M8 1367v21q3 14 35 28q113 0 341 -488l26 -15q17 8 293 565l35 28h28q41 0 70 -56q-340 -664 -340 -697q238 -597 352 -627q22 -6 44 -5q84 0 139 96l7 7h7q49 -16 49 -91q0 -99 -218 -123q-8 -1 -16 -1q-210 0 -434 590h-14q-253 -546 -310 -612q-34 -28 -56 -28 q-38 18 -38 66q0 59 56 165q102 192 264 584q-173 362 -320 593z" />
<glyph unicode="y" horiz-adv-x="1193" d="M-22 -1030q-17 61 -17 112q0 112 84 180q56 -17 56 -112v-84q0 -156 273 -162q8 -1 16 -1q259 0 310 200q52 206 58 343.5t31 775.5l-261 -162q-149 -77 -248 -77q-133 0 -178 137q-78 241 -78 661l-3 404q0 315 63 315l28 7q70 -43 70 -91l-11 -257v-154 q0 -868 105 -868h28q456 53 493.5 429t37.5 861q27 77 77 77v7q84 -21 84 -126l-62 -912q-23 -1162 -103.5 -1428.5t-505.5 -272.5q-290 6 -347 198z" />
<glyph unicode="z" horiz-adv-x="1412" d="M0 140q0 45 154 238q120 176 633 900v14l-28 7q-99 -2 -185 -2q-535 0 -567 96l-7 7v28q26 49 56 49q121 -31 430 -31h105q244 0 455 77q50 0 98 -91q0 -33 -196 -189l-619 -858q-105 -131 -105 -182q125 -26 378 -42h14q434 0 574 56q56 22 89 22q51 0 51 -51 q0 -85 -119 -120t-485 -43q-73 -2 -143 -2q-279 0 -499 26q-84 46 -84 91z" />
<glyph unicode="{" horiz-adv-x="805" d="M15 176q0 132 133 574l14 140v28q0 117 -70 147q-24 0 -77 77v28q18 40 119 70q63 71 63 119v35q0 101 -119 364l-14 105v119q0 339 287 462q155 42 196 42q98 -14 98 -56q0 -77 -175 -77q-245 -84 -245 -392v-49q0 -152 133 -406l7 -91q0 -152 -112 -266v-14 q77 -137 77 -196q0 -169 -140 -616l-14 -140q0 -189 112 -259l70 -14h35q110 91 126 91q72 0 98 -63q0 -107 -245 -168q-252 52 -252 112q-105 129 -105 294z" />
<glyph unicode="|" horiz-adv-x="1260" d="M0 497l77 28q59 0 126 -231q98 -168 196 -168h91q287 0 518 336q13 98 56 98q126 0 126 -112v-7q-341 -441 -672 -441h-91q-304 0 -427 497zM315 749v42q0 266 42 266h14q63 -25 63 -119l21 -231q0 -35 -42 -70h-28q-70 48 -70 112zM588 707l7 308q0 77 70 77 q19 0 77 -70l-14 -112v-203q-4 -84 -77 -84q-51 0 -63 84z" />
<glyph unicode="}" d="M101 2332v7q112 126 294 126q262 0 378 -252l21 -175q0 -126 -147 -448q-14 -27 -14 -77v-91q0 -156 224 -259l49 -63v-21q-28 -43 -147 -105q-84 -97 -84 -336q112 -348 112 -518v-84q0 -171 -147 -280h-77q-273 0 -273 98q28 70 112 70q32 -6 77 -49h77q70 64 70 168 v42q0 196 -98 504q-21 89 -21 168v28q0 163 154 308l-140 175q-49 88 -56 196q0 103 161 511v28q0 308 -112 308q-14 17 -91 21h-21q-86 0 -224 -84q-77 33 -77 84z" />
<glyph unicode="~" d="M67 1263v14q69 168 203 168q69 0 343 -119h42q120 0 182 175l28 7q98 -25 98 -84q0 -86 -182 -203l-105 -28q-87 0 -280 98q0 12 -49 14h-77q-37 0 -126 -91h-7q-39 0 -70 49z" />
<glyph unicode="&#xa1;" horiz-adv-x="672" d="M248 2138q0 91 119 105q95 0 112 -119q-10 -126 -105 -126h-7q-101 0 -119 140zM255 1480q51 63 77 63q84 -26 84 -56l-14 -413q0 -1232 -56 -1232h-14q-63 0 -63 182l-7 1113z" />
<glyph unicode="&#xa2;" horiz-adv-x="1139" d="M90 1062q0 453 308 679v273q7 105 42 105q91 0 91 -175l7 -182q231 -112 231 -245l7 -63q0 -84 -63 -84q-66 0 -91 168l-70 77h-14q12 0 21 -917l7 -7h14q94 16 273 196q50 83 77 84q53 -13 91 -63q-22 -73 -308 -273q-146 -69 -147 -84v-196q0 -105 -77 -105 q-70 0 -70 189q0 105 -42 105q-80 0 -217 182q-70 160 -70 336zM223 1104q0 -382 189 -448l7 42l-14 896h-14q-168 -178 -168 -490z" />
<glyph unicode="&#xa3;" horiz-adv-x="1307" d="M24 886q14 42 28 42h126l425 25h49q60 0 91 -98q0 -49 -315 -49l-285 -11q-105 0 -119 91zM220 346q14 274 14 700v259q-20 214 128 387t341.5 176.5t309.5 -185.5q91 -200 91 -346q0 -101 -84 -112q-49 0 -77 77l7 98q0 325 -170 342t-294.5 -126t-104.5 -444l-14 -672 v-336q0 -154 -70 -154q-77 0 -77 336zM252 64v14q69 168 203 168q69 0 343 -119h42q120 0 182 175l28 7q98 -25 98 -84q0 -86 -182 -203l-105 -28q-87 0 -280 98q0 12 -49 14h-77q-37 0 -126 -91h-7q-39 0 -70 49z" />
<glyph unicode="&#xa4;" />
<glyph unicode="&#xa5;" horiz-adv-x="1233" d="M40 1849q-16 71 72 71q19 -36 481 -821q79 55 245 392q92 147 204 416h7q105 -13 105 -84q0 -77 -316 -626q-161 -257 -161 -280l6 -188q31 -715 -4 -715l-35 -14q-105 22 -105 77q28 189 -3 484l-6 363q0 68 -182 316q-217 392 -301 581zM197 743q14 42 28 42h126 l507 51h49q60 0 91 -98q0 -49 -315 -49l-367 -37q-105 0 -119 91zM232 538q0 49 175 49l67 -10l405 -9l91 14q77 -31 77 -98v-7q-24 -42 -70 -42l-482 2l-179 3q-63 0 -84 98z" />
<glyph unicode="&#xa6;" horiz-adv-x="710" d="M225 1642q0 105 91 119q42 -14 42 -28v-126l51 -507v-49q0 -60 -98 -91q-49 0 -49 315zM269 107l2 482l3 179q0 63 98 84q49 0 49 -175l-10 -67l-9 -405l14 -91q-31 -77 -98 -77h-7q-42 24 -42 70z" />
<glyph unicode="&#xa7;" horiz-adv-x="1016" d="M-26 389q9 55 75 83q84 0 84 -196q0 -169 326.5 -165t293 222.5t-351.5 365t-343.5 336t88 325t278.5 126.5h21q220 0 371 -210l14 -70q0 -42 -42 -56q-112 43 -112 126q0 49 -217 84h-35q-170 0 -220 -158.5t36.5 -244.5t356 -224.5t281 -380t-167 -309.5t-378 -57 t-273 89t-73.5 208q-21 51 -12 106zM40 1043q9 55 75 83q84 0 84 -196q0 -169 326.5 -165t293 222.5t-351.5 365t-343.5 336t88 325t278.5 126.5h21q220 0 371 -210l14 -70q0 -42 -42 -56q-112 43 -112 126q0 49 -217 84h-35q-170 0 -220 -158.5t36.5 -244.5t356 -224.5 t281 -380t-167 -309.5t-378 -57t-273 89t-73.5 208q-21 51 -12 106z" />
<glyph unicode="&#xa8;" horiz-adv-x="893" d="M50 2397q0 64 126 105q100 0 130.5 -92t-60.5 -139l-63 -14q-103 0 -133 140zM464 2397q0 64 126 105q100 0 130.5 -92t-60.5 -139l-63 -14q-103 0 -133 140z" />
<glyph unicode="&#xa9;" horiz-adv-x="1674" />
<glyph unicode="&#xaa;" horiz-adv-x="648" />
<glyph unicode="&#xab;" horiz-adv-x="1772" d="M55 773q0 50 301 231q217 147 518 378l28 7q51 0 91 -91q-8 -40 -168 -119l-567 -420v-14l462 -378q113 -101 252 -168q28 -30 28 -56v-21q-16 -34 -56 -63h-14q-323 204 -798 595q-77 75 -77 119zM688 768q0 50 301 231q217 147 518 378l28 7q51 0 91 -91 q-8 -40 -168 -119l-567 -420v-14l462 -378q113 -101 252 -168q28 -30 28 -56v-21q-16 -34 -56 -63h-14q-323 204 -798 595q-77 75 -77 119z" />
<glyph unicode="&#xac;" />
<glyph unicode="&#xad;" horiz-adv-x="1062" d="M79 1025l28 14l497 -7l315 21q28 0 77 -63v-14q0 -63 -378 -63h-91q-427 0 -427 49z" />
<glyph unicode="&#xae;" horiz-adv-x="1674" />
<glyph unicode="&#xaf;" horiz-adv-x="1062" d="M23 2388l28 14l497 -7l315 21q28 0 77 -63v-14q0 -63 -378 -63h-91q-427 0 -427 49z" />
<glyph unicode="&#xb0;" horiz-adv-x="674" d="M70 1684q0 179 231 420l84 14q126 0 168 -119q28 -90 28 -140q0 -206 -273 -343l-63 -14q-156 0 -175 182zM217 1712q0 -91 42 -91q175 95 175 259v70l-21 21h-28q-168 -157 -168 -259z" />
<glyph unicode="&#xb1;" />
<glyph unicode="&#xb2;" />
<glyph unicode="&#xb3;" />
<glyph unicode="&#xb4;" horiz-adv-x="1024" d="M335 2333l18 12l101 56l9 11q33 46 126 131q41 57 97 15l12 -8q65 -48 -111 -229q-95 -129 -223 -79q-51 37 -29 91z" />
<glyph unicode="&#xb5;" horiz-adv-x="1180" />
<glyph unicode="&#xb6;" horiz-adv-x="1024" />
<glyph unicode="&#xb7;" horiz-adv-x="508" d="M91 1080q0 64 126 105q100 0 130.5 -92t-60.5 -139l-63 -14q-103 0 -133 140z" />
<glyph unicode="&#xb8;" horiz-adv-x="704" d="M79 -193q0 46 49 84h14l28 -21q9 -74 117 -106q49 0 29 268q-5 84 61.5 88.5t71.5 -179.5v-91q20 -212 -141 -212q-46 0 -112 35q-117 20 -117 134z" />
<glyph unicode="&#xb9;" />
<glyph unicode="&#xba;" horiz-adv-x="718" />
<glyph unicode="&#xbb;" horiz-adv-x="1731" d="M55 117v21q0 26 28 56q139 67 252 168l462 378v14l-567 420q-160 79 -168 119q40 91 91 91l28 -7q301 -231 518 -378q301 -181 301 -231q0 -44 -77 -119q-475 -391 -798 -595h-14q-40 29 -56 63zM688 122v21q0 26 28 56q139 67 252 168l462 378v14l-567 420 q-160 79 -168 119q40 91 91 91l28 -7q301 -231 518 -378q301 -181 301 -231q0 -44 -77 -119q-475 -391 -798 -595h-14q-40 29 -56 63z" />
<glyph unicode="&#xbc;" horiz-adv-x="1708" />
<glyph unicode="&#xbd;" horiz-adv-x="1964" />
<glyph unicode="&#xbe;" horiz-adv-x="1708" />
<glyph unicode="&#xbf;" horiz-adv-x="1348" d="M310 295v14q0 558 424 815q140 38 143 53v119l-7 357q0 26 70 49q112 -13 112 -98q0 -32 -21 -63v-245q0 -86 28 -189q0 -58 -217 -91q-167 -70 -272.5 -247t-105.5 -453v-35q0 -203 140 -287q50 -28 126 -28q202 0 399 245q58 119 98 119q47 0 77 -70 q-98 -250 -280 -336q-98 -57 -280 -84q-362 0 -434 455zM791 2184q0 61 112 133q139 0 161 -189v-7q0 -77 -126 -84q-96 0 -147 147z" />
<glyph unicode="&#xc0;" horiz-adv-x="1463" d="M-6 17q67 294 516 1572q120 327 256 605q30 28 56 28q52 0 205 -528q154 -562 350 -1540l21 -63q0 -61 -91 -70q-70 0 -70 98q-56 420 -112 595q-812 24 -812 -42q-161 -535 -196 -616l-42 -56zM376 847l7 -7h7q94 28 693 21l7 21l-288 1103q-37 -9 -216 -536 q-210 -555 -210 -602zM382 2621l11 8q103 -35 141.5 -90.5t192.5 -122.5l18 -12q83 -80 -29 -91q-164 32 -281.5 146t-52.5 162z" />
<glyph unicode="&#xc1;" horiz-adv-x="1463" d="M-6 17q67 294 516 1572q120 327 256 605q30 28 56 28q52 0 205 -528q154 -562 350 -1540l21 -63q0 -61 -91 -70q-70 0 -70 98q-56 420 -112 595q-812 24 -812 -42q-161 -535 -196 -616l-42 -56zM376 847l7 -7h7q94 28 693 21l7 21l-288 1103q-37 -9 -216 -536 q-210 -555 -210 -602zM705 2445l18 12q154 67 192.5 122.5t140.5 90.5l12 -8q65 -48 -53 -162t-281 -146q-112 11 -29 91z" />
<glyph unicode="&#xc2;" horiz-adv-x="1463" d="M-6 17q67 294 516 1572q120 327 256 605q30 28 56 28q52 0 205 -528q154 -562 350 -1540l21 -63q0 -61 -91 -70q-70 0 -70 98q-56 420 -112 595q-812 24 -812 -42q-161 -535 -196 -616l-42 -56zM376 847l7 -7h7q94 28 693 21l7 21l-288 1103q-37 -9 -216 -536 q-210 -555 -210 -602zM505 2274v11q165 261 187 299q61 62 96 62q40 0 53 -36t200 -279l5 -22q0 -41 -73 -74q-32 7 -96 136l-100 111h-11l-13 -27q-81 -91 -135 -203q-24 -23 -45 -23h-17q-28 13 -51 45z" />
<glyph unicode="&#xc3;" horiz-adv-x="1463" d="M-6 17q67 294 516 1572q120 327 256 605q30 28 56 28q52 0 205 -528q154 -562 350 -1540l21 -63q0 -61 -91 -70q-70 0 -70 98q-56 420 -112 595q-812 24 -812 -42q-161 -535 -196 -616l-42 -56zM361 2356v14q69 168 203 168q69 0 343 -119h42q120 0 182 175l28 7 q98 -25 98 -84q0 -86 -182 -203l-105 -28q-87 0 -280 98q0 12 -49 14h-77q-37 0 -126 -91h-7q-39 0 -70 49zM376 847l7 -7h7q94 28 693 21l7 21l-288 1103q-37 -9 -216 -536q-210 -555 -210 -602z" />
<glyph unicode="&#xc4;" horiz-adv-x="1463" d="M-6 17q67 294 516 1572q120 327 256 605q30 28 56 28q52 0 205 -528q154 -562 350 -1540l21 -63q0 -61 -91 -70q-70 0 -70 98q-56 420 -112 595q-812 24 -812 -42q-161 -535 -196 -616l-42 -56zM376 847l7 -7h7q94 28 693 21l7 21l-288 1103q-37 -9 -216 -536 q-210 -555 -210 -602zM539 2465q0 52 103 86q81 0 106 -75t-49 -114l-52 -11q-84 0 -108 114zM877 2465q0 52 102 86q82 0 107 -75t-49 -114l-52 -11q-84 0 -108 114z" />
<glyph unicode="&#xc5;" horiz-adv-x="1463" d="M-6 17q67 294 516 1572q120 327 256 605q30 28 56 28q52 0 205 -528q154 -562 350 -1540l21 -63q0 -61 -91 -70q-70 0 -70 98q-56 420 -112 595q-812 24 -812 -42q-161 -535 -196 -616l-42 -56zM376 847l7 -7h7q94 28 693 21l7 21l-288 1103q-37 -9 -216 -536 q-210 -555 -210 -602zM618 2322q0 146 104 263l69 11q102 0 136 -97q23 -73 23 -113q0 -168 -138 -201l-52 -11q-127 0 -142 148zM738 2345q0 -74 34 -74q58 -2 58 132v57l-17 17h-22q-53 -49 -53 -132z" />
<glyph unicode="&#xc6;" horiz-adv-x="2212" d="M-6 17q67 294 516 1572q120 327 256 605q30 28 56 28q52 0 205 -528q154 -562 350 -1540l21 -63q0 -61 -91 -70q-70 0 -70 98q-56 420 -112 595q-812 24 -812 -42q-161 -535 -196 -616l-42 -56zM376 847l7 -7h7q94 28 693 21l7 21l-288 1103q-37 -9 -216 -536 q-210 -555 -210 -602zM1223 100l30 48l20 279l42 895q15 333 2 806q4 70 206 60q130 20 471 21l78 17q63 -3 66 -87q-3 -70 -423 -51q-259 12 -262 -50l-12 -119q13 -168 0 -750l6 -28l216 -10l143 42q54 -28 51 -100q-4 -84 -382 -67l-57 -32l-15 -322q-25 -538 38 -541 l14 -1q555 26 557 80l35 -2q21 -1 38 -79q-4 -86 -256 -93l-450 -28q-120 5 -150 84z" />
<glyph unicode="&#xc7;" horiz-adv-x="1215" d="M-17.5 1071q-11.5 710 189 933.5t411 229.5t304 -81t93.5 -123q-12 -49 -63 -49h-7q-40 0 -90 73.5t-239 55.5t-333 -210t-108 -975t302 -771t391 147q99 146 140 238q89 100 140 -28q-222 -398 -469 -469q-72 -28 -203.5 -35.5t-289 173.5t-169 891zM199 -187 q0 46 49 84h14l28 -21q9 -74 117 -106q49 0 29 268q-5 84 61.5 88.5t71.5 -179.5v-91q20 -212 -141 -212q-46 0 -112 35q-117 20 -117 134z" />
<glyph unicode="&#xc8;" horiz-adv-x="1051" d="M31 100l30 48l20 279l42 895q15 333 2 806q4 70 206 60q130 20 471 21l78 17q63 -3 66 -87q-3 -70 -423 -51q-259 12 -262 -50l-12 -119q13 -168 0 -750l6 -28l216 -10l143 42q54 -28 51 -100q-4 -84 -382 -67l-57 -32l-15 -322q-25 -538 38 -541l14 -1q555 26 557 80 l35 -2q21 -1 38 -79q-4 -86 -256 -93l-450 -28q-120 5 -150 84zM142 2626l11 8q103 -35 141.5 -90.5t192.5 -122.5l18 -12q83 -80 -29 -91q-164 32 -281.5 146t-52.5 162z" />
<glyph unicode="&#xc9;" horiz-adv-x="1051" d="M31 100l30 48l20 279l42 895q15 333 2 806q4 70 206 60q130 20 471 21l78 17q63 -3 66 -87q-3 -70 -423 -51q-259 12 -262 -50l-12 -119q13 -168 0 -750l6 -28l216 -10l143 42q54 -28 51 -100q-4 -84 -382 -67l-57 -32l-15 -322q-25 -538 38 -541l14 -1q555 26 557 80 l35 -2q21 -1 38 -79q-4 -86 -256 -93l-450 -28q-120 5 -150 84zM598 2419l18 12q154 67 192.5 122.5t140.5 90.5l12 -8q65 -48 -53 -162t-281 -146q-112 11 -29 91z" />
<glyph unicode="&#xca;" horiz-adv-x="1051" d="M31 100l30 48l20 279l42 895q15 333 2 806q4 70 206 60q130 20 471 21l78 17q63 -3 66 -87q-3 -70 -423 -51q-259 12 -262 -50l-12 -119q13 -168 0 -750l6 -28l216 -10l143 42q54 -28 51 -100q-4 -84 -382 -67l-57 -32l-15 -322q-25 -538 38 -541l14 -1q555 26 557 80 l35 -2q21 -1 38 -79q-4 -86 -256 -93l-450 -28q-120 5 -150 84zM270 2341v11q165 261 187 299q61 62 96 62q40 0 53 -36t200 -279l5 -22q0 -41 -73 -74q-32 7 -96 136l-100 111h-11l-13 -27q-81 -91 -135 -203q-24 -23 -45 -23h-17q-28 13 -51 45z" />
<glyph unicode="&#xcb;" horiz-adv-x="1051" d="M31 100l30 48l20 279l42 895q15 333 2 806q4 70 206 60q130 20 471 21l78 17q63 -3 66 -87q-3 -70 -423 -51q-259 12 -262 -50l-12 -119q13 -168 0 -750l6 -28l216 -10l143 42q54 -28 51 -100q-4 -84 -382 -67l-57 -32l-15 -322q-25 -538 38 -541l14 -1q555 26 557 80 l35 -2q21 -1 38 -79q-4 -86 -256 -93l-450 -28q-120 5 -150 84zM229 2444q0 52 103 86q81 0 106 -75t-49 -114l-52 -11q-84 0 -108 114zM567 2444q0 52 102 86q82 0 107 -75t-49 -114l-52 -11q-84 0 -108 114z" />
<glyph unicode="&#xcc;" horiz-adv-x="835" d="M31 8q0 63 189 63q63 0 63 847q35 471 22 1043l-7 7h-21q-105 -2 -105 -14q-91 34 -91 84q0 77 336 77l203 21q44 0 70 -63q5 -80 -196 -77q-56 0 -43 -343l-56 -1554l21 -7l252 21q56 -23 56 -91v-7q-28 -49 -84 -49l-98 7q-306 -42 -441 -42q-70 35 -70 77zM137 2580 l11 8q103 -35 141.5 -90.5t192.5 -122.5l18 -12q83 -80 -29 -91q-164 32 -281.5 146t-52.5 162z" />
<glyph unicode="&#xcd;" horiz-adv-x="835" d="M31 8q0 63 189 63q63 0 63 847q35 471 22 1043l-7 7h-21q-105 -2 -105 -14q-91 34 -91 84q0 77 336 77l203 21q44 0 70 -63q5 -80 -196 -77q-56 0 -43 -343l-56 -1554l21 -7l252 21q56 -23 56 -91v-7q-28 -49 -84 -49l-98 7q-306 -42 -441 -42q-70 35 -70 77zM394 2404 l18 12q154 67 192.5 122.5t140.5 90.5l12 -8q65 -48 -53 -162t-281 -146q-112 11 -29 91z" />
<glyph unicode="&#xce;" horiz-adv-x="835" d="M31 8q0 63 189 63q63 0 63 847q35 471 22 1043l-7 7h-21q-105 -2 -105 -14q-91 34 -91 84q0 77 336 77l203 21q44 0 70 -63q5 -80 -196 -77q-56 0 -43 -343l-56 -1554l21 -7l252 21q56 -23 56 -91v-7q-28 -49 -84 -49l-98 7q-306 -42 -441 -42q-70 35 -70 77zM137 2241v9 q137 217 156 248q50 52 79 52q34 0 45 -30t165 -232l5 -18q0 -35 -61 -61q-27 5 -80 112l-83 93h-9l-10 -23q-68 -76 -113 -169q-20 -19 -38 -19h-14q-23 11 -42 38zM137 2241v9q137 217 156 248q50 52 79 52q34 0 45 -30t165 -232l5 -18q0 -35 -61 -61q-27 5 -80 112 l-83 93h-9l-10 -23q-68 -76 -113 -169q-20 -19 -38 -19h-14q-23 11 -42 38z" />
<glyph unicode="&#xcf;" horiz-adv-x="835" d="M31 8q0 63 189 63q63 0 63 847q35 471 22 1043l-7 7h-21q-105 -2 -105 -14q-91 34 -91 84q0 77 336 77l203 21q44 0 70 -63q5 -80 -196 -77q-56 0 -43 -343l-56 -1554l21 -7l252 21q56 -23 56 -91v-7q-28 -49 -84 -49l-98 7q-306 -42 -441 -42q-70 35 -70 77zM155 2392 q0 52 103 86q81 0 106 -75t-49 -114l-52 -11q-84 0 -108 114zM493 2392q0 52 102 86q82 0 107 -75t-49 -114l-52 -11q-84 0 -108 114z" />
<glyph unicode="&#xd0;" horiz-adv-x="1465" d="M-100 1267l28 14l497 -7l315 21q28 0 77 -63v-14q0 -63 -378 -63h-91q-427 0 -427 49zM173 154q21 113 21 217v1211l-21 532q0 77 70 77q63 -20 63 -49h21q33 42 322 56q461 0 591 -319t84.5 -831.5t-290.5 -872.5q-211 -175 -476 -175q-174 49 -217 49l-112 -7 q-56 21 -56 112zM306 1960l14 -1666q0 -139 224 -161l63 -7h42q309 0 438 367.5t131.5 847t-175 607t-338.5 131.5q-332 0 -378 -91z" />
<glyph unicode="&#xd1;" horiz-adv-x="1518" d="M39 127l32 1931q24 189 98 189q92 0 218.5 -242.5t628.5 -1325.5l119 -210l7 175v112l14 1407l-7 77q0 70 77 70h14q77 -9 63 -354.5t-14 -1605.5v-133q0 -210 -56 -210l-42 -14h-7q-57 0 -119 245q-676 1456 -840 1750h-14l-25 -1805q-29 -182 -88 -164t-59 108z M188 2413v14q69 168 203 168q69 0 343 -119h42q120 0 182 175l28 7q98 -25 98 -84q0 -86 -182 -203l-105 -28q-87 0 -280 98q0 12 -49 14h-77q-37 0 -126 -91h-7q-39 0 -70 49z" />
<glyph unicode="&#xd2;" horiz-adv-x="1429" d="M11 923q-38 667 166 977t431 349t432.5 -84t214 -722t-174 -1014.5t-491.5 -433.5q-248 32 -366 155q-92 70 -144 307q-57 264 -63 375zM148 1099l14 -251q36 -620 299 -692q90 -23 135 -20l48 3q215 12 364.5 499t120.5 950.5t-285.5 520t-447.5 -113t-245 -692.5z M382 2621l11 8q103 -35 141.5 -90.5t192.5 -122.5l18 -12q83 -80 -29 -91q-164 32 -281.5 146t-52.5 162z" />
<glyph unicode="&#xd3;" horiz-adv-x="1429" d="M11 923q-38 667 166 977t431 349t432.5 -84t214 -722t-174 -1014.5t-491.5 -433.5q-248 32 -366 155q-92 70 -144 307q-57 264 -63 375zM148 1099l14 -251q36 -620 299 -692q90 -23 135 -20l48 3q215 12 364.5 499t120.5 950.5t-285.5 520t-447.5 -113t-245 -692.5z M623 2435l18 12q154 67 192.5 122.5t140.5 90.5l12 -8q65 -48 -53 -162t-281 -146q-112 11 -29 91z" />
<glyph unicode="&#xd4;" horiz-adv-x="1429" d="M11 923q-38 667 166 977t431 349t432.5 -84t214 -722t-174 -1014.5t-491.5 -433.5q-248 32 -366 155q-92 70 -144 307q-57 264 -63 375zM148 1099l14 -251q36 -620 299 -692q90 -23 135 -20l48 3q215 12 364.5 499t120.5 950.5t-285.5 520t-447.5 -113t-245 -692.5z M525 2405v9q137 217 156 248q50 52 79 52q34 0 45 -30t165 -232l5 -18q0 -35 -61 -61q-27 5 -80 112l-83 93h-9l-10 -23q-68 -76 -113 -169q-20 -19 -38 -19h-14q-23 11 -42 38z" />
<glyph unicode="&#xd5;" horiz-adv-x="1429" d="M11 923q-38 667 166 977t431 349t432.5 -84t214 -722t-174 -1014.5t-491.5 -433.5q-248 32 -366 155q-92 70 -144 307q-57 264 -63 375zM148 1099l14 -251q36 -620 299 -692q90 -23 135 -20l48 3q215 12 364.5 499t120.5 950.5t-285.5 520t-447.5 -113t-245 -692.5z M245 2398v14q69 168 203 168q69 0 343 -119h42q120 0 182 175l28 7q98 -25 98 -84q0 -86 -182 -203l-105 -28q-87 0 -280 98q0 12 -49 14h-77q-37 0 -126 -91h-7q-39 0 -70 49z" />
<glyph unicode="&#xd6;" horiz-adv-x="1429" d="M11 923q-38 667 166 977t431 349t432.5 -84t214 -722t-174 -1014.5t-491.5 -433.5q-248 32 -366 155q-92 70 -144 307q-57 264 -63 375zM148 1099l14 -251q36 -620 299 -692q90 -23 135 -20l48 3q215 12 364.5 499t120.5 950.5t-285.5 520t-447.5 -113t-245 -692.5z M407 2491q0 52 103 86q81 0 106 -75t-49 -114l-52 -11q-84 0 -108 114zM745 2491q0 52 102 86q82 0 107 -75t-49 -114l-52 -11q-84 0 -108 114z" />
<glyph unicode="&#xd7;" />
<glyph unicode="&#xd8;" horiz-adv-x="1429" d="M11 923q-38 667 166 977t431 349t432.5 -84t214 -722t-174 -1014.5t-491.5 -433.5q-248 32 -366 155q-92 70 -144 307q-57 264 -63 375zM64 33v21q0 23 119 175q88 114 567 1218q148 278 252 567q103 221 140 231h7q49 0 77 -56l-238 -574q-161 -322 -357 -805 q-275 -596 -420 -819l-56 -21q-60 20 -91 63zM148 1099l14 -251q36 -620 299 -692q90 -23 135 -20l48 3q215 12 364.5 499t120.5 950.5t-285.5 520t-447.5 -113t-245 -692.5z" />
<glyph unicode="&#xd9;" horiz-adv-x="1490" d="M0 959v70q6 1122 46 1122h98l21 -14l-11 -1017v-224q0 -613 161 -714q103 -63 161 -63h56q368 0 497 861l60 1171q21 63 63 63q91 -27 91 -63l7 -231l-60 -1122v-98q0 -445 161 -567l14 -42q0 -42 -91 -63q-83 0 -210 315l-14 63h-7q-16 -6 -126 -217 q-174 -189 -378 -189h-42q-250 0 -399 231q-98 227 -98 728zM198 2666l11 8q103 -35 141.5 -90.5t192.5 -122.5l18 -12q83 -80 -29 -91q-164 32 -281.5 146t-52.5 162z" />
<glyph unicode="&#xda;" horiz-adv-x="1490" d="M0 959v70q6 1122 46 1122h98l21 -14l-11 -1017v-224q0 -613 161 -714q103 -63 161 -63h56q368 0 497 861l60 1171q21 63 63 63q91 -27 91 -63l7 -231l-60 -1122v-98q0 -445 161 -567l14 -42q0 -42 -91 -63q-83 0 -210 315l-14 63h-7q-16 -6 -126 -217 q-174 -189 -378 -189h-42q-250 0 -399 231q-98 227 -98 728zM823 2419l18 12q154 67 192.5 122.5t140.5 90.5l12 -8q65 -48 -53 -162t-281 -146q-112 11 -29 91z" />
<glyph unicode="&#xdb;" horiz-adv-x="1490" d="M0 959v70q6 1122 46 1122h98l21 -14l-11 -1017v-224q0 -613 161 -714q103 -63 161 -63h56q368 0 497 861l60 1171q21 63 63 63q91 -27 91 -63l7 -231l-60 -1122v-98q0 -445 161 -567l14 -42q0 -42 -91 -63q-83 0 -210 315l-14 63h-7q-16 -6 -126 -217 q-174 -189 -378 -189h-42q-250 0 -399 231q-98 227 -98 728zM316 2335v12q165 261 187 299q61 62 97 62q40 0 53 -36t200 -279l5 -23q0 -41 -73 -73q-33 6 -96 135l-101 112h-11l-12 -28q-82 -91 -136 -203q-24 -23 -45 -23h-17q-28 13 -51 45z" />
<glyph unicode="&#xdc;" horiz-adv-x="1490" d="M0 959v70q6 1122 46 1122h98l21 -14l-11 -1017v-224q0 -613 161 -714q103 -63 161 -63h56q368 0 497 861l60 1171q21 63 63 63q91 -27 91 -63l7 -231l-60 -1122v-98q0 -445 161 -567l14 -42q0 -42 -91 -63q-83 0 -210 315l-14 63h-7q-16 -6 -126 -217 q-174 -189 -378 -189h-42q-250 0 -399 231q-98 227 -98 728zM292 2480q0 52 103 86q81 0 106 -75t-49 -114l-52 -11q-84 0 -108 114zM630 2480q0 52 102 86q82 0 107 -75t-49 -114l-52 -11q-84 0 -108 114z" />
<glyph unicode="&#xdd;" horiz-adv-x="1233" d="M-6 2141q9 35 21 35q70 0 182 -238l294 -497q114 -168 133 -168q79 55 245 392q168 305 280 574h7q105 -13 105 -84q0 -77 -392 -784q-161 -257 -161 -280l6 -188q0 -889 -35 -889l-35 -14q-105 22 -105 77q28 189 28 658l-6 363q0 68 -259 434q-217 392 -301 581z M864 2506l18 12q154 67 192.5 122.5t140.5 90.5l12 -8q65 -48 -53 -162t-281 -146q-112 11 -29 91z" />
<glyph unicode="&#xde;" horiz-adv-x="1210" d="M57 38q-10 20 32 209q31 140 -3 1306q4 84 -26 390q-2 243 27 268l7 3q44 21 93 -17l31 -621q-2 -92 27 -612q7 -657 -28 -920l-42 -43q-63 -8 -109 18zM119 597q-4 84 110 97l56 2q249 -6 389 0l28 1q371 -10 334.5 304t-558.5 376q-357 -33 -356 41q-3 55 35 70 q85 33 458 -11.5t489 -297.5q98 -158 57.5 -351t-208 -233t-499.5 -55.5t-334 36.5z" />
<glyph unicode="&#xdf;" horiz-adv-x="1210" d="M5 -278q-8 21 49 206q41 138 95 1340q38 313 32 620q33 75 64 97l6 3q46 17 77 143l-17 -621q-36 -358 -46 -879q-44 -655 -100 -915l-45 -40q-63 -3 -107 26zM195 1869v21q95 408 462 329q56 0 126 -49q224 -264 224 -586t-154 -475q-84 -57 -84 -70q232 -343 268 -626 l-21 -126q-77 -266 -364 -266q-124 0 -343 245v14q0 49 77 112h28l28 -21q151 -196 266 -196h35q114 0 140 147v49q0 87 -70 259q-7 107 -282 472v7q58 112 77 112l91 -28h56q98 97 98 294t-56 368q-55 139 -147 224h-21q-204 0 -252 -91q-19 -147 -112 -147q-70 9 -70 28z " />
<glyph unicode="&#xe0;" horiz-adv-x="1406" d="M0 364v49q-14 387 324 795q215 266 469 266q231 0 231 -91v-56l7 -7l-7 -7v-63l-30 -531v-292q0 -259 154 -280q174 56 175.5 -35t-105.5 -91l-77 -7q-157 0 -266 175q-35 164 -35 231v7h-7q-267 -427 -511 -427h-21q-206 0 -287 238zM147 294q0 -168 161 -168h14 q202 48 385 406q91 193 140 418q9 126 30 426h-14q-312 -85 -441 -273q-289 -378 -275 -676v-133zM392 1952l11 8q103 -35 141.5 -90.5t192.5 -122.5l18 -12q83 -80 -29 -91q-164 32 -281.5 146t-52.5 162z" />
<glyph unicode="&#xe1;" horiz-adv-x="1406" d="M0 364v49q-14 387 324 795q215 266 469 266q231 0 231 -91v-56l7 -7l-7 -7v-63l-30 -531v-292q0 -259 154 -280q174 56 175.5 -35t-105.5 -91l-77 -7q-157 0 -266 175q-35 164 -35 231v7h-7q-267 -427 -511 -427h-21q-206 0 -287 238zM147 294q0 -168 161 -168h14 q202 48 385 406q91 193 140 418q9 126 30 426h-14q-312 -85 -441 -273q-289 -378 -275 -676v-133zM781 1781l18 12q154 67 192.5 122.5t140.5 90.5l12 -8q65 -48 -53 -162t-281 -146q-112 11 -29 91z" />
<glyph unicode="&#xe2;" horiz-adv-x="1406" d="M0 364v49q-14 387 324 795q215 266 469 266q231 0 231 -91v-56l7 -7l-7 -7v-63l-30 -531v-292q0 -259 154 -280q174 56 175.5 -35t-105.5 -91l-77 -7q-157 0 -266 175q-35 164 -35 231v7h-7q-267 -427 -511 -427h-21q-206 0 -287 238zM147 294q0 -168 161 -168h14 q202 48 385 406q91 193 140 418q9 126 30 426h-14q-312 -85 -441 -273q-289 -378 -275 -676v-133zM530 1616v12q165 261 187 299q61 62 97 62q40 0 53 -36t200 -279l5 -23q0 -41 -73 -73q-33 6 -96 135l-101 112h-11l-12 -28q-82 -91 -136 -203q-24 -23 -45 -23h-17 q-28 13 -51 45z" />
<glyph unicode="&#xe3;" horiz-adv-x="1406" d="M0 364v49q-14 387 324 795q215 266 469 266q231 0 231 -91v-56l7 -7l-7 -7v-63l-30 -531v-292q0 -259 154 -280q174 56 175.5 -35t-105.5 -91l-77 -7q-157 0 -266 175q-35 164 -35 231v7h-7q-267 -427 -511 -427h-21q-206 0 -287 238zM147 294q0 -168 161 -168h14 q202 48 385 406q91 193 140 418q9 126 30 426h-14q-312 -85 -441 -273q-289 -378 -275 -676v-133zM308 1694v14q69 168 203 168q69 0 343 -119h42q120 0 182 175l28 7q98 -25 98 -84q0 -86 -182 -203l-105 -28q-87 0 -280 98q0 12 -49 14h-77q-37 0 -126 -91h-7 q-39 0 -70 49z" />
<glyph unicode="&#xe4;" horiz-adv-x="1406" d="M0 364v49q-14 387 324 795q215 266 469 266q231 0 231 -91v-56l7 -7l-7 -7v-63l-30 -531v-292q0 -259 154 -280q174 56 175.5 -35t-105.5 -91l-77 -7q-157 0 -266 175q-35 164 -35 231v7h-7q-267 -427 -511 -427h-21q-206 0 -287 238zM147 294q0 -168 161 -168h14 q202 48 385 406q91 193 140 418q9 126 30 426h-14q-312 -85 -441 -273q-289 -378 -275 -676v-133zM434 1672q0 52 103 86q81 0 106 -75t-49 -114l-52 -11q-84 0 -108 114zM772 1672q0 52 102 86q82 0 107 -75t-49 -114l-52 -11q-84 0 -108 114z" />
<glyph unicode="&#xe5;" horiz-adv-x="1406" d="M0 364v49q-14 387 324 795q215 266 469 266q231 0 231 -91v-56l7 -7l-7 -7v-63l-30 -531v-292q0 -259 154 -280q174 56 175.5 -35t-105.5 -91l-77 -7q-157 0 -266 175q-35 164 -35 231v7h-7q-267 -427 -511 -427h-21q-206 0 -287 238zM147 294q0 -168 161 -168h14 q202 48 385 406q91 193 140 418q9 126 30 426h-14q-312 -85 -441 -273q-289 -378 -275 -676v-133zM618 1791q0 146 104 263l69 11q102 0 136 -97q23 -73 23 -113q0 -168 -138 -201l-52 -11q-127 0 -142 148zM738 1814q0 -74 34 -74q58 -2 58 132v57l-17 17h-22 q-53 -49 -53 -132z" />
<glyph unicode="&#xe6;" horiz-adv-x="1954" d="M0 364v49q-14 387 324 795q215 266 469 266q231 0 231 -91v-56l7 -7l-7 -7v-63l-30 -531v-292q0 -259 154 -280q174 56 175.5 -35t-105.5 -91l-77 -7q-157 0 -266 175q-35 164 -35 231v7h-7q-267 -427 -511 -427h-21q-206 0 -287 238zM147 294q0 -168 161 -168h14 q202 48 385 406q91 193 140 418q9 126 30 426h-14q-312 -85 -441 -273q-289 -378 -275 -676v-133zM896.5 754q40.5 280 236 522t399.5 242q123 0 189 -161l7 -56v-56q0 -276 -173 -407q-255 -203 -336 -203q-189 -46 -189 -126v-77q14 -223 174.5 -275t337 109.5t215.5 197 t87 40t48 -62.5q0 -81 -199.5 -241t-413.5 -169.5t-346 221.5q-77 222 -36.5 502zM1079 740h7q241 57 364 203q138 92 138 344q0 105 -42 105q-234 -77 -371 -315q-96 -158 -96 -337z" />
<glyph unicode="&#xe7;" horiz-adv-x="952" d="M48 606q0 671 231 868q58 28 119 28h7q169 -13 339 -216l7 -35q-24 -84 -77 -84q-55 2 -133 147q-30 28 -129 41q-141 0 -210 -700q0 -284 119 -483q63 -49 164 -36q85 0 224 154l42 14v7q77 -37 77 -77q0 -171 -322 -238q-184 -13 -318 113q-140 220 -140 497zM79 -193 q0 46 49 84h14l28 -21q9 -74 117 -106q49 0 29 268q-5 84 61.5 88.5t71.5 -179.5v-91q20 -212 -141 -212q-46 0 -112 35q-117 20 -117 134z" />
<glyph unicode="&#xe8;" horiz-adv-x="1086" d="M40.5 733q40.5 280 236 522t399.5 242q123 0 189 -161l7 -56v-56q0 -276 -173 -407q-255 -203 -336 -203q-189 -46 -189 -126v-77q14 -223 174.5 -275t337 109.5t215.5 197t87 40t48 -62.5q0 -81 -199.5 -241t-413.5 -169.5t-346 221.5q-77 222 -36.5 502zM223 719h7 q241 57 364 203q138 92 138 344q0 105 -42 105q-234 -77 -371 -315q-96 -158 -96 -337zM223 1942l11 8q103 -35 141.5 -90.5t192.5 -122.5l18 -12q83 -80 -29 -91q-164 32 -281.5 146t-52.5 162z" />
<glyph unicode="&#xe9;" horiz-adv-x="1086" d="M40.5 733q40.5 280 236 522t399.5 242q123 0 189 -161l7 -56v-56q0 -276 -173 -407q-255 -203 -336 -203q-189 -46 -189 -126v-77q14 -223 174.5 -275t337 109.5t215.5 197t87 40t48 -62.5q0 -81 -199.5 -241t-413.5 -169.5t-346 221.5q-77 222 -36.5 502zM223 719h7 q241 57 364 203q138 92 138 344q0 105 -42 105q-234 -77 -371 -315q-96 -158 -96 -337zM603 1766l18 12q154 67 192.5 122.5t140.5 90.5l12 -8q65 -48 -53 -162t-281 -146q-112 11 -29 91z" />
<glyph unicode="&#xea;" horiz-adv-x="1086" d="M40.5 733q40.5 280 236 522t399.5 242q123 0 189 -161l7 -56v-56q0 -276 -173 -407q-255 -203 -336 -203q-189 -46 -189 -126v-77q14 -223 174.5 -275t337 109.5t215.5 197t87 40t48 -62.5q0 -81 -199.5 -241t-413.5 -169.5t-346 221.5q-77 222 -36.5 502zM223 719h7 q241 57 364 203q138 92 138 344q0 105 -42 105q-234 -77 -371 -315q-96 -158 -96 -337zM316 1640v12q165 261 187 299q61 62 97 62q40 0 53 -36t200 -279l5 -23q0 -41 -73 -73q-33 6 -96 135l-101 112h-11l-12 -28q-82 -91 -136 -203q-24 -23 -45 -23h-17q-28 13 -51 45z " />
<glyph unicode="&#xeb;" horiz-adv-x="1086" d="M40.5 733q40.5 280 236 522t399.5 242q123 0 189 -161l7 -56v-56q0 -276 -173 -407q-255 -203 -336 -203q-189 -46 -189 -126v-77q14 -223 174.5 -275t337 109.5t215.5 197t87 40t48 -62.5q0 -81 -199.5 -241t-413.5 -169.5t-346 221.5q-77 222 -36.5 502zM223 719h7 q241 57 364 203q138 92 138 344q0 105 -42 105q-234 -77 -371 -315q-96 -158 -96 -337zM297 1729q0 52 103 86q81 0 106 -75t-49 -114l-52 -11q-84 0 -108 114zM635 1729q0 52 102 86q82 0 107 -75t-49 -114l-52 -11q-84 0 -108 114z" />
<glyph unicode="&#xec;" horiz-adv-x="704" d="M-93 2003l12 8q102 -35 141 -90.5t192 -122.5l18 -12q83 -80 -29 -91q-163 32 -281 146t-53 162zM99 350v91q0 398 61 924v77q0 35 49 42q84 -21 84 -84q-61 -570 -61 -868q0 -406 49 -406q108 32 224 259l28 21h14q49 -38 49 -84q0 -114 -224 -287q-66 -35 -112 -35 q-161 0 -161 350z" />
<glyph unicode="&#xed;" horiz-adv-x="704" d="M99 350v91q0 398 61 924v77q0 35 49 42q84 -21 84 -84q-61 -570 -61 -868q0 -406 49 -406q108 32 224 259l28 21h14q49 -38 49 -84q0 -114 -224 -287q-66 -35 -112 -35q-161 0 -161 350zM175 1781l18 12q153 67 192 122.5t141 90.5l12 -8q65 -48 -53 -162t-281 -146 q-112 11 -29 91z" />
<glyph unicode="&#xee;" horiz-adv-x="704" d="M-47 1630v12q165 261 187 299q61 62 97 62q40 0 53 -36t200 -279l5 -23q0 -41 -73 -73q-33 6 -96 135l-101 112h-11l-12 -28q-82 -91 -136 -203q-24 -23 -45 -23h-17q-28 13 -51 45zM99 350v91q0 398 61 924v77q0 35 49 42q84 -21 84 -84q-61 -570 -61 -868 q0 -406 49 -406q108 32 224 259l28 21h14q49 -38 49 -84q0 -114 -224 -287q-66 -35 -112 -35q-161 0 -161 350z" />
<glyph unicode="&#xef;" horiz-adv-x="704" d="M-18 1730q0 52 103 86q81 0 106 -75t-49 -114l-52 -11q-84 0 -108 114zM99 350v91q0 398 61 924v77q0 35 49 42q84 -21 84 -84q-61 -570 -61 -868q0 -406 49 -406q108 32 224 259l28 21h14q49 -38 49 -84q0 -114 -224 -287q-66 -35 -112 -35q-161 0 -161 350zM320 1730 q0 52 102 86q82 0 107 -75t-49 -114l-52 -11q-84 0 -108 114z" />
<glyph unicode="&#xf0;" horiz-adv-x="1139" />
<glyph unicode="&#xf1;" horiz-adv-x="1424" d="M60 1378q0 52 91 63q77 0 77 -154q-46 -277 -25 -437h7q100 210 217 364q205 231 398.5 231t217.5 -217q5 -1100 89 -1100q24 -21 81.5 -9.5t106 38.5t78.5 -43q0 -94 -252 -133q-126 -11 -184.5 222t-58.5 406v14l-7 633q-8 56 -154 30.5t-308 -296.5 q-128 -245 -154 -462q-19 -135 -56 -451q-29 -77 -84 -77q-41 0 -77 49l7 315v185q0 257 -3 829h-7zM104 1704v14q69 168 203 168q69 0 343 -119h42q120 0 182 175l28 7q98 -25 98 -84q0 -86 -182 -203l-105 -28q-87 0 -280 98q0 12 -49 14h-77q-37 0 -126 -91h-7 q-39 0 -70 49z" />
<glyph unicode="&#xf2;" horiz-adv-x="1193" d="M19.5 702q-14.5 335 139.5 565t370 230q368 -51 445.5 -467.5t-78 -719.5t-406.5 -306.5t-353.5 180t-117 518.5zM107 2070l11 8q103 -35 141.5 -90.5t192.5 -122.5l18 -12q83 -80 -29 -91q-164 32 -281.5 146t-52.5 162zM162 580q7 -358 264 -423.5t371 274t23.5 639 t-263.5 287.5l-28 21h-21q-180 -69 -266.5 -254.5t-79.5 -543.5z" />
<glyph unicode="&#xf3;" horiz-adv-x="1193" d="M19.5 702q-14.5 335 139.5 565t370 230q368 -51 445.5 -467.5t-78 -719.5t-406.5 -306.5t-353.5 180t-117 518.5zM162 580q7 -358 264 -423.5t371 274t23.5 639t-263.5 287.5l-28 21h-21q-180 -69 -266.5 -254.5t-79.5 -543.5zM404 1735l18 12q154 67 192.5 122.5 t140.5 90.5l12 -8q65 -48 -53 -162t-281 -146q-112 11 -29 91z" />
<glyph unicode="&#xf4;" horiz-adv-x="1193" d="M19.5 702q-14.5 335 139.5 565t370 230q368 -51 445.5 -467.5t-78 -719.5t-406.5 -306.5t-353.5 180t-117 518.5zM162 580q7 -358 264 -423.5t371 274t23.5 639t-263.5 287.5l-28 21h-21q-180 -69 -266.5 -254.5t-79.5 -543.5zM230 1579v12q165 261 187 299q61 62 97 62 q40 0 53 -36t200 -279l5 -23q0 -41 -73 -73q-33 6 -96 135l-101 112h-11l-12 -28q-82 -91 -136 -203q-24 -23 -45 -23h-17q-28 13 -51 45z" />
<glyph unicode="&#xf5;" horiz-adv-x="1193" d="M19.5 702q-14.5 335 139.5 565t370 230q368 -51 445.5 -467.5t-78 -719.5t-406.5 -306.5t-353.5 180t-117 518.5zM30 1663v14q69 168 203 168q69 0 343 -119h42q120 0 182 175l28 7q98 -25 98 -84q0 -86 -182 -203l-105 -28q-87 0 -280 98q0 12 -49 14h-77 q-37 0 -126 -91h-7q-39 0 -70 49zM162 580q7 -358 264 -423.5t371 274t23.5 639t-263.5 287.5l-28 21h-21q-180 -69 -266.5 -254.5t-79.5 -543.5z" />
<glyph unicode="&#xf6;" horiz-adv-x="1193" d="M19.5 702q-14.5 335 139.5 565t370 230q368 -51 445.5 -467.5t-78 -719.5t-406.5 -306.5t-353.5 180t-117 518.5zM162 580q7 -358 264 -423.5t371 274t23.5 639t-263.5 287.5l-28 21h-21q-180 -69 -266.5 -254.5t-79.5 -543.5zM219 1672q0 52 103 86q81 0 106 -75 t-49 -114l-52 -11q-84 0 -108 114zM557 1672q0 52 102 86q82 0 107 -75t-49 -114l-52 -11q-84 0 -108 114z" />
<glyph unicode="&#xf7;" />
<glyph unicode="&#xf8;" horiz-adv-x="1193" d="M-15 -35q0 23 119 175q88 114 567 1218q48 78 15 15q103 221 140 231h7q49 0 77 -56l-101 -222q-61 -122 -257 -605q-275 -596 -420 -819l-56 -21q-60 20 -91 63v21zM19.5 702q-14.5 335 139.5 565t370 230q368 -51 445.5 -467.5t-78 -719.5t-406.5 -306.5t-353.5 180 t-117 518.5zM162 580q7 -358 264 -423.5t371 274t23.5 639t-263.5 287.5l-28 21h-21q-180 -69 -266.5 -254.5t-79.5 -543.5z" />
<glyph unicode="&#xf9;" horiz-adv-x="1511" d="M0 735q14 732 66 732h21q84 0 84 -182v-56q-17 -249 -17 -389v-28q-35 -669 161 -686q408 0 528 880q0 427 112 427q55 0 91 -119q-49 -78 -52 -880q0 -199 147 -238h49q40 0 189 77q70 -36 70 -91q0 -93 -280 -112q-192 0 -294 203l-28 133q-46 -162 -238 -315 q-162 -91 -259 -91q-221 0 -287 168q-63 268 -63 567zM14 2044l12 8q102 -35 141 -90.5t192 -122.5l18 -12q83 -80 -29 -91q-163 32 -281 146t-53 162z" />
<glyph unicode="&#xfa;" horiz-adv-x="1511" d="M0 735q14 732 66 732h21q84 0 84 -182v-56q-17 -249 -17 -389v-28q-35 -669 161 -686q408 0 528 880q0 427 112 427q55 0 91 -119q-49 -78 -52 -880q0 -199 147 -238h49q40 0 189 77q70 -36 70 -91q0 -93 -280 -112q-192 0 -294 203l-28 133q-46 -162 -238 -315 q-162 -91 -259 -91q-221 0 -287 168q-63 268 -63 567zM721 1806l18 12q154 67 192.5 122.5t140.5 90.5l12 -8q65 -48 -53 -162t-281 -146q-112 11 -29 91z" />
<glyph unicode="&#xfb;" horiz-adv-x="1511" d="M0 735q14 732 66 732h21q84 0 84 -182v-56q-17 -249 -17 -389v-28q-35 -669 161 -686q408 0 528 880q0 427 112 427q55 0 91 -119q-49 -78 -52 -880q0 -199 147 -238h49q40 0 189 77q70 -36 70 -91q0 -93 -280 -112q-192 0 -294 203l-28 133q-46 -162 -238 -315 q-162 -91 -259 -91q-221 0 -287 168q-63 268 -63 567zM270 1549v12q165 261 187 299q61 62 97 62q40 0 53 -36t200 -279l5 -23q0 -41 -73 -73q-33 6 -96 135l-101 112h-11l-12 -28q-82 -91 -136 -203q-24 -23 -45 -23h-17q-28 13 -51 45z" />
<glyph unicode="&#xfc;" horiz-adv-x="1511" d="M0 735q14 732 66 732h21q84 0 84 -182v-56q-17 -249 -17 -389v-28q-35 -669 161 -686q408 0 528 880q0 427 112 427q55 0 91 -119q-49 -78 -52 -880q0 -199 147 -238h49q40 0 189 77q70 -36 70 -91q0 -93 -280 -112q-192 0 -294 203l-28 133q-46 -162 -238 -315 q-162 -91 -259 -91q-221 0 -287 168q-63 268 -63 567zM266 1761q0 52 103 86q81 0 106 -75t-49 -114l-52 -11q-84 0 -108 114zM604 1761q0 52 102 86q82 0 107 -75t-49 -114l-52 -11q-84 0 -108 114z" />
<glyph unicode="&#xfd;" horiz-adv-x="1193" d="M-21.5 -1029.5q-56.5 192.5 66.5 291.5q56 -17 56 -112v-84q0 -156 273 -162.5t325.5 199.5t58.5 343.5t31 775.5l-261 -162q-347 -180 -425.5 60.5t-78.5 660.5l-3 404q0 315 63 315l28 7q70 -43 70 -91l-11 -257v-154q0 -868 105 -868h28q456 53 493.5 429t37.5 861 q27 77 77 77v7q84 -21 84 -126l-62 -912q-23 -1162 -103.5 -1428.5t-505.5 -272.5q-290 6 -346.5 198.5zM710 1919l18 12q154 67 192.5 122.5t140.5 90.5l12 -8q65 -48 -53 -162t-281 -146q-112 11 -29 91z" />
<glyph unicode="&#xfe;" horiz-adv-x="1256" d="M41 -393q-10 20 32 209q31 140 -3 1306q4 84 -26 390q-2 243 27 268l7 3q44 21 93 -17l31 -621q-2 -92 27 -612q7 -657 -28 -920l-42 -43q-63 -8 -109 18zM124 339q-4 84 110 97l56 2q249 -6 389 0l28 1q371 -10 334.5 304t-558.5 376q-357 -33 -356 41q-3 55 35 70 q85 33 458 -11.5t489 -297.5q98 -158 57.5 -351t-208 -233t-499.5 -55.5t-334 36.5z" />
<glyph unicode="&#xff;" horiz-adv-x="1193" d="M-21.5 -1029.5q-56.5 192.5 66.5 291.5q56 -17 56 -112v-84q0 -156 273 -162.5t325.5 199.5t58.5 343.5t31 775.5l-261 -162q-347 -180 -425.5 60.5t-78.5 660.5l-3 404q0 315 63 315l28 7q70 -43 70 -91l-11 -257v-154q0 -868 105 -868h28q456 53 493.5 429t37.5 861 q27 77 77 77v7q84 -21 84 -126l-62 -912q-23 -1162 -103.5 -1428.5t-505.5 -272.5q-290 6 -346.5 198.5zM235 1840q0 52 103 86q81 0 106 -75t-49 -114l-52 -11q-84 0 -108 114zM573 1840q0 52 102 86q82 0 107 -75t-49 -114l-52 -11q-84 0 -108 114z" />
<glyph unicode="&#x152;" horiz-adv-x="2091" d="M11 923q-38 667 166 977t431 349t432.5 -84t214 -722t-174 -1014.5t-491.5 -433.5q-248 32 -366 155q-92 70 -144 307q-57 264 -63 375zM148 1099l14 -251q36 -620 299 -692q90 -23 135 -20l48 3q215 12 364.5 499t120.5 950.5t-285.5 520t-447.5 -113t-245 -692.5z M1082 153l30 48l20 279l42 895q15 333 2 806q4 70 206 60q130 20 471 21l78 17q63 -3 66 -87q-3 -70 -423 -51q-259 12 -262 -50l-12 -119q13 -168 0 -750l6 -28l216 -10l143 42q54 -28 51 -100q-4 -84 -382 -67l-57 -32l-15 -322q-25 -538 38 -541l14 -1q555 26 557 80 l35 -2q21 -1 38 -79q-4 -86 -256 -93l-450 -28q-120 5 -150 84z" />
<glyph unicode="&#x153;" horiz-adv-x="1891" d="M19.5 702q-14.5 335 139.5 565t370 230q368 -51 445.5 -467.5t-78 -719.5t-406.5 -306.5t-353.5 180t-117 518.5zM162 580q7 -358 264 -423.5t371 274t23.5 639t-263.5 287.5l-28 21h-21q-180 -69 -266.5 -254.5t-79.5 -543.5zM823.5 759q40.5 280 236 522t399.5 242 q123 0 189 -161l7 -56v-56q0 -276 -173 -407q-255 -203 -336 -203q-189 -46 -189 -126v-77q14 -223 174.5 -275t337 109.5t215.5 197t87 40t48 -62.5q0 -81 -199.5 -241t-413.5 -169.5t-346 221.5q-77 222 -36.5 502zM1006 745h7q241 57 364 203q138 92 138 344 q0 105 -42 105q-234 -77 -371 -315q-96 -158 -96 -337z" />
<glyph unicode="&#x178;" horiz-adv-x="1233" d="M-6 2141q9 35 21 35q70 0 182 -238l294 -497q114 -168 133 -168q79 55 245 392q168 305 280 574h7q105 -13 105 -84q0 -77 -392 -784q-161 -257 -161 -280l6 -188q0 -889 -35 -889l-35 -14q-105 22 -105 77q28 189 28 658l-6 363q0 68 -259 434q-217 392 -301 581z M312 2444q0 52 103 86q82 0 107 -75.5t-49 -114.5l-52 -11q-84 0 -109 115zM682 2435q0 52 103 86q82 0 107 -75.5t-50 -114.5l-51 -11q-85 0 -109 115z" />
<glyph unicode="&#x2c6;" horiz-adv-x="888" d="M142 2290v11q165 261 187 299q61 62 96 62q40 0 53 -36t200 -279l5 -22q0 -41 -73 -74q-32 7 -96 136l-100 111h-11l-13 -27q-81 -91 -135 -203q-24 -23 -45 -23h-17q-28 13 -51 45z" />
<glyph unicode="&#x2dc;" horiz-adv-x="1024" />
<glyph unicode="&#x2000;" horiz-adv-x="1365" />
<glyph unicode="&#x2001;" horiz-adv-x="2731" />
<glyph unicode="&#x2002;" horiz-adv-x="1365" />
<glyph unicode="&#x2003;" horiz-adv-x="2731" />
<glyph unicode="&#x2004;" horiz-adv-x="910" />
<glyph unicode="&#x2005;" horiz-adv-x="682" />
<glyph unicode="&#x2006;" horiz-adv-x="455" />
<glyph unicode="&#x2007;" horiz-adv-x="455" />
<glyph unicode="&#x2008;" horiz-adv-x="341" />
<glyph unicode="&#x2009;" horiz-adv-x="546" />
<glyph unicode="&#x200a;" horiz-adv-x="151" />
<glyph unicode="&#x2010;" horiz-adv-x="1062" d="M79 1025l28 14l497 -7l315 21q28 0 77 -63v-14q0 -63 -378 -63h-91q-427 0 -427 49z" />
<glyph unicode="&#x2011;" horiz-adv-x="1062" d="M79 1025l28 14l497 -7l315 21q28 0 77 -63v-14q0 -63 -378 -63h-91q-427 0 -427 49z" />
<glyph unicode="&#x2012;" horiz-adv-x="1062" d="M79 1025l28 14l497 -7l315 21q28 0 77 -63v-14q0 -63 -378 -63h-91q-427 0 -427 49z" />
<glyph unicode="&#x2013;" horiz-adv-x="1108" />
<glyph unicode="&#x2014;" horiz-adv-x="2048" />
<glyph unicode="&#x2018;" horiz-adv-x="604" d="M154 1877q113 287 182 287q98 -35 98 -91q0 -33 -98 -119l-28 -105v-7q88 0 105 -112q-21 -126 -105 -126q-154 0 -154 273z" />
<glyph unicode="&#x2019;" horiz-adv-x="604" d="M154 1695q0 33 98 119l28 105v7q-87 0 -105 112q21 126 105 126q154 0 154 -273q-113 -287 -182 -287q-98 35 -98 91z" />
<glyph unicode="&#x201a;" horiz-adv-x="604" d="M165 -176q0 33 98 119l28 105v7q-87 0 -105 112q21 126 105 126q154 0 154 -273q-113 -287 -182 -287q-98 35 -98 91z" />
<glyph unicode="&#x201c;" horiz-adv-x="910" d="M145.5 1767.5q-34.5 78.5 8.5 222.5q0 152 140 210h7q84 -13 84 -77v-21q0 -12 -84 -56l-21 -77v-21q95 -3 115.5 -129t-129.5 -130h-7q-79 0 -113.5 78.5zM492 1765.5q-41 80.5 15 220.5q0 152 140 210h7q84 -13 84 -77v-21q0 -12 -84 -56l-21 -77v-21q95 -3 115.5 -129 t-129.5 -130h-7q-79 0 -120 80.5z" />
<glyph unicode="&#x201d;" horiz-adv-x="910" d="M132.5 2070q-20.5 126 129.5 130h7q79 0 120 -80.5t-15 -220.5q0 -152 -140 -210h-7q-84 13 -84 77v21q0 12 84 56l21 77v21q-95 3 -115.5 129zM485.5 2066q-20.5 126 129.5 130h7q79 0 113.5 -78.5t-8.5 -222.5q0 -152 -140 -210h-7q-84 13 -84 77v21q0 12 84 56l21 77 v21q-95 3 -115.5 129z" />
<glyph unicode="&#x201e;" horiz-adv-x="910" d="M221.5 120q-20.5 126 129.5 130h7q79 0 120 -80.5t-15 -220.5q0 -152 -140 -210h-7q-84 13 -84 77v21q0 12 84 56l21 77v21q-95 3 -115.5 129zM574.5 116q-20.5 126 129.5 130h7q79 0 113.5 -78.5t-8.5 -222.5q0 -152 -140 -210h-7q-84 13 -84 77v21q0 12 84 56l21 77v21 q-95 3 -115.5 129z" />
<glyph unicode="&#x2022;" horiz-adv-x="699" d="M85 1318q-28 190 206 266q187 0 243.5 -171t-112.5 -259l-118 -26q-191 0 -219 190z" />
<glyph unicode="&#x2026;" horiz-adv-x="1885" d="M229 145q0 64 126 105q100 0 161 -126q0 -58 -91 -105l-63 -14q-103 0 -133 140zM847 154q0 64 126 105q100 0 161 -126q0 -58 -91 -105l-63 -14q-103 0 -133 140zM1443 150q0 64 126 105q100 0 161 -126q0 -58 -91 -105l-63 -14q-103 0 -133 140z" />
<glyph unicode="&#x202f;" horiz-adv-x="546" />
<glyph unicode="&#x2039;" horiz-adv-x="1144" d="M55 773q0 50 301 231q217 147 518 378l28 7q51 0 91 -91q-8 -40 -168 -119l-567 -420v-14l462 -378q113 -101 252 -168q28 -30 28 -56v-21q-16 -34 -56 -63h-14q-323 204 -798 595q-77 75 -77 119z" />
<glyph unicode="&#x203a;" horiz-adv-x="1093" d="M55 117v21q0 26 28 56q139 67 252 168l462 378v14l-567 420q-160 79 -168 119q40 91 91 91l28 -7q301 -231 518 -378q301 -181 301 -231q0 -44 -77 -119q-475 -391 -798 -595h-14q-40 29 -56 63z" />
<glyph unicode="&#x205f;" horiz-adv-x="682" />
<glyph unicode="&#x20ac;" horiz-adv-x="1333" d="M-7 900q0 49 175 49h301l334 6l91 14q77 -31 77 -98v-7q-24 -42 -70 -42l-411 -13l-413 -7q-63 0 -84 98zM-7 1259q14 42 28 42h126l670 76h49q60 0 91 -98q0 -49 -315 -49l-530 -62q-105 0 -119 91zM117 961.5q-19 579.5 181.5 803t411 229.5t304 -81t93.5 -123 q-12 -49 -63 -49h-7q-40 0 -90 73.5t-239 55.5t-333 -210t-100.5 -844.5t309.5 -640.5t445.5 151.5t230.5 11.5q-227 -204 -474 -275q-72 -28 -203.5 -35.5t-289 173.5t-176.5 760.5z" />
<glyph unicode="&#x2122;" horiz-adv-x="1497" />
<glyph unicode="&#x25fc;" horiz-adv-x="1505" d="M0 0v1505h1505v-1505h-1505z" />
</font>
</defs>
</svg>
